{
.appVersion = "1271";
copyright = "Copyright 2013 Danh Hong. All Rights Reserved.";
customParameters = (
{
name = vendorID;
value = "HL  ";
},
{
name = panose;
value = (
2,
11,
6,
6,
3,
8,
4,
2,
2,
4
);
},
{
name = unicodeRanges;
value = (
0,
1,
31,
45
);
},
{
name = glyphOrder;
value = (
.notdef,
.null,
CR,
space,
exclam,
quotedbl,
numbersign,
dollar,
percent,
ampersand,
quotesingle,
parenleft,
parenright,
asterisk,
plus,
comma,
hyphen,
period,
slash,
zero,
one,
two,
three,
four,
five,
six,
seven,
eight,
nine,
colon,
semicolon,
less,
equal,
greater,
question,
at,
braceleft,
bar,
braceright,
asciitilde,
zwsp,
guillemotleft,
uni00AD,
guillemotright,
uni1780,
uni1781,
uni1782,
uni1783,
uni1784,
uni1785,
uni1786,
uni1787,
uni1788,
uni1789,
uni178A,
uni178B,
uni178C,
uni178D,
uni178E,
uni178F,
uni1790,
uni1791,
uni1792,
uni1793,
uni1794,
uni1795,
uni1796,
uni1797,
uni1798,
uni1799,
uni179A,
uni179B,
uni179C,
uni179D,
uni179E,
uni179F,
uni17A0,
uni17A1,
uni17A2,
uni17A3,
uni17A4,
uni17A5,
uni17A6,
uni17A7,
uni17A8,
uni17A9,
uni17AA,
uni17AB,
uni17AC,
uni17AD,
uni17AE,
uni17AF,
uni17B0,
uni17B1,
uni17B2,
uni17B3,
uni17B6,
uni17B7,
uni17B8,
uni17B9,
uni17BA,
uni17BB,
uni17BC,
uni17BD,
uni17BE,
uni17BF,
uni17C0,
uni17C1,
uni17C2,
uni17C3,
uni17C4,
uni17C5,
uni17C6,
uni17C7,
uni17C8,
uni17C9,
uni17CA,
uni17CB,
uni17CC,
uni17CD,
uni17CE,
uni17CF,
uni17D0,
uni17D1,
uni17D2,
uni17D3,
uni17D4,
uni17D5,
uni17D6,
uni17D7,
uni17D8,
uni17D9,
uni17DA,
uni17DB,
uni17E0,
uni17E1,
uni17E2,
uni17E3,
uni17E4,
uni17E5,
uni17E6,
uni17E7,
uni17E8,
uni17E9,
uni17D21780,
uni17D21781,
uni17D21782,
uni17D21783,
uni17D21784,
uni17D21785,
uni17D21786,
uni17D21787,
uni17D21788,
uni17D21789,
uni17D21789.a,
uni17D2178A,
uni17D2178B,
uni17D2178C,
uni17D2178D,
uni17D2178E,
uni17D2178F,
uni17D21790,
uni17D21791,
uni17D21792,
uni17D21793,
uni17D21794,
uni17D21795,
uni17D21796,
uni17D21797,
uni17D21798,
uni17D21799,
uni17D2179A,
uni17D2179B,
uni17D2179C,
uni17D2179F,
uni17D217A0,
uni17D217A2,

glyphs = (
{
glyphname = exclam;
layers = (
{
layerId = "4245090C-1DC1-4B2E-AF8E-CDB91B981D5B";
paths = (
{
closed = 1;
nodes = (
"334 467 LINE",
"449 467 LINE",
"569 1462 LINE",
"213 1462 LINE",
"213 1462 LINE"
);
},
{
closed = 1;
nodes = (
"225 101 OFFCURVE",
"251 39 OFFCURVE",
"296 1 OFFCURVE",
"358 -16 OFFCURVE",
"393 -16 QCURVE SMOOTH",
"427 -16 OFFCURVE",
"488 1 OFFCURVE",
"534 39 OFFCURVE",
"561 101 OFFCURVE",
"561 147 QCURVE SMOOTH",
"561 194 OFFCURVE",
"534 257 OFFCURVE",
"488 295 OFFCURVE",
"427 311 OFFCURVE",
"393 311 QCURVE SMOOTH",
"358 311 OFFCURVE",
"296 295 OFFCURVE",
"251 257 OFFCURVE",
"225 194 OFFCURVE",
"225 147 QCURVE",
"225 147 LINE"
);
}
);
width = 782;
}
);
note = exclam;
unicode = 0021;
},
{
glyphname = quotedbl;
layers = (
{
layerId = "4245090C-1DC1-4B2E-AF8E-CDB91B981D5B";
paths = (
{
closed = 1;
nodes = (
"696 899 LINE",
"831 899 LINE",
"903 1462 LINE",
"584 1462 LINE",
"584 1462 LINE"
);
},
{
closed = 1;
nodes = (
"229 899 LINE",
"365 899 LINE",
"457 1462 LINE",
"137 1462 LINE",
"137 1462 LINE"
);
}
);
width = 1040;
}
);
note = quotedbl;
unicode = 0022;
},
{
glyphname = numbersign;
layers = (
{
layerId = "4245090C-1DC1-4B2E-AF8E-CDB91B981D5B";
paths = (
{
closed = 1;
nodes = (
"795 551 LINE",
"864 922 LINE",
"1087 922 LINE",
"1087 1065 LINE",
"891 1065 LINE",
"967 1462 LINE",
"821 1462 LINE",
"745 1065 LINE",
"532 1065 LINE",
"606 1462 LINE",
"459 1462 LINE",
"387 1065 LINE",
"123 1065 LINE",
"123 922 LINE",
"360 922 LINE",
"289 551 LINE",
"57 551 LINE",
"57 410 LINE",
"262 410 LINE",
"184 0 LINE",
"330 0 LINE",
"408 410 LINE",
"621 410 LINE",
"545 0 LINE",
"690 0 LINE",
"766 410 LINE",
"1022 410 LINE",
"1022 551 LINE",
"1022 551 LINE"
);
},
{
closed = 1;
nodes = (
"506 922 LINE",
"721 922 LINE",
"649 551 LINE",
"434 551 LINE",
"434 551 LINE"
);
}
);
width = 1145;
}
);
note = numbersign;
unicode = 0023;
},
{
glyphname = dollar;
layers = (
{
layerId = "4245090C-1DC1-4B2E-AF8E-CDB91B981D5B";
paths = (
{
closed = 1;
nodes = (
"524 1556 LINE",
"524 1399 LINE",
"440 1390 OFFCURVE",
"301 1331 OFFCURVE",
"201 1239 OFFCURVE",
"145 1116 OFFCURVE",
"145 1042 QCURVE SMOOTH",
"145 976 OFFCURVE",
"179 868 OFFCURVE",
"260 775 OFFCURVE",
"391 693 OFFCURVE",
"489 653 QCURVE SMOOTH",
"524 639 LINE",
"524 197 LINE",
"472 205 OFFCURVE",
"387 257 OFFCURVE",
"326 342 OFFCURVE",
"293 462 OFFCURVE",
"293 539 QCURVE",
"256 539 OFFCURVE",
"187 521 OFFCURVE",
"133 482 OFFCURVE",
"100 420 OFFCURVE",
"100 375 QCURVE SMOOTH",
"100 327 OFFCURVE",
"144 227 OFFCURVE",
"245 145 OFFCURVE",
"407 91 OFFCURVE",
"524 88 QCURVE",
"524 -162 LINE",
"639 -162 LINE",
"639 92 LINE",
"734 103 OFFCURVE",
"884 168 OFFCURVE",
"987 270 OFFCURVE",
"1042 403 OFFCURVE",
"1042 481 QCURVE SMOOTH",
"1042 546 OFFCURVE",
"1003 653 OFFCURVE",
"918 745 OFFCURVE",
"784 823 OFFCURVE",
"690 860 QCURVE SMOOTH",
"679 865 OFFCURVE",
"645 878 OFFCURVE",
"639 881 QCURVE",
"639 1280 LINE",
"673 1265 OFFCURVE",
"720 1212 OFFCURVE",
"750 1147 OFFCURVE",
"764 1077 OFFCURVE",
"764 1047 QCURVE",
"877 1047 OFFCURVE",
"989 1131 OFFCURVE",
"989 1196 QCURVE SMOOTH",
"989 1237 OFFCURVE",
"948 1309 OFFCURVE",
"862 1364 OFFCURVE",
"730 1398 OFFCURVE",
"639 1401 QCURVE",
"639 1556 LINE",
"639 1556 LINE"
);
},
{
closed = 1;
nodes = (
"799 320 OFFCURVE",
"716 218 OFFCURVE",
"639 201 QCURVE",
"639 588 LINE",
"719 546 OFFCURVE",
"799 454 OFFCURVE",
"799 389 QCURVE",
"799 389 LINE"
);
},
{
closed = 1;
nodes = (
"385 1198 OFFCURVE",
"464 1279 OFFCURVE",
"524 1290 QCURVE",
"524 936 LINE",
"483 959 OFFCURVE",
"429 1004 OFFCURVE",
"397 1051 OFFCURVE",
"385 1101 OFFCURVE",
"385 1128 QCURVE",
"385 1128 LINE"
);
}
);
width = 1145;
}
);
note = dollar;
unicode = 0024;
},
{
glyphname = percent;
layers = (
{
layerId = "4245090C-1DC1-4B2E-AF8E-CDB91B981D5B";
paths = (
{
closed = 1;
nodes = (
"807 1133 OFFCURVE",
"762 1300 OFFCURVE",
"670 1419 OFFCURVE",
"532 1483 OFFCURVE",
"440 1483 QCURVE SMOOTH",
"342 1483 OFFCURVE",
"202 1419 OFFCURVE",
"112 1300 OFFCURVE",
"70 1133 OFFCURVE",
"70 1030 QCURVE SMOOTH",
"70 927 OFFCURVE",
"112 759 OFFCURVE",
"201 639 OFFCURVE",
"341 573 OFFCURVE",
"438 573 QCURVE SMOOTH",
"531 573 OFFCURVE",
"670 639 OFFCURVE",
"761 759 OFFCURVE",
"807 927 OFFCURVE",
"807 1030 QCURVE",
"807 1030 LINE"
);
},
{
closed = 1;
nodes = (
"301 1112 OFFCURVE",
"316 1241 OFFCURVE",
"349 1331 OFFCURVE",
"402 1378 OFFCURVE",
"440 1378 QCURVE SMOOTH",
"478 1378 OFFCURVE",
"529 1331 OFFCURVE",
"560 1241 OFFCURVE",
"573 1112 OFFCURVE",
"573 1030 QCURVE SMOOTH",
"573 946 OFFCURVE",
"560 815 OFFCURVE",
"528 724 OFFCURVE",
"477 676 OFFCURVE",
"438 676 QCURVE SMOOTH",
"401 676 OFFCURVE",
"348 724 OFFCURVE",
"316 815 OFFCURVE",
"301 946 OFFCURVE",
"301 1030 QCURVE",
"301 1030 LINE"
);
},
{
closed = 1;
nodes = (
"1356 1462 LINE",
"1198 1462 LINE",
"492 0 LINE",
"651 0 LINE",
"651 0 LINE"
);
},
{
closed = 1;
nodes = (
"1786 539 OFFCURVE",
"1741 706 OFFCURVE",
"1649 825 OFFCURVE",
"1511 889 OFFCURVE",
"1419 889 QCURVE SMOOTH",
"1321 889 OFFCURVE",
"1181 825 OFFCURVE",
"1091 706 OFFCURVE",
"1049 539 OFFCURVE",
"1049 436 QCURVE SMOOTH",
"1049 333 OFFCURVE",
"1091 165 OFFCURVE",
"1180 45 OFFCURVE",
"1320 -20 OFFCURVE",
"1417 -20 QCURVE SMOOTH",
"1510 -20 OFFCURVE",
"1649 45 OFFCURVE",
"1740 165 OFFCURVE",
"1786 333 OFFCURVE",
"1786 436 QCURVE",
"1786 436 LINE"
);
},
{
closed = 1;
nodes = (
"1280 518 OFFCURVE",
"1295 647 OFFCURVE",
"1328 737 OFFCURVE",
"1381 784 OFFCURVE",
"1419 784 QCURVE SMOOTH",
"1457 784 OFFCURVE",
"1508 737 OFFCURVE",
"1539 647 OFFCURVE",
"1552 518 OFFCURVE",
"1552 436 QCURVE SMOOTH",
"1552 352 OFFCURVE",
"1539 221 OFFCURVE",
"1507 130 OFFCURVE",
"1456 82 OFFCURVE",
"1417 82 QCURVE SMOOTH",
"1380 82 OFFCURVE",
"1327 130 OFFCURVE",
"1295 221 OFFCURVE",
"1280 352 OFFCURVE",
"1280 436 QCURVE",
"1280 436 LINE"
);
}
);
width = 1855;
}
);
note = percent;
unicode = 0025;
},
{
glyphname = ampersand;
layers = (
{
layerId = "4245090C-1DC1-4B2E-AF8E-CDB91B981D5B";
paths = (
{
closed = 1;
nodes = (
"1614 0 LINE",
"1614 109 LINE",
"1595 109 LINE SMOOTH",
"1540 109 OFFCURVE",
"1456 129 OFFCURVE",
"1427 160 QCURVE SMOOTH",
"1223 373 LINE",
"1254 439 OFFCURVE",
"1297 568 OFFCURVE",
"1313 625 QCURVE SMOOTH",
"1326 672 OFFCURVE",
"1369 727 OFFCURVE",
"1425 756 OFFCURVE",
"1490 764 OFFCURVE",
"1524 764 QCURVE SMOOTH",
"1556 764 LINE",
"1556 872 LINE",
"1108 872 LINE",
"1108 782 LINE SMOOTH",
"1108 724 OFFCURVE",
"1100 585 OFFCURVE",
"1087 514 QCURVE",
"797 819 LINE",
"787 826 OFFCURVE",
"782 834 QCURVE",
"862 871 OFFCURVE",
"979 945 OFFCURVE",
"1056 1030 OFFCURVE",
"1094 1130 OFFCURVE",
"1094 1192 QCURVE SMOOTH",
"1094 1251 OFFCURVE",
"1045 1357 OFFCURVE",
"948 1437 OFFCURVE",
"801 1483 OFFCURVE",
"702 1483 QCURVE SMOOTH",
"600 1483 OFFCURVE",
"446 1440 OFFCURVE",
"343 1360 OFFCURVE",
"291 1250 OFFCURVE",
"291 1182 QCURVE SMOOTH",
"291 1130 OFFCURVE",
"309 1040 OFFCURVE",
"347 954 OFFCURVE",
"406 867 OFFCURVE",
"446 819 QCURVE",
"376 791 OFFCURVE",
"249 726 OFFCURVE",
"153 633 OFFCURVE",
"96 506 OFFCURVE",
"96 416 QCURVE SMOOTH",
"96 313 OFFCURVE",
"164 151 OFFCURVE",
"296 39 OFFCURVE",
"490 -20 OFFCURVE",
"616 -20 QCURVE SMOOTH",
"693 -20 OFFCURVE",
"824 5 OFFCURVE",
"936 50 OFFCURVE",
"1029 112 OFFCURVE",
"1067 150 QCURVE",
"1208 0 LINE",
"1208 0 LINE"
);
},
{
closed = 1;
nodes = (
"397 453 OFFCURVE",
"409 538 OFFCURVE",
"441 615 OFFCURVE",
"496 684 OFFCURVE",
"539 715 QCURVE",
"977 248 LINE",
"927 188 OFFCURVE",
"777 117 OFFCURVE",
"668 117 QCURVE SMOOTH",
"607 117 OFFCURVE",
"506 162 OFFCURVE",
"436 240 OFFCURVE",
"397 345 OFFCURVE",
"397 406 QCURVE",
"397 406 LINE"
);
},
{
closed = 1;
nodes = (
"846 1143 OFFCURVE",
"831 1067 OFFCURVE",
"797 1004 OFFCURVE",
"739 950 OFFCURVE",
"696 926 QCURVE",
"664 962 OFFCURVE",
"616 1026 OFFCURVE",
"585 1089 OFFCURVE",
"569 1153 OFFCURVE",
"569 1188 QCURVE SMOOTH",
"569 1225 OFFCURVE",
"585 1288 OFFCURVE",
"617 1334 OFFCURVE",
"668 1360 OFFCURVE",
"702 1360 QCURVE SMOOTH",
"745 1360 OFFCURVE",
"801 1334 OFFCURVE",
"833 1288 OFFCURVE",
"846 1226 OFFCURVE",
"846 1190 QCURVE",
"846 1190 LINE"
);
}
);
width = 1640;
}
);
note = ampersand;
unicode = 0026;
},
{
glyphname = quotesingle;
layers = (
{
layerId = "4245090C-1DC1-4B2E-AF8E-CDB91B981D5B";
paths = (
{
closed = 1;
nodes = (
"229 899 LINE",
"365 899 LINE",
"457 1462 LINE",
"137 1462 LINE",
"137 1462 LINE"
);
}
);
width = 594;
}
);
note = quotesingle;
unicode = 0027;
},
{
glyphname = parenleft;
layers = (
{
layerId = "4245090C-1DC1-4B2E-AF8E-CDB91B981D5B";
paths = (
{
closed = 1;
nodes = (
"446 773 OFFCURVE",
"471 1006 OFFCURVE",
"539 1214 OFFCURVE",
"659 1389 OFFCURVE",
"754 1452 QCURVE",
"754 1581 LINE",
"583 1513 OFFCURVE",
"341 1329 OFFCURVE",
"188 1097 OFFCURVE",
"117 816 OFFCURVE",
"117 651 QCURVE SMOOTH",
"117 485 OFFCURVE",
"188 203 OFFCURVE",
"341 -31 OFFCURVE",
"583 -216 OFFCURVE",
"754 -285 QCURVE",
"754 -154 LINE",
"659 -91 OFFCURVE",
"539 85 OFFCURVE",
"471 294 OFFCURVE",
"446 529 OFFCURVE",
"446 651 QCURVE",
"446 651 LINE"
);
}
);
width = 819;
}
);
note = parenleft;
unicode = 0028;
},
{
glyphname = parenright;
layers = (
{
layerId = "4245090C-1DC1-4B2E-AF8E-CDB91B981D5B";
paths = (
{
closed = 1;
nodes = (
"373 529 OFFCURVE",
"348 294 OFFCURVE",
"281 85 OFFCURVE",
"161 -91 OFFCURVE",
"66 -154 QCURVE",
"66 -285 LINE",
"237 -216 OFFCURVE",
"479 -31 OFFCURVE",
"632 203 OFFCURVE",
"702 485 OFFCURVE",
"702 651 QCURVE SMOOTH",
"702 816 OFFCURVE",
"632 1097 OFFCURVE",
"479 1329 OFFCURVE",
"237 1513 OFFCURVE",
"66 1581 QCURVE",
"66 1452 LINE",
"161 1389 OFFCURVE",
"281 1214 OFFCURVE",
"348 1006 OFFCURVE",
"373 773 OFFCURVE",
"373 651 QCURVE",
"373 651 LINE"
);
}
);
width = 819;
}
);
note = parenright;
unicode = 0029;
},
{
glyphname = asterisk;
layers = (
{
layerId = "4245090C-1DC1-4B2E-AF8E-CDB91B981D5B";
paths = (
{
closed = 1;
nodes = (
"391 1155 LINE",
"72 1071 LINE",
"164 868 LINE",
"467 1085 LINE",
"401 752 LINE",
"629 752 LINE",
"557 1083 LINE",
"864 870 LINE",
"956 1073 LINE",
"637 1155 LINE",
"956 1235 LINE",
"864 1440 LINE",
"557 1227 LINE",
"631 1556 LINE",
"401 1556 LINE",
"469 1223 LINE",
"164 1444 LINE",
"72 1237 LINE",
"72 1237 LINE"
);
}
);
width = 1028;
}
);
note = asterisk;
unicode = 002A;
},
{
glyphname = plus;
layers = (
{
layerId = "4245090C-1DC1-4B2E-AF8E-CDB91B981D5B";
paths = (
{
closed = 1;
nodes = (
"1012 659 LINE",
"1012 805 LINE",
"645 805 LINE",
"645 1171 LINE",
"498 1171 LINE",
"498 805 LINE",
"133 805 LINE",
"133 659 LINE",
"498 659 LINE",
"498 293 LINE",
"645 293 LINE",
"645 659 LINE",
"645 659 LINE"
);
}
);
width = 1145;
}
);
note = plus;
unicode = 002B;
},
{
glyphname = comma;
layers = (
{
layerId = "4245090C-1DC1-4B2E-AF8E-CDB91B981D5B";
paths = (
{
closed = 1;
nodes = (
"459 191 OFFCURVE",
"357 311 OFFCURVE",
"270 311 QCURVE SMOOTH",
"207 311 OFFCURVE",
"123 239 OFFCURVE",
"123 170 QCURVE SMOOTH",
"123 129 OFFCURVE",
"145 76 OFFCURVE",
"178 40 OFFCURVE",
"217 17 OFFCURVE",
"250 -5 OFFCURVE",
"272 -30 OFFCURVE",
"272 -49 QCURVE SMOOTH",
"272 -79 OFFCURVE",
"249 -124 OFFCURVE",
"204 -161 OFFCURVE",
"137 -193 OFFCURVE",
"92 -209 QCURVE",
"92 -315 LINE",
"192 -288 OFFCURVE",
"331 -205 OFFCURVE",
"419 -101 OFFCURVE",
"459 21 OFFCURVE",
"459 86 QCURVE",
"459 86 LINE"
);
}
);
width = 602;
}
);
note = comma;
unicode = 002C;
},
{
glyphname = hyphen;
layers = (
{
layerId = "4245090C-1DC1-4B2E-AF8E-CDB91B981D5B";
paths = (
{
closed = 1;
nodes = (
"584 451 LINE",
"584 666 LINE",
"51 666 LINE",
"51 451 LINE",
"51 451 LINE"
);
}
);
width = 635;
}
);
note = hyphen;
unicode = 002D;
},
{
glyphname = period;
layers = (
{
layerId = "4245090C-1DC1-4B2E-AF8E-CDB91B981D5B";
paths = (
{
closed = 1;
nodes = (
"133 101 OFFCURVE",
"159 39 OFFCURVE",
"204 1 OFFCURVE",
"266 -16 OFFCURVE",
"301 -16 QCURVE SMOOTH",
"335 -16 OFFCURVE",
"396 1 OFFCURVE",
"442 39 OFFCURVE",
"469 101 OFFCURVE",
"469 147 QCURVE SMOOTH",
"469 194 OFFCURVE",
"442 257 OFFCURVE",
"396 295 OFFCURVE",
"335 311 OFFCURVE",
"301 311 QCURVE SMOOTH",
"266 311 OFFCURVE",
"204 295 OFFCURVE",
"159 257 OFFCURVE",
"133 194 OFFCURVE",
"133 147 QCURVE",
"133 147 LINE"
);
}
);
width = 602;
}
);
note = period;
unicode = 002E;
},
{
glyphname = slash;
layers = (
{
layerId = "4245090C-1DC1-4B2E-AF8E-CDB91B981D5B";
paths = (
{
closed = 1;
nodes = (
"590 1556 LINE",
"446 1556 LINE",
"0 -248 LINE",
"147 -250 LINE",
"147 -250 LINE"
);
}
);
width = 590;
}
);
note = slash;
unicode = 002F;
},
{
glyphname = zero;
layers = (
{
layerId = "4245090C-1DC1-4B2E-AF8E-CDB91B981D5B";
paths = (
{
closed = 1;
nodes = (
"1075 904 OFFCURVE",
"1019 1181 OFFCURVE",
"898 1377 OFFCURVE",
"708 1483 OFFCURVE",
"575 1483 QCURVE SMOOTH",
"434 1483 OFFCURVE",
"241 1377 OFFCURVE",
"122 1181 OFFCURVE",
"70 905 OFFCURVE",
"70 735 QCURVE SMOOTH",
"70 565 OFFCURVE",
"122 286 OFFCURVE",
"241 88 OFFCURVE",
"433 -20 OFFCURVE",
"573 -20 QCURVE SMOOTH",
"707 -20 OFFCURVE",
"897 88 OFFCURVE",
"1019 286 OFFCURVE",
"1075 564 OFFCURVE",
"1075 733 QCURVE",
"1075 733 LINE"
);
},
{
closed = 1;
nodes = (
"387 880 OFFCURVE",
"403 1109 OFFCURVE",
"445 1267 OFFCURVE",
"518 1350 OFFCURVE",
"575 1350 QCURVE SMOOTH",
"631 1350 OFFCURVE",
"703 1267 OFFCURVE",
"743 1109 OFFCURVE",
"758 880 OFFCURVE",
"758 733 QCURVE SMOOTH",
"758 586 OFFCURVE",
"743 356 OFFCURVE",
"702 197 OFFCURVE",
"630 113 OFFCURVE",
"573 113 QCURVE SMOOTH",
"516 113 OFFCURVE",
"444 197 OFFCURVE",
"403 356 OFFCURVE",
"387 586 OFFCURVE",
"387 733 QCURVE",
"387 733 LINE"
);
}
);
width = 1145;
}
);
note = zero;
unicode = 0030;
},
{
glyphname = one;
layers = (
{
layerId = "4245090C-1DC1-4B2E-AF8E-CDB91B981D5B";
paths = (
{
closed = 1;
nodes = (
"1044 0 LINE",
"1044 109 LINE",
"879 109 LINE SMOOTH",
"847 109 OFFCURVE",
"806 126 OFFCURVE",
"783 160 OFFCURVE",
"774 210 OFFCURVE",
"774 242 QCURVE SMOOTH",
"774 1470 LINE",
"545 1470 LINE",
"401 1364 LINE SMOOTH",
"350 1327 OFFCURVE",
"262 1274 OFFCURVE",
"185 1237 OFFCURVE",
"117 1214 OFFCURVE",
"86 1206 QCURVE",
"86 1172 OFFCURVE",
"105 1116 OFFCURVE",
"137 1076 OFFCURVE",
"180 1055 OFFCURVE",
"205 1055 QCURVE SMOOTH",
"236 1055 OFFCURVE",
"297 1086 OFFCURVE",
"361 1142 OFFCURVE",
"430 1220 OFFCURVE",
"469 1268 QCURVE",
"469 242 LINE SMOOTH",
"469 203 OFFCURVE",
"457 152 OFFCURVE",
"431 122 OFFCURVE",
"393 109 OFFCURVE",
"367 109 QCURVE SMOOTH",
"199 109 LINE",
"199 0 LINE",
"199 0 LINE"
);
}
);
width = 1145;
}
);
note = one;
unicode = 0031;
},
{
glyphname = two;
layers = (
{
layerId = "4245090C-1DC1-4B2E-AF8E-CDB91B981D5B";
paths = (
{
closed = 1;
nodes = (
"999 1222 OFFCURVE",
"939 1348 OFFCURVE",
"820 1436 OFFCURVE",
"645 1483 OFFCURVE",
"530 1483 QCURVE SMOOTH",
"418 1483 OFFCURVE",
"249 1438 OFFCURVE",
"137 1362 OFFCURVE",
"80 1262 OFFCURVE",
"80 1206 QCURVE SMOOTH",
"80 1151 OFFCURVE",
"118 1074 OFFCURVE",
"187 1026 OFFCURVE",
"284 1004 OFFCURVE",
"342 1004 QCURVE",
"342 1179 OFFCURVE",
"426 1358 OFFCURVE",
"530 1358 QCURVE SMOOTH",
"605 1358 OFFCURVE",
"690 1250 OFFCURVE",
"690 1133 QCURVE SMOOTH",
"690 1054 OFFCURVE",
"662 915 OFFCURVE",
"592 773 OFFCURVE",
"470 617 OFFCURVE",
"375 520 QCURVE SMOOTH",
"72 211 LINE",
"72 0 LINE",
"1040 0 LINE",
"1051 430 LINE",
"930 430 LINE",
"913 367 LINE SMOOTH",
"895 298 OFFCURVE",
"806 225 OFFCURVE",
"743 225 QCURVE SMOOTH",
"266 225 LINE",
"471 420 LINE SMOOTH",
"574 517 OFFCURVE",
"731 673 OFFCURVE",
"849 802 OFFCURVE",
"929 909 OFFCURVE",
"978 1005 OFFCURVE",
"999 1095 OFFCURVE",
"999 1143 QCURVE",
"999 1143 LINE"
);
}
);
width = 1145;
}
);
note = two;
unicode = 0032;
},
{
glyphname = three;
layers = (
{
layerId = "4245090C-1DC1-4B2E-AF8E-CDB91B981D5B";
paths = (
{
closed = 1;
nodes = (
"604 -20 OFFCURVE",
"803 24 OFFCURVE",
"958 127 OFFCURVE",
"1051 297 OFFCURVE",
"1051 422 QCURVE SMOOTH",
"1051 510 OFFCURVE",
"983 636 OFFCURVE",
"877 720 OFFCURVE",
"748 769 OFFCURVE",
"686 780 QCURVE",
"753 803 OFFCURVE",
"867 872 OFFCURVE",
"951 964 OFFCURVE",
"999 1080 OFFCURVE",
"999 1149 QCURVE SMOOTH",
"999 1229 OFFCURVE",
"933 1353 OFFCURVE",
"810 1439 OFFCURVE",
"635 1483 OFFCURVE",
"526 1483 QCURVE SMOOTH",
"414 1483 OFFCURVE",
"245 1443 OFFCURVE",
"131 1372 OFFCURVE",
"74 1277 OFFCURVE",
"74 1223 QCURVE SMOOTH",
"74 1129 OFFCURVE",
"212 1040 OFFCURVE",
"340 1040 QCURVE",
"340 1100 OFFCURVE",
"354 1214 OFFCURVE",
"392 1304 OFFCURVE",
"461 1358 OFFCURVE",
"516 1358 QCURVE SMOOTH",
"600 1358 OFFCURVE",
"686 1232 OFFCURVE",
"686 1120 QCURVE SMOOTH",
"686 1053 OFFCURVE",
"654 942 OFFCURVE",
"590 862 OFFCURVE",
"492 819 OFFCURVE",
"426 819 QCURVE SMOOTH",
"291 819 LINE",
"291 692 LINE",
"418 692 LINE SMOOTH",
"495 692 OFFCURVE",
"613 652 OFFCURVE",
"694 581 OFFCURVE",
"735 483 OFFCURVE",
"735 424 QCURVE SMOOTH",
"735 336 OFFCURVE",
"694 219 OFFCURVE",
"624 151 OFFCURVE",
"533 123 OFFCURVE",
"483 123 QCURVE SMOOTH",
"427 123 OFFCURVE",
"334 156 OFFCURVE",
"268 222 OFFCURVE",
"231 320 OFFCURVE",
"231 385 QCURVE",
"196 385 OFFCURVE",
"133 365 OFFCURVE",
"85 324 OFFCURVE",
"57 264 OFFCURVE",
"57 225 QCURVE SMOOTH",
"57 177 OFFCURVE",
"108 88 OFFCURVE",
"215 20 OFFCURVE",
"382 -20 OFFCURVE",
"498 -20 QCURVE",
"498 -20 LINE"
);
}
);
width = 1145;
}
);
note = three;
unicode = 0033;
},
{
glyphname = four;
layers = (
{
layerId = "4245090C-1DC1-4B2E-AF8E-CDB91B981D5B";
paths = (
{
closed = 1;
nodes = (
"1106 381 LINE",
"1106 516 LINE",
"893 516 LINE",
"893 1462 LINE",
"608 1462 LINE",
"27 506 LINE",
"27 381 LINE",
"594 381 LINE",
"594 256 LINE SMOOTH",
"594 208 OFFCURVE",
"567 150 OFFCURVE",
"522 119 OFFCURVE",
"461 109 OFFCURVE",
"426 109 QCURVE SMOOTH",
"369 109 LINE",
"369 0 LINE",
"1087 0 LINE",
"1087 109 LINE",
"1061 109 LINE SMOOTH",
"1027 109 OFFCURVE",
"965 119 OFFCURVE",
"920 150 OFFCURVE",
"893 208 OFFCURVE",
"893 256 QCURVE SMOOTH",
"893 381 LINE",
"893 381 LINE"
);
},
{
closed = 1;
nodes = (
"594 516 LINE",
"170 516 LINE",
"446 973 LINE SMOOTH",
"458 992 OFFCURVE",
"504 1071 OFFCURVE",
"554 1160 OFFCURVE",
"598 1244 OFFCURVE",
"608 1268 QCURVE",
"600 1172 OFFCURVE",
"594 964 OFFCURVE",
"594 874 QCURVE",
"594 874 LINE"
);
}
);
width = 1145;
}
);
note = four;
unicode = 0034;
},
{
glyphname = five;
layers = (
{
layerId = "4245090C-1DC1-4B2E-AF8E-CDB91B981D5B";
paths = (
{
closed = 1;
nodes = (
"408 123 OFFCURVE",
"322 167 OFFCURVE",
"269 237 OFFCURVE",
"246 325 OFFCURVE",
"246 369 QCURVE",
"171 369 OFFCURVE",
"82 299 OFFCURVE",
"82 227 QCURVE SMOOTH",
"82 179 OFFCURVE",
"127 90 OFFCURVE",
"227 21 OFFCURVE",
"387 -20 OFFCURVE",
"502 -20 QCURVE SMOOTH",
"595 -20 OFFCURVE",
"785 27 OFFCURVE",
"939 137 OFFCURVE",
"1036 318 OFFCURVE",
"1036 451 QCURVE SMOOTH",
"1036 561 OFFCURVE",
"961 725 OFFCURVE",
"824 834 OFFCURVE",
"631 889 OFFCURVE",
"512 889 QCURVE SMOOTH",
"481 889 OFFCURVE",
"414 884 OFFCURVE",
"354 875 OFFCURVE",
"303 864 OFFCURVE",
"287 858 QCURVE",
"303 1046 LINE SMOOTH",
"306 1081 OFFCURVE",
"312 1149 OFFCURVE",
"316 1203 OFFCURVE",
"319 1236 OFFCURVE",
"319 1237 QCURVE",
"745 1237 LINE SMOOTH",
"770 1237 OFFCURVE",
"802 1226 OFFCURVE",
"823 1206 OFFCURVE",
"835 1177 OFFCURVE",
"840 1159 QCURVE SMOOTH",
"856 1090 LINE",
"973 1090 LINE",
"963 1462 LINE",
"188 1462 LINE",
"123 754 LINE",
"217 717 LINE",
"240 724 OFFCURVE",
"288 737 OFFCURVE",
"342 748 OFFCURVE",
"405 754 OFFCURVE",
"444 754 QCURVE SMOOTH",
"577 754 OFFCURVE",
"723 604 OFFCURVE",
"723 451 QCURVE SMOOTH",
"723 357 OFFCURVE",
"682 230 OFFCURVE",
"613 155 OFFCURVE",
"522 123 OFFCURVE",
"471 123 QCURVE",
"471 123 LINE"
);
}
);
width = 1145;
}
);
note = five;
unicode = 0035;
},
{
glyphname = six;
layers = (
{
layerId = "4245090C-1DC1-4B2E-AF8E-CDB91B981D5B";
paths = (
{
closed = 1;
nodes = (
"698 1362 OFFCURVE",
"751 1314 OFFCURVE",
"781 1238 OFFCURVE",
"793 1144 OFFCURVE",
"793 1098 QCURVE",
"861 1098 OFFCURVE",
"954 1124 OFFCURVE",
"1012 1168 OFFCURVE",
"1038 1226 OFFCURVE",
"1038 1257 QCURVE SMOOTH",
"1038 1301 OFFCURVE",
"999 1382 OFFCURVE",
"913 1445 OFFCURVE",
"775 1483 OFFCURVE",
"676 1483 QCURVE SMOOTH",
"528 1483 OFFCURVE",
"308 1357 OFFCURVE",
"163 1139 OFFCURVE",
"92 845 OFFCURVE",
"92 676 QCURVE SMOOTH",
"92 497 OFFCURVE",
"166 235 OFFCURVE",
"299 63 OFFCURVE",
"486 -20 OFFCURVE",
"600 -20 QCURVE SMOOTH",
"717 -20 OFFCURVE",
"894 52 OFFCURVE",
"1013 182 OFFCURVE",
"1073 363 OFFCURVE",
"1073 473 QCURVE SMOOTH",
"1073 573 OFFCURVE",
"1015 730 OFFCURVE",
"908 839 OFFCURVE",
"757 897 OFFCURVE",
"664 897 QCURVE SMOOTH",
"612 897 OFFCURVE",
"525 884 OFFCURVE",
"456 862 OFFCURVE",
"402 835 OFFCURVE",
"381 821 QCURVE",
"387 951 OFFCURVE",
"429 1152 OFFCURVE",
"500 1290 OFFCURVE",
"597 1362 OFFCURVE",
"657 1362 QCURVE",
"657 1362 LINE"
);
},
{
closed = 1;
nodes = (
"676 772 OFFCURVE",
"776 619 OFFCURVE",
"776 453 QCURVE SMOOTH",
"776 276 OFFCURVE",
"685 115 OFFCURVE",
"606 115 QCURVE SMOOTH",
"559 115 OFFCURVE",
"478 179 OFFCURVE",
"417 315 OFFCURVE",
"382 527 OFFCURVE",
"381 674 QCURVE",
"394 692 OFFCURVE",
"441 727 OFFCURVE",
"498 755 OFFCURVE",
"560 772 OFFCURVE",
"588 772 QCURVE",
"588 772 LINE"
);
}
);
width = 1145;
}
);
note = six;
unicode = 0036;
},
{
glyphname = seven;
layers = (
{
layerId = "4245090C-1DC1-4B2E-AF8E-CDB91B981D5B";
paths = (
{
closed = 1;
nodes = (
"512 0 LINE",
"1077 1362 LINE",
"1077 1462 LINE",
"100 1462 LINE",
"90 1032 LINE",
"213 1032 LINE",
"225 1135 LINE SMOOTH",
"231 1186 OFFCURVE",
"288 1239 OFFCURVE",
"344 1239 QCURVE SMOOTH",
"883 1239 LINE",
"338 0 LINE",
"338 0 LINE"
);
}
);
width = 1145;
}
);
note = seven;
unicode = 0037;
},
{
glyphname = eight;
layers = (
{
layerId = "4245090C-1DC1-4B2E-AF8E-CDB91B981D5B";
paths = (
{
closed = 1;
nodes = (
"61 292 OFFCURVE",
"120 148 OFFCURVE",
"243 42 OFFCURVE",
"431 -20 OFFCURVE",
"559 -20 QCURVE SMOOTH",
"683 -20 OFFCURVE",
"877 35 OFFCURVE",
"1012 139 OFFCURVE",
"1083 290 OFFCURVE",
"1083 387 QCURVE SMOOTH",
"1083 449 OFFCURVE",
"1046 558 OFFCURVE",
"965 657 OFFCURVE",
"835 748 OFFCURVE",
"743 793 QCURVE",
"807 826 OFFCURVE",
"909 892 OFFCURVE",
"981 969 OFFCURVE",
"1020 1063 OFFCURVE",
"1020 1124 QCURVE SMOOTH",
"1020 1202 OFFCURVE",
"965 1333 OFFCURVE",
"855 1429 OFFCURVE",
"692 1483 OFFCURVE",
"584 1483 QCURVE SMOOTH",
"452 1483 OFFCURVE",
"270 1420 OFFCURVE",
"158 1316 OFFCURVE",
"109 1181 OFFCURVE",
"109 1110 QCURVE SMOOTH",
"109 990 OFFCURVE",
"240 810 OFFCURVE",
"362 739 QCURVE",
"295 705 OFFCURVE",
"184 632 OFFCURVE",
"104 545 OFFCURVE",
"61 439 OFFCURVE",
"61 373 QCURVE",
"61 373 LINE"
);
},
{
closed = 1;
nodes = (
"517 96 OFFCURVE",
"432 135 OFFCURVE",
"371 206 OFFCURVE",
"338 305 OFFCURVE",
"338 365 QCURVE SMOOTH",
"338 419 OFFCURVE",
"363 507 OFFCURVE",
"406 578 OFFCURVE",
"466 635 OFFCURVE",
"500 657 QCURVE",
"579 621 OFFCURVE",
"692 554 OFFCURVE",
"765 483 OFFCURVE",
"799 402 OFFCURVE",
"799 352 QCURVE SMOOTH",
"799 296 OFFCURVE",
"767 202 OFFCURVE",
"707 134 OFFCURVE",
"622 96 OFFCURVE",
"569 96 QCURVE",
"569 96 LINE"
);
},
{
closed = 1;
nodes = (
"762 1077 OFFCURVE",
"745 998 OFFCURVE",
"710 934 OFFCURVE",
"656 884 OFFCURVE",
"618 862 QCURVE",
"564 887 OFFCURVE",
"482 938 OFFCURVE",
"426 1002 OFFCURVE",
"397 1082 OFFCURVE",
"397 1135 QCURVE SMOOTH",
"397 1184 OFFCURVE",
"420 1268 OFFCURVE",
"464 1329 OFFCURVE",
"529 1364 OFFCURVE",
"571 1364 QCURVE SMOOTH",
"618 1364 OFFCURVE",
"689 1323 OFFCURVE",
"737 1257 OFFCURVE",
"762 1172 OFFCURVE",
"762 1128 QCURVE",
"762 1128 LINE"
);
}
);
width = 1145;
}
);
note = eight;
unicode = 0038;
},
{
glyphname = nine;
layers = (
{
layerId = "4245090C-1DC1-4B2E-AF8E-CDB91B981D5B";
paths = (
{
closed = 1;
nodes = (
"623 -20 OFFCURVE",
"846 108 OFFCURVE",
"987 329 OFFCURVE",
"1053 626 OFFCURVE",
"1053 795 QCURVE SMOOTH",
"1053 975 OFFCURVE",
"977 1235 OFFCURVE",
"840 1403 OFFCURVE",
"652 1483 OFFCURVE",
"541 1483 QCURVE SMOOTH",
"431 1483 OFFCURVE",
"257 1411 OFFCURVE",
"136 1280 OFFCURVE",
"72 1098 OFFCURVE",
"72 987 QCURVE SMOOTH",
"72 884 OFFCURVE",
"131 725 OFFCURVE",
"238 618 OFFCURVE",
"385 563 OFFCURVE",
"473 563 QCURVE SMOOTH",
"526 563 OFFCURVE",
"615 584 OFFCURVE",
"689 622 OFFCURVE",
"748 672 OFFCURVE",
"772 702 QCURVE",
"762 407 OFFCURVE",
"613 109 OFFCURVE",
"475 109 QCURVE SMOOTH",
"424 109 OFFCURVE",
"345 143 OFFCURVE",
"286 202 OFFCURVE",
"244 282 OFFCURVE",
"229 328 QCURVE",
"177 317 OFFCURVE",
"129 256 OFFCURVE",
"129 211 QCURVE SMOOTH",
"129 167 OFFCURVE",
"164 84 OFFCURVE",
"244 19 OFFCURVE",
"372 -20 OFFCURVE",
"465 -20 QCURVE",
"465 -20 LINE"
);
},
{
closed = 1;
nodes = (
"465 711 OFFCURVE",
"369 857 OFFCURVE",
"369 999 QCURVE SMOOTH",
"369 1173 OFFCURVE",
"465 1346 OFFCURVE",
"553 1346 QCURVE SMOOTH",
"601 1346 OFFCURVE",
"681 1288 OFFCURVE",
"738 1167 OFFCURVE",
"771 979 OFFCURVE",
"772 848 QCURVE",
"741 786 OFFCURVE",
"635 711 OFFCURVE",
"561 711 QCURVE",
"561 711 LINE"
);
}
);
width = 1145;
}
);
note = nine;
unicode = 0039;
},
{
glyphname = colon;
layers = (
{
layerId = "4245090C-1DC1-4B2E-AF8E-CDB91B981D5B";
paths = (
{
closed = 1;
nodes = (
"143 101 OFFCURVE",
"169 39 OFFCURVE",
"214 1 OFFCURVE",
"276 -16 OFFCURVE",
"311 -16 QCURVE SMOOTH",
"345 -16 OFFCURVE",
"406 1 OFFCURVE",
"452 39 OFFCURVE",
"479 101 OFFCURVE",
"479 147 QCURVE SMOOTH",
"479 194 OFFCURVE",
"452 257 OFFCURVE",
"406 295 OFFCURVE",
"345 311 OFFCURVE",
"311 311 QCURVE SMOOTH",
"276 311 OFFCURVE",
"214 295 OFFCURVE",
"169 257 OFFCURVE",
"143 194 OFFCURVE",
"143 147 QCURVE",
"143 147 LINE"
);
},
{
closed = 1;
nodes = (
"143 906 OFFCURVE",
"169 843 OFFCURVE",
"214 805 OFFCURVE",
"276 788 OFFCURVE",
"311 788 QCURVE SMOOTH",
"345 788 OFFCURVE",
"406 805 OFFCURVE",
"452 843 OFFCURVE",
"479 906 OFFCURVE",
"479 952 QCURVE SMOOTH",
"479 999 OFFCURVE",
"452 1062 OFFCURVE",
"406 1100 OFFCURVE",
"345 1116 OFFCURVE",
"311 1116 QCURVE SMOOTH",
"276 1116 OFFCURVE",
"214 1100 OFFCURVE",
"169 1062 OFFCURVE",
"143 999 OFFCURVE",
"143 952 QCURVE",
"143 952 LINE"
);
}
);
width = 623;
}
);
note = colon;
unicode = 003A;
},
{
glyphname = semicolon;
layers = (
{
layerId = "4245090C-1DC1-4B2E-AF8E-CDB91B981D5B";
paths = (
{
closed = 1;
nodes = (
"459 191 OFFCURVE",
"357 311 OFFCURVE",
"270 311 QCURVE SMOOTH",
"207 311 OFFCURVE",
"123 239 OFFCURVE",
"123 170 QCURVE SMOOTH",
"123 129 OFFCURVE",
"145 76 OFFCURVE",
"178 40 OFFCURVE",
"217 17 OFFCURVE",
"250 -5 OFFCURVE",
"272 -30 OFFCURVE",
"272 -49 QCURVE SMOOTH",
"272 -79 OFFCURVE",
"249 -124 OFFCURVE",
"204 -161 OFFCURVE",
"137 -193 OFFCURVE",
"92 -209 QCURVE",
"92 -315 LINE",
"192 -288 OFFCURVE",
"331 -205 OFFCURVE",
"419 -101 OFFCURVE",
"459 21 OFFCURVE",
"459 86 QCURVE",
"459 86 LINE"
);
},
{
closed = 1;
nodes = (
"143 906 OFFCURVE",
"169 843 OFFCURVE",
"214 805 OFFCURVE",
"276 788 OFFCURVE",
"311 788 QCURVE SMOOTH",
"345 788 OFFCURVE",
"406 805 OFFCURVE",
"452 843 OFFCURVE",
"479 906 OFFCURVE",
"479 952 QCURVE SMOOTH",
"479 999 OFFCURVE",
"452 1062 OFFCURVE",
"406 1100 OFFCURVE",
"345 1116 OFFCURVE",
"311 1116 QCURVE SMOOTH",
"276 1116 OFFCURVE",
"214 1100 OFFCURVE",
"169 1062 OFFCURVE",
"143 999 OFFCURVE",
"143 952 QCURVE",
"143 952 LINE"
);
}
);
width = 623;
}
);
note = semicolon;
unicode = 003B;
},
{
glyphname = less;
layers = (
{
layerId = "4245090C-1DC1-4B2E-AF8E-CDB91B981D5B";
paths = (
{
closed = 1;
nodes = (
"1012 213 LINE",
"1012 375 LINE",
"352 731 LINE",
"1012 1092 LINE",
"1012 1253 LINE",
"133 774 LINE",
"133 690 LINE",
"133 690 LINE"
);
}
);
width = 1145;
}
);
note = less;
unicode = 003C;
},
{
glyphname = equal;
layers = (
{
layerId = "4245090C-1DC1-4B2E-AF8E-CDB91B981D5B";
paths = (
{
closed = 1;
nodes = (
"129 604 LINE",
"129 461 LINE",
"1016 461 LINE",
"1016 604 LINE",
"1016 604 LINE"
);
},
{
closed = 1;
nodes = (
"129 1001 LINE",
"129 858 LINE",
"1016 858 LINE",
"1016 1001 LINE",
"1016 1001 LINE"
);
}
);
width = 1145;
}
);
note = equal;
unicode = 003D;
},
{
glyphname = greater;
layers = (
{
layerId = "4245090C-1DC1-4B2E-AF8E-CDB91B981D5B";
paths = (
{
closed = 1;
nodes = (
"1012 690 LINE",
"1012 774 LINE",
"133 1253 LINE",
"133 1092 LINE",
"793 731 LINE",
"133 375 LINE",
"133 213 LINE",
"133 213 LINE"
);
}
);
width = 1145;
}
);
note = greater;
unicode = 003E;
},
{
glyphname = question;
layers = (
{
layerId = "4245090C-1DC1-4B2E-AF8E-CDB91B981D5B";
paths = (
{
closed = 1;
nodes = (
"1014 1195 OFFCURVE",
"938 1335 OFFCURVE",
"804 1432 OFFCURVE",
"620 1483 OFFCURVE",
"512 1483 QCURVE SMOOTH",
"399 1483 OFFCURVE",
"235 1446 OFFCURVE",
"128 1382 OFFCURVE",
"76 1295 OFFCURVE",
"76 1245 QCURVE SMOOTH",
"76 1209 OFFCURVE",
"119 1155 OFFCURVE",
"196 1120 OFFCURVE",
"302 1102 OFFCURVE",
"365 1102 QCURVE",
"365 1154 OFFCURVE",
"382 1248 OFFCURVE",
"420 1318 OFFCURVE",
"482 1360 OFFCURVE",
"528 1360 QCURVE SMOOTH",
"570 1360 OFFCURVE",
"631 1328 OFFCURVE",
"670 1269 OFFCURVE",
"688 1188 OFFCURVE",
"688 1139 QCURVE SMOOTH",
"688 1078 OFFCURVE",
"664 958 OFFCURVE",
"599 849 OFFCURVE",
"487 754 OFFCURVE",
"399 719 QCURVE",
"440 467 LINE",
"565 467 LINE",
"606 653 LINE",
"708 695 OFFCURVE",
"861 786 OFFCURVE",
"963 894 OFFCURVE",
"1014 1024 OFFCURVE",
"1014 1106 QCURVE",
"1014 1106 LINE"
);
},
{
closed = 1;
nodes = (
"332 101 OFFCURVE",
"358 39 OFFCURVE",
"403 1 OFFCURVE",
"465 -16 OFFCURVE",
"500 -16 QCURVE SMOOTH",
"534 -16 OFFCURVE",
"595 1 OFFCURVE",
"641 39 OFFCURVE",
"668 101 OFFCURVE",
"668 147 QCURVE SMOOTH",
"668 194 OFFCURVE",
"641 257 OFFCURVE",
"595 295 OFFCURVE",
"534 311 OFFCURVE",
"500 311 QCURVE SMOOTH",
"465 311 OFFCURVE",
"403 295 OFFCURVE",
"358 257 OFFCURVE",
"332 194 OFFCURVE",
"332 147 QCURVE",
"332 147 LINE"
);
}
);
width = 1126;
}
);
note = question;
unicode = 003F;
},
{
glyphname = at;
layers = (
{
layerId = "4245090C-1DC1-4B2E-AF8E-CDB91B981D5B";
paths = (
{
closed = 1;
nodes = (
"1806 942 OFFCURVE",
"1714 1183 OFFCURVE",
"1533 1360 OFFCURVE",
"1263 1462 OFFCURVE",
"1085 1462 QCURVE SMOOTH",
"943 1462 OFFCURVE",
"688 1396 OFFCURVE",
"470 1273 OFFCURVE",
"294 1100 OFFCURVE",
"171 887 OFFCURVE",
"104 637 OFFCURVE",
"104 500 QCURVE SMOOTH",
"104 367 OFFCURVE",
"165 147 OFFCURVE",
"276 -29 OFFCURVE",
"432 -160 OFFCURVE",
"621 -248 OFFCURVE",
"837 -291 OFFCURVE",
"954 -291 QCURVE SMOOTH",
"1052 -291 OFFCURVE",
"1233 -259 OFFCURVE",
"1394 -205 OFFCURVE",
"1531 -133 OFFCURVE",
"1585 -92 QCURVE",
"1536 -14 LINE",
"1488 -46 OFFCURVE",
"1366 -108 OFFCURVE",
"1224 -156 OFFCURVE",
"1066 -186 OFFCURVE",
"983 -186 QCURVE SMOOTH",
"845 -186 OFFCURVE",
"598 -112 OFFCURVE",
"413 50 OFFCURVE",
"305 306 OFFCURVE",
"305 487 QCURVE SMOOTH",
"305 622 OFFCURVE",
"364 856 OFFCURVE",
"470 1049 OFFCURVE",
"614 1200 OFFCURVE",
"785 1304 OFFCURVE",
"974 1358 OFFCURVE",
"1071 1358 QCURVE SMOOTH",
"1195 1358 OFFCURVE",
"1404 1287 OFFCURVE",
"1555 1146 OFFCURVE",
"1640 935 OFFCURVE",
"1640 795 QCURVE SMOOTH",
"1640 669 OFFCURVE",
"1597 475 OFFCURVE",
"1529 344 OFFCURVE",
"1446 276 OFFCURVE",
"1405 276 QCURVE SMOOTH",
"1388 276 OFFCURVE",
"1353 287 OFFCURVE",
"1325 318 OFFCURVE",
"1307 372 OFFCURVE",
"1307 414 QCURVE SMOOTH",
"1307 426 OFFCURVE",
"1310 463 OFFCURVE",
"1314 503 OFFCURVE",
"1319 541 OFFCURVE",
"1321 553 QCURVE SMOOTH",
"1407 1065 LINE",
"1358 1065 LINE",
"1272 1022 LINE",
"1240 1047 OFFCURVE",
"1138 1083 OFFCURVE",
"1067 1083 QCURVE SMOOTH",
"968 1083 OFFCURVE",
"809 1028 OFFCURVE",
"686 937 OFFCURVE",
"599 818 OFFCURVE",
"542 691 OFFCURVE",
"516 563 OFFCURVE",
"516 508 QCURVE SMOOTH",
"516 418 OFFCURVE",
"568 286 OFFCURVE",
"657 200 OFFCURVE",
"774 158 OFFCURVE",
"838 158 QCURVE SMOOTH",
"892 158 OFFCURVE",
"977 188 OFFCURVE",
"1045 240 OFFCURVE",
"1099 310 OFFCURVE",
"1120 350 QCURVE",
"1133 350 LINE",
"1167 247 OFFCURVE",
"1293 158 OFFCURVE",
"1384 158 QCURVE SMOOTH",
"1461 158 OFFCURVE",
"1612 245 OFFCURVE",
"1732 410 OFFCURVE",
"1806 650 OFFCURVE",
"1806 803 QCURVE",
"1806 803 LINE"
);
},
{
closed = 1;
nodes = (
"768 528 OFFCURVE",
"782 635 OFFCURVE",
"813 747 OFFCURVE",
"859 856 OFFCURVE",
"924 941 OFFCURVE",
"1007 993 OFFCURVE",
"1059 993 QCURVE SMOOTH",
"1075 993 OFFCURVE",
"1108 986 OFFCURVE",
"1138 971 OFFCURVE",
"1161 950 OFFCURVE",
"1167 936 QCURVE",
"1085 518 LINE SMOOTH",
"1077 473 OFFCURVE",
"1049 387 OFFCURVE",
"1006 318 OFFCURVE",
"943 276 OFFCURVE",
"899 276 QCURVE SMOOTH",
"840 276 OFFCURVE",
"768 385 OFFCURVE",
"768 487 QCURVE",
"768 487 LINE"
);
}
);
width = 1886;
}
);
note = at;
unicode = 0040;
},
{
glyphname = braceleft;
layers = (
{
layerId = "4245090C-1DC1-4B2E-AF8E-CDB91B981D5B";
paths = (
{
closed = 1;
nodes = (
"844 -256 LINE",
"844 -147 LINE",
"764 -147 LINE SMOOTH",
"720 -147 OFFCURVE",
"664 -121 OFFCURVE",
"631 -70 OFFCURVE",
"618 5 OFFCURVE",
"618 53 QCURVE SMOOTH",
"618 403 LINE SMOOTH",
"618 496 OFFCURVE",
"511 616 OFFCURVE",
"393 645 QCURVE",
"393 662 LINE",
"512 689 OFFCURVE",
"618 808 OFFCURVE",
"618 901 QCURVE SMOOTH",
"618 1249 LINE SMOOTH",
"618 1297 OFFCURVE",
"631 1372 OFFCURVE",
"664 1422 OFFCURVE",
"720 1448 OFFCURVE",
"764 1448 QCURVE SMOOTH",
"844 1448 LINE",
"844 1556 LINE",
"649 1556 LINE SMOOTH",
"476 1556 OFFCURVE",
"299 1401 OFFCURVE",
"299 1257 QCURVE SMOOTH",
"299 905 LINE SMOOTH",
"299 848 OFFCURVE",
"262 775 OFFCURVE",
"198 733 OFFCURVE",
"111 717 OFFCURVE",
"61 715 QCURVE",
"61 590 LINE",
"111 588 OFFCURVE",
"198 571 OFFCURVE",
"262 529 OFFCURVE",
"299 456 OFFCURVE",
"299 397 QCURVE SMOOTH",
"299 47 LINE SMOOTH",
"299 -23 OFFCURVE",
"344 -135 OFFCURVE",
"432 -214 OFFCURVE",
"563 -256 OFFCURVE",
"649 -256 QCURVE",
"649 -256 LINE"
);
}
);
width = 905;
}
);
note = braceleft;
unicode = 007B;
},
{
glyphname = bar;
layers = (
{
layerId = "4245090C-1DC1-4B2E-AF8E-CDB91B981D5B";
paths = (
{
closed = 1;
nodes = (
"645 1556 LINE",
"498 1556 LINE",
"498 -492 LINE",
"645 -492 LINE",
"645 -492 LINE"
);
}
);
width = 1145;
}
);
note = bar;
unicode = 007C;
},
{
glyphname = braceright;
layers = (
{
layerId = "4245090C-1DC1-4B2E-AF8E-CDB91B981D5B";
paths = (
{
closed = 1;
nodes = (
"256 -256 LINE SMOOTH",
"342 -256 OFFCURVE",
"473 -214 OFFCURVE",
"561 -135 OFFCURVE",
"606 -23 OFFCURVE",
"606 47 QCURVE SMOOTH",
"606 397 LINE SMOOTH",
"606 456 OFFCURVE",
"643 529 OFFCURVE",
"707 571 OFFCURVE",
"794 588 OFFCURVE",
"844 590 QCURVE",
"844 715 LINE",
"794 717 OFFCURVE",
"707 733 OFFCURVE",
"643 775 OFFCURVE",
"606 848 OFFCURVE",
"606 905 QCURVE SMOOTH",
"606 1257 LINE SMOOTH",
"606 1401 OFFCURVE",
"429 1556 OFFCURVE",
"256 1556 QCURVE SMOOTH",
"61 1556 LINE",
"61 1448 LINE",
"141 1448 LINE SMOOTH",
"185 1448 OFFCURVE",
"241 1422 OFFCURVE",
"274 1372 OFFCURVE",
"287 1297 OFFCURVE",
"287 1249 QCURVE SMOOTH",
"287 901 LINE SMOOTH",
"287 808 OFFCURVE",
"393 689 OFFCURVE",
"512 662 QCURVE",
"512 645 LINE",
"394 616 OFFCURVE",
"287 496 OFFCURVE",
"287 403 QCURVE SMOOTH",
"287 53 LINE SMOOTH",
"287 5 OFFCURVE",
"274 -70 OFFCURVE",
"241 -121 OFFCURVE",
"185 -147 OFFCURVE",
"141 -147 QCURVE SMOOTH",
"61 -147 LINE",
"61 -256 LINE",
"61 -256 LINE"
);
}
);
width = 905;
}
);
note = braceright;
unicode = 007D;
},
{
glyphname = asciitilde;
layers = (
{
layerId = "4245090C-1DC1-4B2E-AF8E-CDB91B981D5B";
paths = (
{
closed = 1;
nodes = (
"904 537 OFFCURVE",
"1039 714 OFFCURVE",
"1049 924 QCURVE",
"897 924 LINE",
"892 802 OFFCURVE",
"834 686 OFFCURVE",
"784 686 QCURVE SMOOTH",
"733 686 OFFCURVE",
"592 821 OFFCURVE",
"448 924 OFFCURVE",
"369 924 QCURVE SMOOTH",
"235 924 OFFCURVE",
"94 727 OFFCURVE",
"94 537 QCURVE",
"245 537 LINE",
"245 661 OFFCURVE",
"307 774 OFFCURVE",
"360 774 QCURVE SMOOTH",
"410 774 OFFCURVE",
"506 686 OFFCURVE",
"608 596 OFFCURVE",
"714 537 OFFCURVE",
"774 537 QCURVE",
"774 537 LINE"
);
}
);
width = 1145;
}
);
note = asciitilde;
unicode = 007E;
},
{
glyphname = guillemotleft;
layers = (
{
layerId = "4245090C-1DC1-4B2E-AF8E-CDB91B981D5B";
paths = (
{
closed = 1;
nodes = (
"133 500 LINE",
"446 143 LINE",
"590 143 LINE",
"383 553 LINE",
"590 963 LINE",
"446 963 LINE",
"133 606 LINE",
"133 606 LINE"
);
},
{
closed = 1;
nodes = (
"545 500 LINE",
"858 143 LINE",
"1001 143 LINE",
"795 553 LINE",
"1001 963 LINE",
"858 963 LINE",
"545 606 LINE",
"545 606 LINE"
);
}
);
width = 1135;
}
);
note = guillemotleft;
unicode = 00AB;
},
{
glyphname = uni00AD;
layers = (
{
layerId = "4245090C-1DC1-4B2E-AF8E-CDB91B981D5B";
paths = (
{
closed = 1;
nodes = (
"584 451 LINE",
"584 666 LINE",
"51 666 LINE",
"51 451 LINE",
"51 451 LINE"
);
}
);
width = 635;
}
);
note = uni00AD;
unicode = 00AD;
},
{
glyphname = guillemotright;
layers = (
{
layerId = "4245090C-1DC1-4B2E-AF8E-CDB91B981D5B";
paths = (
{
closed = 1;
nodes = (
"1001 606 LINE",
"688 963 LINE",
"545 963 LINE",
"752 553 LINE",
"545 143 LINE",
"688 143 LINE",
"1001 500 LINE",
"1001 500 LINE"
);
},
{
closed = 1;
nodes = (
"590 606 LINE",
"276 963 LINE",
"133 963 LINE",
"340 553 LINE",
"133 143 LINE",
"276 143 LINE",
"590 500 LINE",
"590 500 LINE"
);
}
);
width = 1135;
}
);
note = guillemotright;
unicode = 00BB;
},
{
glyphname = uni1780;
layers = (
{
layerId = "4245090C-1DC1-4B2E-AF8E-CDB91B981D5B";
paths = (
{
closed = 1;
nodes = (
"430 650 LINE SMOOTH",
"430 790 OFFCURVE",
"625 790 QCURVE SMOOTH",
"820 790 OFFCURVE",
"820 650 QCURVE SMOOTH",
"820 0 LINE",
"1070 0 LINE",
"1070 650 LINE SMOOTH",
"1070 950 OFFCURVE",
"625 950 QCURVE SMOOTH",
"180 950 OFFCURVE",
"180 650 QCURVE SMOOTH",
"180 0 LINE",
"430 0 LINE",
"430 0 LINE"
);
},
{
closed = 1;
nodes = (
"348 923 OFFCURVE",
"390 1017 QCURVE",
"370 1013 OFFCURVE",
"352 1013 QCURVE SMOOTH",
"307 1013 OFFCURVE",
"265 1090 QCURVE",
"282 1137 OFFCURVE",
"319 1137 QCURVE SMOOTH",
"356 1137 OFFCURVE",
"631 1012 QCURVE",
"702 1126 OFFCURVE",
"763 1126 QCURVE",
"912 997 OFFCURVE",
"1042 997 QCURVE SMOOTH",
"1091 997 OFFCURVE",
"1150 1106 OFFCURVE",
"1150 1178 QCURVE",
"1133 1161 OFFCURVE",
"1090 1161 QCURVE SMOOTH",
"1061 1161 OFFCURVE",
"900 1300 OFFCURVE",
"835 1300 QCURVE SMOOTH",
"764 1300 OFFCURVE",
"649 1199 QCURVE",
"509 1300 OFFCURVE",
"365 1300 QCURVE SMOOTH",
"302 1300 OFFCURVE",
"154 1186 OFFCURVE",
"100 1095 QCURVE",
"100 1025 OFFCURVE",
"232 923 OFFCURVE",
"290 923 QCURVE",
"290 923 LINE"
);
}
);
width = 1250;
}
);
note = uni1780;
unicode = 1780;
},
{
glyphname = uni1781;
layers = (
{
layerId = "4245090C-1DC1-4B2E-AF8E-CDB91B981D5B";
paths = (
{
closed = 1;
nodes = (
"180 347 LINE SMOOTH",
"180 0 OFFCURVE",
"625 0 QCURVE SMOOTH",
"1070 0 OFFCURVE",
"1070 347 QCURVE SMOOTH",
"1070 520 LINE",
"820 520 LINE",
"820 347 LINE SMOOTH",
"820 160 OFFCURVE",
"625 160 QCURVE SMOOTH",
"430 160 OFFCURVE",
"430 347 QCURVE SMOOTH",
"430 411 LINE",
"1070 736 OFFCURVE",
"1070 953 QCURVE SMOOTH",
"1070 1300 OFFCURVE",
"625 1300 QCURVE SMOOTH",
"180 1300 OFFCURVE",
"180 953 QCURVE SMOOTH",
"180 760 OFFCURVE",
"393 760 QCURVE SMOOTH",
"545 760 OFFCURVE",
"545 894 QCURVE SMOOTH",
"545 947 OFFCURVE",
"502 965 QCURVE",
"488 918 OFFCURVE",
"459 918 QCURVE SMOOTH",
"430 918 OFFCURVE",
"430 953 QCURVE SMOOTH",
"430 1140 OFFCURVE",
"625 1140 QCURVE SMOOTH",
"820 1140 OFFCURVE",
"820 953 QCURVE SMOOTH",
"820 806 OFFCURVE",
"180 481 QCURVE",
"180 481 LINE"
);
}
);
width = 1250;
}
);
note = uni1781;
unicode = 1781;
},
{
glyphname = uni1782;
layers = (
{
layerId = "4245090C-1DC1-4B2E-AF8E-CDB91B981D5B";
paths = (
{
closed = 1;
nodes = (
"430 650 LINE SMOOTH",
"430 790 OFFCURVE",
"625 790 QCURVE SMOOTH",
"820 790 OFFCURVE",
"820 650 QCURVE SMOOTH",
"820 0 LINE",
"1070 0 LINE",
"1070 650 LINE SMOOTH",
"1070 950 OFFCURVE",
"625 950 QCURVE SMOOTH",
"180 950 OFFCURVE",
"180 650 QCURVE SMOOTH",
"180 0 LINE",
"430 0 LINE",
"430 184 LINE",
"468 260 OFFCURVE",
"510 260 QCURVE SMOOTH",
"590 260 OFFCURVE",
"590 160 QCURVE",
"720 160 OFFCURVE",
"720 305 QCURVE SMOOTH",
"720 460 OFFCURVE",
"580 460 QCURVE SMOOTH",
"491 460 OFFCURVE",
"430 371 QCURVE",
"430 371 LINE"
);
},
{
closed = 1;
nodes = (
"348 923 OFFCURVE",
"390 1017 QCURVE",
"370 1013 OFFCURVE",
"352 1013 QCURVE SMOOTH",
"307 1013 OFFCURVE",
"265 1090 QCURVE",
"282 1137 OFFCURVE",
"319 1137 QCURVE SMOOTH",
"356 1137 OFFCURVE",
"631 1012 QCURVE",
"702 1126 OFFCURVE",
"763 1126 QCURVE",
"912 997 OFFCURVE",
"1042 997 QCURVE SMOOTH",
"1091 997 OFFCURVE",
"1150 1106 OFFCURVE",
"1150 1178 QCURVE",
"1133 1161 OFFCURVE",
"1090 1161 QCURVE SMOOTH",
"1061 1161 OFFCURVE",
"900 1300 OFFCURVE",
"835 1300 QCURVE SMOOTH",
"764 1300 OFFCURVE",
"649 1199 QCURVE",
"509 1300 OFFCURVE",
"365 1300 QCURVE SMOOTH",
"302 1300 OFFCURVE",
"154 1186 OFFCURVE",
"100 1095 QCURVE",
"100 1025 OFFCURVE",
"232 923 OFFCURVE",
"290 923 QCURVE",
"290 923 LINE"
);
}
);
width = 1250;
}
);
note = uni1782;
unicode = 1782;
},
{
glyphname = uni1783;
layers = (
{
layerId = "4245090C-1DC1-4B2E-AF8E-CDB91B981D5B";
paths = (
{
closed = 1;
nodes = (
"1050 806 LINE SMOOTH",
"1050 932 OFFCURVE",
"836 991 QCURVE",
"859 1074 OFFCURVE",
"891 1074 QCURVE",
"970 1016 OFFCURVE",
"1045 1016 QCURVE SMOOTH",
"1160 1016 OFFCURVE",
"1180 1223 QCURVE",
"1153 1210 OFFCURVE",
"1114 1210 QCURVE SMOOTH",
"1084 1210 OFFCURVE",
"940 1300 OFFCURVE",
"878 1300 QCURVE SMOOTH",
"816 1300 OFFCURVE",
"694 1106 OFFCURVE",
"670 1004 QCURVE",
"710 882 LINE",
"800 862 OFFCURVE",
"800 756 QCURVE SMOOTH",
"800 300 LINE SMOOTH",
"800 160 OFFCURVE",
"615 160 QCURVE SMOOTH",
"430 160 OFFCURVE",
"430 300 QCURVE SMOOTH",
"430 700 LINE SMOOTH",
"430 780 OFFCURVE",
"520 992 OFFCURVE",
"520 1106 QCURVE SMOOTH",
"520 1300 OFFCURVE",
"286 1300 QCURVE SMOOTH",
"80 1300 OFFCURVE",
"80 1097 QCURVE SMOOTH",
"80 997 OFFCURVE",
"142 959 QCURVE SMOOTH",
"171 941 OFFCURVE",
"211 941 QCURVE SMOOTH",
"235 941 OFFCURVE",
"248 965 QCURVE",
"220 1006 OFFCURVE",
"220 1073 QCURVE SMOOTH",
"220 1150 OFFCURVE",
"266 1150 QCURVE SMOOTH",
"310 1150 OFFCURVE",
"310 1106 QCURVE SMOOTH",
"310 1033 OFFCURVE",
"180 813 OFFCURVE",
"180 700 QCURVE SMOOTH",
"180 300 LINE SMOOTH",
"180 0 OFFCURVE",
"615 0 QCURVE SMOOTH",
"817 0 OFFCURVE",
"925 65 QCURVE",
"1033 0 OFFCURVE",
"1235 0 QCURVE SMOOTH",
"1670 0 OFFCURVE",
"1670 300 QCURVE SMOOTH",
"1670 806 LINE SMOOTH",
"1670 932 OFFCURVE",
"1456 991 QCURVE",
"1479 1074 OFFCURVE",
"1511 1074 QCURVE",
"1590 1016 OFFCURVE",
"1665 1016 QCURVE SMOOTH",
"1780 1016 OFFCURVE",
"1800 1223 QCURVE",
"1773 1210 OFFCURVE",
"1734 1210 QCURVE SMOOTH",
"1704 1210 OFFCURVE",
"1560 1300 OFFCURVE",
"1498 1300 QCURVE SMOOTH",
"1436 1300 OFFCURVE",
"1314 1106 OFFCURVE",
"1290 1004 QCURVE",
"1330 882 LINE",
"1420 862 OFFCURVE",
"1420 756 QCURVE SMOOTH",
"1420 300 LINE SMOOTH",
"1420 160 OFFCURVE",
"1235 160 QCURVE SMOOTH",
"1050 160 OFFCURVE",
"1050 300 QCURVE",
"1050 300 LINE"
);
}
);
width = 1850;
}
);
note = uni1783;
unicode = 1783;
},
{
glyphname = uni1784;
layers = (
{
layerId = "4245090C-1DC1-4B2E-AF8E-CDB91B981D5B";
paths = (
{
closed = 1;
nodes = (
"400 0 LINE",
"625 190 LINE",
"850 0 LINE",
"1070 0 LINE",
"1070 780 LINE SMOOTH",
"1070 919 OFFCURVE",
"955 977 QCURVE SMOOTH",
"933 987 OFFCURVE",
"912 995 QCURVE",
"980 1057 OFFCURVE",
"980 1144 QCURVE SMOOTH",
"980 1300 OFFCURVE",
"780 1300 QCURVE SMOOTH",
"590 1300 OFFCURVE",
"590 1144 QCURVE SMOOTH",
"590 1078 OFFCURVE",
"665 1022 QCURVE",
"594 973 OFFCURVE",
"510 973 QCURVE SMOOTH",
"430 973 OFFCURVE",
"430 1086 QCURVE SMOOTH",
"430 1166 OFFCURVE",
"530 1301 OFFCURVE",
"530 1376 QCURVE SMOOTH",
"530 1560 OFFCURVE",
"290 1560 QCURVE SMOOTH",
"130 1560 OFFCURVE",
"130 1461 QCURVE",
"280 1461 OFFCURVE",
"280 1376 QCURVE SMOOTH",
"280 1306 OFFCURVE",
"180 1181 OFFCURVE",
"180 1086 QCURVE SMOOTH",
"180 806 OFFCURVE",
"510 806 QCURVE SMOOTH",
"646 806 OFFCURVE",
"758 894 QCURVE",
"820 863 OFFCURVE",
"820 780 QCURVE SMOOTH",
"820 231 LINE",
"694 329 LINE SMOOTH",
"659 357 OFFCURVE",
"623 357 QCURVE SMOOTH",
"590 357 OFFCURVE",
"556 332 QCURVE SMOOTH",
"430 237 LINE",
"430 567 LINE SMOOTH",
"430 740 OFFCURVE",
"232 740 QCURVE SMOOTH",
"65 740 OFFCURVE",
"65 586 QCURVE SMOOTH",
"65 523 OFFCURVE",
"108 505 QCURVE",
"122 562 OFFCURVE",
"151 562 QCURVE SMOOTH",
"180 562 OFFCURVE",
"180 517 QCURVE SMOOTH",
"180 0 LINE",
"180 0 LINE"
);
},
{
closed = 1;
nodes = (
"797 1113 OFFCURVE",
"777 1086 QCURVE",
"730 1115 OFFCURVE",
"730 1144 QCURVE SMOOTH",
"730 1186 OFFCURVE",
"767 1186 QCURVE SMOOTH",
"797 1186 OFFCURVE",
"797 1144 QCURVE",
"797 1144 LINE"
);
}
);
width = 1250;
}
);
note = uni1784;
unicode = 1784;
},
{
glyphname = uni1785;
layers = (
{
layerId = "4245090C-1DC1-4B2E-AF8E-CDB91B981D5B";
paths = (
{
closed = 1;
nodes = (
"180 300 LINE SMOOTH",
"180 0 OFFCURVE",
"625 0 QCURVE SMOOTH",
"1070 0 OFFCURVE",
"1070 300 QCURVE SMOOTH",
"1070 687 LINE SMOOTH",
"1070 900 OFFCURVE",
"868 900 QCURVE SMOOTH",
"665 900 OFFCURVE",
"665 726 QCURVE SMOOTH",
"665 625 OFFCURVE",
"772 575 QCURVE",
"808 625 LINE",
"772 652 OFFCURVE",
"772 699 QCURVE SMOOTH",
"772 732 OFFCURVE",
"791 732 QCURVE SMOOTH",
"820 732 OFFCURVE",
"820 687 QCURVE SMOOTH",
"820 300 LINE SMOOTH",
"820 160 OFFCURVE",
"625 160 QCURVE SMOOTH",
"430 160 OFFCURVE",
"430 300 QCURVE SMOOTH",
"430 950 LINE",
"307 1013 OFFCURVE",
"265 1090 QCURVE",
"282 1137 OFFCURVE",
"319 1137 QCURVE SMOOTH",
"356 1137 OFFCURVE",
"631 1012 QCURVE",
"702 1126 OFFCURVE",
"763 1126 QCURVE",
"912 997 OFFCURVE",
"1042 997 QCURVE SMOOTH",
"1091 997 OFFCURVE",
"1150 1106 OFFCURVE",
"1150 1178 QCURVE",
"1133 1161 OFFCURVE",
"1090 1161 QCURVE SMOOTH",
"1061 1161 OFFCURVE",
"900 1300 OFFCURVE",
"835 1300 QCURVE SMOOTH",
"764 1300 OFFCURVE",
"649 1199 QCURVE",
"509 1300 OFFCURVE",
"365 1300 QCURVE SMOOTH",
"302 1300 OFFCURVE",
"154 1186 OFFCURVE",
"100 1095 QCURVE",
"100 1055 OFFCURVE",
"144 984 OFFCURVE",
"180 964 QCURVE",
"180 964 LINE"
);
}
);
width = 1250;
}
);
note = uni1785;
unicode = 1785;
},
{
glyphname = uni1786;
layers = (
{
layerId = "4245090C-1DC1-4B2E-AF8E-CDB91B981D5B";
paths = (
{
closed = 1;
nodes = (
"430 950 LINE",
"307 1013 OFFCURVE",
"265 1090 QCURVE",
"282 1137 OFFCURVE",
"319 1137 QCURVE SMOOTH",
"356 1137 OFFCURVE",
"631 1012 QCURVE",
"702 1126 OFFCURVE",
"763 1126 QCURVE",
"912 997 OFFCURVE",
"1042 997 QCURVE SMOOTH",
"1091 997 OFFCURVE",
"1150 1106 OFFCURVE",
"1150 1178 QCURVE",
"1133 1161 OFFCURVE",
"1090 1161 QCURVE SMOOTH",
"1061 1161 OFFCURVE",
"900 1300 OFFCURVE",
"835 1300 QCURVE SMOOTH",
"764 1300 OFFCURVE",
"649 1199 QCURVE",
"509 1300 OFFCURVE",
"365 1300 QCURVE SMOOTH",
"302 1300 OFFCURVE",
"154 1186 OFFCURVE",
"100 1095 QCURVE",
"100 1055 OFFCURVE",
"144 984 OFFCURVE",
"180 964 QCURVE",
"180 445 LINE",
"80 411 OFFCURVE",
"80 286 QCURVE SMOOTH",
"80 0 OFFCURVE",
"255 0 QCURVE SMOOTH",
"430 0 OFFCURVE",
"430 173 QCURVE SMOOTH",
"430 293 LINE",
"500 293 OFFCURVE",
"500 217 QCURVE SMOOTH",
"500 0 OFFCURVE",
"750 0 QCURVE SMOOTH",
"1070 0 OFFCURVE",
"1070 217 QCURVE SMOOTH",
"1070 680 LINE SMOOTH",
"1070 910 OFFCURVE",
"840 910 QCURVE SMOOTH",
"610 910 OFFCURVE",
"610 692 QCURVE SMOOTH",
"610 617 OFFCURVE",
"718 517 OFFCURVE",
"755 517 QCURVE",
"795 587 LINE",
"750 617 OFFCURVE",
"750 692 QCURVE SMOOTH",
"750 740 OFFCURVE",
"785 740 QCURVE SMOOTH",
"820 740 OFFCURVE",
"820 680 QCURVE SMOOTH",
"820 217 LINE SMOOTH",
"820 160 OFFCURVE",
"750 160 QCURVE SMOOTH",
"680 160 OFFCURVE",
"680 217 QCURVE SMOOTH",
"680 453 OFFCURVE",
"430 453 QCURVE",
"430 453 LINE"
);
}
);
width = 1250;
}
);
note = uni1786;
unicode = 1786;
},
{
glyphname = uni1787;
layers = (
{
layerId = "4245090C-1DC1-4B2E-AF8E-CDB91B981D5B";
paths = (
{
closed = 1;
nodes = (
"820 231 LINE",
"694 329 LINE SMOOTH",
"659 357 OFFCURVE",
"623 357 QCURVE SMOOTH",
"590 357 OFFCURVE",
"556 332 QCURVE SMOOTH",
"430 237 LINE",
"430 963 LINE",
"297 1013 OFFCURVE",
"265 1060 QCURVE",
"302 1097 OFFCURVE",
"385 1107 QCURVE",
"446 1107 OFFCURVE",
"631 1009 OFFCURVE",
"740 1009 QCURVE SMOOTH",
"1070 1009 OFFCURVE",
"1070 1260 QCURVE SMOOTH",
"1070 1519 OFFCURVE",
"820 1519 QCURVE SMOOTH",
"660 1519 OFFCURVE",
"660 1424 QCURVE",
"820 1424 OFFCURVE",
"820 1260 QCURVE SMOOTH",
"820 1169 OFFCURVE",
"740 1169 QCURVE SMOOTH",
"679 1169 OFFCURVE",
"499 1300 OFFCURVE",
"385 1300 QCURVE SMOOTH",
"282 1300 OFFCURVE",
"134 1176 OFFCURVE",
"100 1095 QCURVE",
"100 965 OFFCURVE",
"180 909 QCURVE",
"180 0 LINE",
"400 0 LINE",
"625 190 LINE",
"850 0 LINE",
"1070 0 LINE",
"1070 910 LINE",
"820 910 LINE",
"820 910 LINE"
);
}
);
width = 1250;
}
);
note = uni1787;
unicode = 1787;
},
{
glyphname = uni1788;
layers = (
{
layerId = "4245090C-1DC1-4B2E-AF8E-CDB91B981D5B";
paths = (
{
closed = 1;
nodes = (
"1420 300 LINE SMOOTH",
"1420 160 OFFCURVE",
"1250 160 QCURVE SMOOTH",
"1080 160 OFFCURVE",
"1080 300 QCURVE SMOOTH",
"1080 1000 LINE SMOOTH",
"1080 1300 OFFCURVE",
"630 1300 QCURVE SMOOTH",
"180 1300 OFFCURVE",
"180 1000 QCURVE SMOOTH",
"180 230 LINE SMOOTH",
"180 0 OFFCURVE",
"435 0 QCURVE SMOOTH",
"690 0 OFFCURVE",
"690 268 QCURVE SMOOTH",
"690 373 OFFCURVE",
"562 503 OFFCURVE",
"475 503 QCURVE",
"455 433 LINE",
"530 383 OFFCURVE",
"530 268 QCURVE SMOOTH",
"530 170 OFFCURVE",
"475 170 QCURVE SMOOTH",
"430 170 OFFCURVE",
"430 230 QCURVE SMOOTH",
"430 1000 LINE SMOOTH",
"430 1140 OFFCURVE",
"630 1140 QCURVE SMOOTH",
"830 1140 OFFCURVE",
"830 1000 QCURVE SMOOTH",
"830 300 LINE SMOOTH",
"830 0 OFFCURVE",
"1250 0 QCURVE SMOOTH",
"1441 0 OFFCURVE",
"1545 62 QCURVE",
"1649 0 OFFCURVE",
"1840 0 QCURVE SMOOTH",
"2260 0 OFFCURVE",
"2260 300 QCURVE SMOOTH",
"2260 806 LINE SMOOTH",
"2260 932 OFFCURVE",
"2046 991 QCURVE",
"2069 1074 OFFCURVE",
"2101 1074 QCURVE",
"2180 1016 OFFCURVE",
"2255 1016 QCURVE SMOOTH",
"2370 1016 OFFCURVE",
"2390 1223 QCURVE",
"2363 1210 OFFCURVE",
"2324 1210 QCURVE SMOOTH",
"2294 1210 OFFCURVE",
"2150 1300 OFFCURVE",
"2088 1300 QCURVE SMOOTH",
"2026 1300 OFFCURVE",
"1904 1106 OFFCURVE",
"1880 1004 QCURVE",
"1920 882 LINE",
"2010 862 OFFCURVE",
"2010 756 QCURVE SMOOTH",
"2010 300 LINE SMOOTH",
"2010 160 OFFCURVE",
"1840 160 QCURVE SMOOTH",
"1670 160 OFFCURVE",
"1670 300 QCURVE SMOOTH",
"1670 806 LINE SMOOTH",
"1670 932 OFFCURVE",
"1456 991 QCURVE",
"1479 1074 OFFCURVE",
"1511 1074 QCURVE",
"1590 1016 OFFCURVE",
"1665 1016 QCURVE SMOOTH",
"1780 1016 OFFCURVE",
"1800 1223 QCURVE",
"1773 1210 OFFCURVE",
"1734 1210 QCURVE SMOOTH",
"1704 1210 OFFCURVE",
"1560 1300 OFFCURVE",
"1498 1300 QCURVE SMOOTH",
"1436 1300 OFFCURVE",
"1314 1106 OFFCURVE",
"1290 1004 QCURVE",
"1330 882 LINE",
"1420 862 OFFCURVE",
"1420 756 QCURVE",
"1420 756 LINE"
);
}
);
width = 2440;
}
);
note = uni1788;
unicode = 1788;
},
{
glyphname = uni1789;
layers = (
{
layerId = "4245090C-1DC1-4B2E-AF8E-CDB91B981D5B";
paths = (
{
closed = 1;
nodes = (
"1252 -50 OFFCURVE",
"1252 -238 QCURVE SMOOTH",
"1252 -365 OFFCURVE",
"1376 -365 QCURVE SMOOTH",
"1409 -365 OFFCURVE",
"1417 -312 QCURVE",
"1370 -308 OFFCURVE",
"1370 -279 QCURVE SMOOTH",
"1370 -250 OFFCURVE",
"1415 -250 QCURVE SMOOTH",
"1460 -250 OFFCURVE",
"1460 -320 QCURVE SMOOTH",
"1460 -420 OFFCURVE",
"1319 -420 QCURVE SMOOTH",
"1125 -420 OFFCURVE",
"503 -50 OFFCURVE",
"372 -50 QCURVE SMOOTH",
"240 -50 OFFCURVE",
"200 -237 QCURVE",
"240 -215 OFFCURVE",
"327 -215 QCURVE SMOOTH",
"457 -215 OFFCURVE",
"1079 -550 OFFCURVE",
"1359 -550 QCURVE SMOOTH",
"1710 -550 OFFCURVE",
"1710 -270 QCURVE SMOOTH",
"1710 -50 OFFCURVE",
"1481 -50 QCURVE",
"1481 -50 LINE"
);
},
{
closed = 1;
nodes = (
"934 1300 OFFCURVE",
"828 1300 QCURVE SMOOTH",
"719 1300 OFFCURVE",
"625 1176 QCURVE",
"532 1300 OFFCURVE",
"424 1300 QCURVE SMOOTH",
"315 1300 OFFCURVE",
"180 1122 OFFCURVE",
"180 1000 QCURVE SMOOTH",
"180 230 LINE SMOOTH",
"180 0 OFFCURVE",
"435 0 QCURVE SMOOTH",
"690 0 OFFCURVE",
"690 268 QCURVE SMOOTH",
"690 373 OFFCURVE",
"562 503 OFFCURVE",
"475 503 QCURVE",
"455 433 LINE",
"530 383 OFFCURVE",
"530 268 QCURVE SMOOTH",
"530 170 OFFCURVE",
"475 170 QCURVE SMOOTH",
"430 170 OFFCURVE",
"430 230 QCURVE SMOOTH",
"430 1000 LINE SMOOTH",
"430 1098 OFFCURVE",
"483 1098 QCURVE SMOOTH",
"535 1098 OFFCURVE",
"583 1004 QCURVE SMOOTH",
"599 972 OFFCURVE",
"625 972 QCURVE SMOOTH",
"651 972 OFFCURVE",
"667 1004 QCURVE SMOOTH",
"716 1098 OFFCURVE",
"768 1098 QCURVE SMOOTH",
"820 1098 OFFCURVE",
"820 1000 QCURVE SMOOTH",
"820 0 LINE",
"1070 0 LINE",
"1070 1000 LINE SMOOTH",
"1070 1140 OFFCURVE",
"1295 1140 QCURVE SMOOTH",
"1460 1140 OFFCURVE",
"1460 1000 QCURVE SMOOTH",
"1460 0 LINE",
"1710 0 LINE",
"1710 1000 LINE SMOOTH",
"1710 1300 OFFCURVE",
"1295 1300 QCURVE SMOOTH",
"1094 1300 OFFCURVE",
"1001 1214 QCURVE",
"1001 1214 LINE"
);
}
);
width = 1890;
}
);
note = uni1789;
unicode = 1789;
},
{
glyphname = uni178A;
layers = (
{
layerId = "4245090C-1DC1-4B2E-AF8E-CDB91B981D5B";
paths = (
{
closed = 1;
nodes = (
"430 1162 OFFCURVE",
"459 1162 QCURVE SMOOTH",
"488 1162 OFFCURVE",
"502 1105 QCURVE",
"565 1133 OFFCURVE",
"565 1166 QCURVE SMOOTH",
"565 1300 OFFCURVE",
"373 1300 QCURVE SMOOTH",
"180 1300 OFFCURVE",
"180 1127 QCURVE SMOOTH",
"180 890 OFFCURVE",
"625 890 QCURVE SMOOTH",
"1070 890 OFFCURVE",
"1070 1190 QCURVE SMOOTH",
"1070 1460 OFFCURVE",
"783 1460 QCURVE SMOOTH",
"641 1460 OFFCURVE",
"641 1340 QCURVE",
"655 1341 OFFCURVE",
"669 1341 QCURVE SMOOTH",
"815 1341 OFFCURVE",
"815 1190 QCURVE SMOOTH",
"815 1050 OFFCURVE",
"625 1050 QCURVE SMOOTH",
"430 1050 OFFCURVE",
"430 1127 QCURVE",
"430 1127 LINE"
);
},
{
closed = 1;
nodes = (
"820 231 LINE",
"694 329 LINE SMOOTH",
"659 357 OFFCURVE",
"623 357 QCURVE SMOOTH",
"590 357 OFFCURVE",
"556 332 QCURVE SMOOTH",
"430 237 LINE",
"430 820 LINE",
"180 820 LINE",
"180 0 LINE",
"400 0 LINE",
"625 190 LINE",
"850 0 LINE",
"1070 0 LINE",
"1070 820 LINE",
"820 820 LINE",
"820 820 LINE"
);
}
);
width = 1250;
}
);
note = uni178A;
unicode = 178A;
},
{
glyphname = uni178B;
layers = (
{
layerId = "4245090C-1DC1-4B2E-AF8E-CDB91B981D5B";
paths = (
{
closed = 1;
nodes = (
"1070 786 LINE SMOOTH",
"1070 912 OFFCURVE",
"776 991 QCURVE",
"799 1074 OFFCURVE",
"871 1074 QCURVE",
"950 1016 OFFCURVE",
"1065 1016 QCURVE SMOOTH",
"1200 1016 OFFCURVE",
"1200 1320 QCURVE SMOOTH",
"1200 1449 OFFCURVE",
"1037 1580 OFFCURVE",
"915 1580 QCURVE SMOOTH",
"823 1580 OFFCURVE",
"761 1442 QCURVE",
"901 1441 OFFCURVE",
"1000 1390 OFFCURVE",
"1000 1320 QCURVE SMOOTH",
"1000 1289 OFFCURVE",
"986 1267 QCURVE",
"911 1300 OFFCURVE",
"858 1300 QCURVE SMOOTH",
"776 1300 OFFCURVE",
"634 1106 OFFCURVE",
"610 1004 QCURVE",
"650 882 LINE",
"740 862 OFFCURVE",
"820 756 QCURVE",
"820 300 LINE SMOOTH",
"820 160 OFFCURVE",
"625 160 QCURVE SMOOTH",
"430 160 OFFCURVE",
"430 300 QCURVE SMOOTH",
"430 700 LINE SMOOTH",
"430 780 OFFCURVE",
"520 992 OFFCURVE",
"520 1106 QCURVE SMOOTH",
"520 1300 OFFCURVE",
"286 1300 QCURVE SMOOTH",
"80 1300 OFFCURVE",
"80 1097 QCURVE SMOOTH",
"80 997 OFFCURVE",
"142 959 QCURVE SMOOTH",
"171 941 OFFCURVE",
"211 941 QCURVE SMOOTH",
"235 941 OFFCURVE",
"248 965 QCURVE",
"220 1006 OFFCURVE",
"220 1073 QCURVE SMOOTH",
"220 1150 OFFCURVE",
"266 1150 QCURVE SMOOTH",
"310 1150 OFFCURVE",
"310 1106 QCURVE SMOOTH",
"310 1033 OFFCURVE",
"180 813 OFFCURVE",
"180 700 QCURVE SMOOTH",
"180 300 LINE SMOOTH",
"180 0 OFFCURVE",
"625 0 QCURVE SMOOTH",
"1070 0 OFFCURVE",
"1070 300 QCURVE",
"1070 300 LINE"
);
}
);
width = 1250;
}
);
note = uni178B;
unicode = 178B;
},
{
glyphname = uni178C;
layers = (
{
layerId = "4245090C-1DC1-4B2E-AF8E-CDB91B981D5B";
paths = (
{
closed = 1;
nodes = (
"1070 520 LINE",
"820 520 LINE",
"820 397 LINE",
"680 160 OFFCURVE",
"535 160 QCURVE SMOOTH",
"430 160 OFFCURVE",
"430 347 QCURVE SMOOTH",
"430 411 LINE",
"1070 736 OFFCURVE",
"1070 953 QCURVE SMOOTH",
"1070 1000 LINE SMOOTH",
"1070 1122 OFFCURVE",
"936 1300 OFFCURVE",
"828 1300 QCURVE SMOOTH",
"719 1300 OFFCURVE",
"625 1176 QCURVE",
"532 1300 OFFCURVE",
"424 1300 QCURVE SMOOTH",
"315 1300 OFFCURVE",
"180 1122 OFFCURVE",
"180 1000 QCURVE SMOOTH",
"180 953 LINE SMOOTH",
"180 760 OFFCURVE",
"393 760 QCURVE SMOOTH",
"545 760 OFFCURVE",
"545 894 QCURVE SMOOTH",
"545 947 OFFCURVE",
"502 965 QCURVE",
"488 918 OFFCURVE",
"459 918 QCURVE SMOOTH",
"430 918 OFFCURVE",
"430 953 QCURVE SMOOTH",
"430 1000 LINE SMOOTH",
"430 1098 OFFCURVE",
"483 1098 QCURVE SMOOTH",
"535 1098 OFFCURVE",
"583 1004 QCURVE SMOOTH",
"599 972 OFFCURVE",
"625 972 QCURVE SMOOTH",
"651 972 OFFCURVE",
"667 1004 QCURVE SMOOTH",
"716 1098 OFFCURVE",
"768 1098 QCURVE SMOOTH",
"820 1098 OFFCURVE",
"820 1000 QCURVE SMOOTH",
"820 953 LINE SMOOTH",
"820 806 OFFCURVE",
"180 481 QCURVE",
"180 347 LINE SMOOTH",
"180 0 OFFCURVE",
"535 0 QCURVE SMOOTH",
"671 0 OFFCURVE",
"820 122 QCURVE",
"820 60 LINE SMOOTH",
"820 -13 OFFCURVE",
"760 -20 QCURVE",
"780 -100 OFFCURVE",
"895 -100 QCURVE SMOOTH",
"1070 -100 OFFCURVE",
"1070 60 QCURVE",
"1070 60 LINE"
);
}
);
width = 1250;
}
);
note = uni178C;
unicode = 178C;
},
{
glyphname = uni178D;
layers = (
{
layerId = "4245090C-1DC1-4B2E-AF8E-CDB91B981D5B";
paths = (
{
closed = 1;
nodes = (
"1710 806 LINE SMOOTH",
"1710 932 OFFCURVE",
"1496 991 QCURVE",
"1519 1074 OFFCURVE",
"1551 1074 QCURVE",
"1630 1016 OFFCURVE",
"1705 1016 QCURVE SMOOTH",
"1820 1016 OFFCURVE",
"1840 1223 QCURVE",
"1813 1210 OFFCURVE",
"1774 1210 QCURVE SMOOTH",
"1744 1210 OFFCURVE",
"1600 1300 OFFCURVE",
"1538 1300 QCURVE SMOOTH",
"1476 1300 OFFCURVE",
"1354 1106 OFFCURVE",
"1330 1004 QCURVE",
"1370 882 LINE",
"1460 862 OFFCURVE",
"1460 756 QCURVE SMOOTH",
"1460 217 LINE SMOOTH",
"1460 160 OFFCURVE",
"1390 160 QCURVE SMOOTH",
"1320 160 OFFCURVE",
"1320 217 QCURVE SMOOTH",
"1320 453 OFFCURVE",
"1070 453 QCURVE",
"1070 1000 LINE SMOOTH",
"1070 1122 OFFCURVE",
"936 1300 OFFCURVE",
"828 1300 QCURVE SMOOTH",
"719 1300 OFFCURVE",
"625 1176 QCURVE",
"532 1300 OFFCURVE",
"424 1300 QCURVE SMOOTH",
"315 1300 OFFCURVE",
"180 1122 OFFCURVE",
"180 1000 QCURVE SMOOTH",
"180 230 LINE SMOOTH",
"180 0 OFFCURVE",
"435 0 QCURVE SMOOTH",
"690 0 OFFCURVE",
"690 268 QCURVE SMOOTH",
"690 373 OFFCURVE",
"562 503 OFFCURVE",
"475 503 QCURVE",
"455 433 LINE",
"530 383 OFFCURVE",
"530 268 QCURVE SMOOTH",
"530 170 OFFCURVE",
"475 170 QCURVE SMOOTH",
"430 170 OFFCURVE",
"430 230 QCURVE SMOOTH",
"430 1000 LINE SMOOTH",
"430 1098 OFFCURVE",
"483 1098 QCURVE SMOOTH",
"535 1098 OFFCURVE",
"583 1004 QCURVE SMOOTH",
"599 972 OFFCURVE",
"625 972 QCURVE SMOOTH",
"651 972 OFFCURVE",
"667 1004 QCURVE SMOOTH",
"716 1098 OFFCURVE",
"768 1098 QCURVE SMOOTH",
"820 1098 OFFCURVE",
"820 1000 QCURVE SMOOTH",
"820 0 LINE",
"1070 0 LINE",
"1070 293 LINE",
"1140 293 OFFCURVE",
"1140 217 QCURVE SMOOTH",
"1140 0 OFFCURVE",
"1390 0 QCURVE SMOOTH",
"1710 0 OFFCURVE",
"1710 217 QCURVE",
"1710 217 LINE"
);
}
);
width = 1890;
}
);
note = uni178D;
unicode = 178D;
},
{
glyphname = uni178E;
layers = (
{
layerId = "4245090C-1DC1-4B2E-AF8E-CDB91B981D5B";
paths = (
{
closed = 1;
nodes = (
"1470 231 LINE",
"1344 329 LINE SMOOTH",
"1309 357 OFFCURVE",
"1273 357 QCURVE SMOOTH",
"1240 357 OFFCURVE",
"1206 332 QCURVE SMOOTH",
"1080 237 LINE",
"1080 1000 LINE SMOOTH",
"1080 1300 OFFCURVE",
"630 1300 QCURVE SMOOTH",
"180 1300 OFFCURVE",
"180 1000 QCURVE SMOOTH",
"180 230 LINE SMOOTH",
"180 0 OFFCURVE",
"435 0 QCURVE SMOOTH",
"690 0 OFFCURVE",
"690 268 QCURVE SMOOTH",
"690 373 OFFCURVE",
"562 503 OFFCURVE",
"475 503 QCURVE",
"455 433 LINE",
"530 383 OFFCURVE",
"530 268 QCURVE SMOOTH",
"530 170 OFFCURVE",
"475 170 QCURVE SMOOTH",
"430 170 OFFCURVE",
"430 230 QCURVE SMOOTH",
"430 1000 LINE SMOOTH",
"430 1140 OFFCURVE",
"630 1140 QCURVE SMOOTH",
"830 1140 OFFCURVE",
"830 1000 QCURVE SMOOTH",
"830 0 LINE",
"1050 0 LINE",
"1275 190 LINE",
"1500 0 LINE",
"1720 0 LINE",
"1720 1000 LINE SMOOTH",
"1720 1140 OFFCURVE",
"1920 1140 QCURVE SMOOTH",
"2120 1140 OFFCURVE",
"2120 1000 QCURVE SMOOTH",
"2120 0 LINE",
"2370 0 LINE",
"2370 1000 LINE SMOOTH",
"2370 1300 OFFCURVE",
"1920 1300 QCURVE SMOOTH",
"1470 1300 OFFCURVE",
"1470 1000 QCURVE",
"1470 1000 LINE"
);
}
);
width = 2550;
}
);
note = uni178E;
unicode = 178E;
},
{
glyphname = uni178F;
layers = (
{
layerId = "4245090C-1DC1-4B2E-AF8E-CDB91B981D5B";
paths = (
{
closed = 1;
nodes = (
"100 1025 OFFCURVE",
"232 923 OFFCURVE",
"290 923 QCURVE SMOOTH",
"348 923 OFFCURVE",
"390 1017 QCURVE",
"370 1013 OFFCURVE",
"352 1013 QCURVE SMOOTH",
"307 1013 OFFCURVE",
"265 1090 QCURVE",
"282 1137 OFFCURVE",
"319 1137 QCURVE SMOOTH",
"356 1137 OFFCURVE",
"631 1012 QCURVE",
"702 1126 OFFCURVE",
"763 1126 QCURVE",
"912 997 OFFCURVE",
"1042 997 QCURVE SMOOTH",
"1091 997 OFFCURVE",
"1150 1106 OFFCURVE",
"1150 1178 QCURVE",
"1133 1161 OFFCURVE",
"1090 1161 QCURVE SMOOTH",
"1061 1161 OFFCURVE",
"900 1300 OFFCURVE",
"835 1300 QCURVE SMOOTH",
"764 1300 OFFCURVE",
"649 1199 QCURVE",
"509 1300 OFFCURVE",
"365 1300 QCURVE SMOOTH",
"302 1300 OFFCURVE",
"154 1186 OFFCURVE",
"100 1095 QCURVE",
"100 1095 LINE"
);
},
{
closed = 1;
nodes = (
"180 230 LINE SMOOTH",
"180 0 OFFCURVE",
"435 0 QCURVE SMOOTH",
"690 0 OFFCURVE",
"690 268 QCURVE SMOOTH",
"690 373 OFFCURVE",
"562 503 OFFCURVE",
"475 503 QCURVE",
"455 433 LINE",
"530 383 OFFCURVE",
"530 268 QCURVE SMOOTH",
"530 170 OFFCURVE",
"475 170 QCURVE SMOOTH",
"430 170 OFFCURVE",
"430 230 QCURVE SMOOTH",
"430 650 LINE SMOOTH",
"430 790 OFFCURVE",
"625 790 QCURVE SMOOTH",
"820 790 OFFCURVE",
"820 650 QCURVE SMOOTH",
"820 0 LINE",
"1070 0 LINE",
"1070 650 LINE SMOOTH",
"1070 950 OFFCURVE",
"625 950 QCURVE SMOOTH",
"180 950 OFFCURVE",
"180 650 QCURVE",
"180 650 LINE"
);
}
);
width = 1250;
}
);
note = uni178F;
unicode = 178F;
},
{
glyphname = uni1790;
layers = (
{
layerId = "4245090C-1DC1-4B2E-AF8E-CDB91B981D5B";
paths = (
{
closed = 1;
nodes = (
"430 963 LINE",
"297 1013 OFFCURVE",
"265 1060 QCURVE",
"302 1097 OFFCURVE",
"385 1107 QCURVE",
"446 1107 OFFCURVE",
"631 1009 OFFCURVE",
"740 1009 QCURVE SMOOTH",
"1070 1009 OFFCURVE",
"1070 1260 QCURVE SMOOTH",
"1070 1519 OFFCURVE",
"820 1519 QCURVE SMOOTH",
"660 1519 OFFCURVE",
"660 1424 QCURVE",
"820 1424 OFFCURVE",
"820 1260 QCURVE SMOOTH",
"820 1169 OFFCURVE",
"740 1169 QCURVE SMOOTH",
"679 1169 OFFCURVE",
"499 1300 OFFCURVE",
"385 1300 QCURVE SMOOTH",
"282 1300 OFFCURVE",
"134 1176 OFFCURVE",
"100 1095 QCURVE",
"100 965 OFFCURVE",
"180 909 QCURVE",
"180 300 LINE SMOOTH",
"180 0 OFFCURVE",
"625 0 QCURVE SMOOTH",
"1070 0 OFFCURVE",
"1070 300 QCURVE SMOOTH",
"1070 687 LINE SMOOTH",
"1070 900 OFFCURVE",
"868 900 QCURVE SMOOTH",
"665 900 OFFCURVE",
"665 726 QCURVE SMOOTH",
"665 625 OFFCURVE",
"772 575 QCURVE",
"808 625 LINE",
"772 652 OFFCURVE",
"772 699 QCURVE SMOOTH",
"772 732 OFFCURVE",
"791 732 QCURVE SMOOTH",
"820 732 OFFCURVE",
"820 687 QCURVE SMOOTH",
"820 300 LINE SMOOTH",
"820 160 OFFCURVE",
"625 160 QCURVE SMOOTH",
"430 160 OFFCURVE",
"430 300 QCURVE",
"430 300 LINE"
);
}
);
width = 1250;
}
);
note = uni1790;
unicode = 1790;
},
{
glyphname = uni1791;
layers = (
{
layerId = "4245090C-1DC1-4B2E-AF8E-CDB91B981D5B";
paths = (
{
closed = 1;
nodes = (
"430 953 LINE SMOOTH",
"430 1140 OFFCURVE",
"625 1140 QCURVE SMOOTH",
"820 1140 OFFCURVE",
"820 1003 QCURVE SMOOTH",
"820 968 OFFCURVE",
"791 968 QCURVE SMOOTH",
"762 968 OFFCURVE",
"748 1015 QCURVE",
"705 997 OFFCURVE",
"705 944 QCURVE SMOOTH",
"705 810 OFFCURVE",
"857 810 QCURVE SMOOTH",
"1070 810 OFFCURVE",
"1070 1003 QCURVE SMOOTH",
"1070 1300 OFFCURVE",
"625 1300 QCURVE SMOOTH",
"180 1300 OFFCURVE",
"180 953 QCURVE SMOOTH",
"180 880 LINE SMOOTH",
"180 679 OFFCURVE",
"469 477 OFFCURVE",
"700 477 QCURVE",
"700 260 LINE SMOOTH",
"700 160 OFFCURVE",
"590 160 QCURVE SMOOTH",
"480 160 OFFCURVE",
"480 260 QCURVE SMOOTH",
"480 407 LINE",
"230 407 LINE",
"230 260 LINE SMOOTH",
"230 0 OFFCURVE",
"590 0 QCURVE SMOOTH",
"950 0 OFFCURVE",
"950 260 QCURVE SMOOTH",
"950 477 LINE",
"1050 497 OFFCURVE",
"1050 597 QCURVE SMOOTH",
"1050 717 OFFCURVE",
"875 717 QCURVE",
"820 637 OFFCURVE",
"700 637 QCURVE SMOOTH",
"554 637 OFFCURVE",
"430 729 OFFCURVE",
"430 880 QCURVE",
"430 880 LINE"
);
}
);
width = 1250;
}
);
note = uni1791;
unicode = 1791;
},
{
glyphname = uni1792;
layers = (
{
layerId = "4245090C-1DC1-4B2E-AF8E-CDB91B981D5B";
paths = (
{
closed = 1;
nodes = (
"820 231 LINE",
"694 329 LINE SMOOTH",
"659 357 OFFCURVE",
"623 357 QCURVE SMOOTH",
"590 357 OFFCURVE",
"556 332 QCURVE SMOOTH",
"430 237 LINE",
"430 950 LINE",
"307 1013 OFFCURVE",
"265 1090 QCURVE",
"282 1137 OFFCURVE",
"319 1137 QCURVE SMOOTH",
"356 1137 OFFCURVE",
"631 1012 QCURVE",
"702 1126 OFFCURVE",
"763 1126 QCURVE",
"912 997 OFFCURVE",
"1042 997 QCURVE SMOOTH",
"1091 997 OFFCURVE",
"1150 1106 OFFCURVE",
"1150 1178 QCURVE",
"1133 1161 OFFCURVE",
"1090 1161 QCURVE SMOOTH",
"1061 1161 OFFCURVE",
"900 1300 OFFCURVE",
"835 1300 QCURVE SMOOTH",
"764 1300 OFFCURVE",
"649 1199 QCURVE",
"509 1300 OFFCURVE",
"365 1300 QCURVE SMOOTH",
"302 1300 OFFCURVE",
"154 1186 OFFCURVE",
"100 1095 QCURVE",
"100 1055 OFFCURVE",
"144 984 OFFCURVE",
"180 964 QCURVE",
"180 0 LINE",
"400 0 LINE",
"625 190 LINE",
"850 0 LINE",
"1070 0 LINE",
"1070 687 LINE SMOOTH",
"1070 900 OFFCURVE",
"868 900 QCURVE SMOOTH",
"665 900 OFFCURVE",
"665 726 QCURVE SMOOTH",
"665 625 OFFCURVE",
"772 575 QCURVE",
"808 625 LINE",
"772 652 OFFCURVE",
"772 699 QCURVE SMOOTH",
"772 732 OFFCURVE",
"791 732 QCURVE SMOOTH",
"820 732 OFFCURVE",
"820 687 QCURVE",
"820 687 LINE"
);
}
);
width = 1250;
}
);
note = uni1792;
unicode = 1792;
},
{
glyphname = uni1793;
layers = (
{
layerId = "4245090C-1DC1-4B2E-AF8E-CDB91B981D5B";
paths = (
{
closed = 1;
nodes = (
"430 1140 OFFCURVE",
"625 1140 QCURVE SMOOTH",
"820 1140 OFFCURVE",
"820 953 QCURVE SMOOTH",
"820 918 OFFCURVE",
"791 918 QCURVE SMOOTH",
"762 918 OFFCURVE",
"748 965 QCURVE",
"705 947 OFFCURVE",
"705 894 QCURVE SMOOTH",
"705 760 OFFCURVE",
"857 760 QCURVE SMOOTH",
"1070 760 OFFCURVE",
"1070 953 QCURVE SMOOTH",
"1070 1300 OFFCURVE",
"625 1300 QCURVE SMOOTH",
"180 1300 OFFCURVE",
"180 953 QCURVE SMOOTH",
"180 718 OFFCURVE",
"820 430 QCURVE",
"820 260 LINE SMOOTH",
"820 160 OFFCURVE",
"777 160 QCURVE SMOOTH",
"733 160 OFFCURVE",
"537 337 OFFCURVE",
"430 337 QCURVE",
"430 520 LINE",
"180 520 LINE",
"180 0 LINE",
"430 0 LINE",
"430 177 LINE",
"510 177 OFFCURVE",
"685 0 OFFCURVE",
"777 0 QCURVE SMOOTH",
"1070 0 OFFCURVE",
"1070 260 QCURVE SMOOTH",
"1070 495 LINE",
"430 782 OFFCURVE",
"430 953 QCURVE",
"430 953 LINE"
);
}
);
width = 1250;
}
);
note = uni1793;
unicode = 1793;
},
{
glyphname = uni1794;
layers = (
{
layerId = "4245090C-1DC1-4B2E-AF8E-CDB91B981D5B";
paths = (
{
closed = 1;
nodes = (
"180 300 LINE SMOOTH",
"180 0 OFFCURVE",
"625 0 QCURVE SMOOTH",
"1070 0 OFFCURVE",
"1070 300 QCURVE SMOOTH",
"1070 806 LINE SMOOTH",
"1070 932 OFFCURVE",
"856 991 QCURVE",
"879 1074 OFFCURVE",
"911 1074 QCURVE",
"990 1016 OFFCURVE",
"1065 1016 QCURVE SMOOTH",
"1180 1016 OFFCURVE",
"1200 1223 QCURVE",
"1173 1210 OFFCURVE",
"1134 1210 QCURVE SMOOTH",
"1104 1210 OFFCURVE",
"960 1300 OFFCURVE",
"898 1300 QCURVE SMOOTH",
"836 1300 OFFCURVE",
"714 1106 OFFCURVE",
"690 1004 QCURVE",
"730 882 LINE",
"820 862 OFFCURVE",
"820 756 QCURVE SMOOTH",
"820 300 LINE SMOOTH",
"820 160 OFFCURVE",
"625 160 QCURVE SMOOTH",
"430 160 OFFCURVE",
"430 300 QCURVE SMOOTH",
"430 806 LINE SMOOTH",
"430 932 OFFCURVE",
"216 991 QCURVE",
"239 1074 OFFCURVE",
"271 1074 QCURVE",
"350 1016 OFFCURVE",
"425 1016 QCURVE SMOOTH",
"540 1016 OFFCURVE",
"560 1223 QCURVE",
"533 1210 OFFCURVE",
"494 1210 QCURVE SMOOTH",
"464 1210 OFFCURVE",
"320 1300 OFFCURVE",
"258 1300 QCURVE SMOOTH",
"196 1300 OFFCURVE",
"74 1106 OFFCURVE",
"50 1004 QCURVE",
"90 882 LINE",
"180 862 OFFCURVE",
"180 756 QCURVE",
"180 756 LINE"
);
}
);
width = 1250;
}
);
note = uni1794;
unicode = 1794;
},
{
glyphname = uni1795;
layers = (
{
layerId = "4245090C-1DC1-4B2E-AF8E-CDB91B981D5B";
paths = (
{
closed = 1;
nodes = (
"1070 680 LINE SMOOTH",
"1070 910 OFFCURVE",
"840 910 QCURVE SMOOTH",
"610 910 OFFCURVE",
"610 692 QCURVE SMOOTH",
"610 617 OFFCURVE",
"718 517 OFFCURVE",
"755 517 QCURVE",
"795 587 LINE",
"750 617 OFFCURVE",
"750 692 QCURVE SMOOTH",
"750 740 OFFCURVE",
"785 740 QCURVE SMOOTH",
"820 740 OFFCURVE",
"820 680 QCURVE SMOOTH",
"820 231 LINE",
"694 329 LINE SMOOTH",
"659 357 OFFCURVE",
"623 357 QCURVE SMOOTH",
"590 357 OFFCURVE",
"556 332 QCURVE SMOOTH",
"430 237 LINE",
"430 963 LINE",
"297 1013 OFFCURVE",
"265 1060 QCURVE",
"302 1097 OFFCURVE",
"385 1107 QCURVE",
"446 1107 OFFCURVE",
"631 1009 OFFCURVE",
"740 1009 QCURVE SMOOTH",
"1070 1009 OFFCURVE",
"1070 1260 QCURVE SMOOTH",
"1070 1519 OFFCURVE",
"820 1519 QCURVE SMOOTH",
"660 1519 OFFCURVE",
"660 1424 QCURVE",
"820 1424 OFFCURVE",
"820 1260 QCURVE SMOOTH",
"820 1169 OFFCURVE",
"740 1169 QCURVE SMOOTH",
"679 1169 OFFCURVE",
"499 1300 OFFCURVE",
"385 1300 QCURVE SMOOTH",
"282 1300 OFFCURVE",
"134 1176 OFFCURVE",
"100 1095 QCURVE",
"100 965 OFFCURVE",
"180 909 QCURVE",
"180 0 LINE",
"400 0 LINE",
"625 190 LINE",
"850 0 LINE",
"1070 0 LINE",
"1070 0 LINE"
);
}
);
width = 1250;
}
);
note = uni1795;
unicode = 1795;
},
{
glyphname = uni1796;
layers = (
{
layerId = "4245090C-1DC1-4B2E-AF8E-CDB91B981D5B";
paths = (
{
closed = 1;
nodes = (
"180 230 LINE SMOOTH",
"180 0 OFFCURVE",
"435 0 QCURVE SMOOTH",
"690 0 OFFCURVE",
"690 268 QCURVE SMOOTH",
"690 373 OFFCURVE",
"562 503 OFFCURVE",
"475 503 QCURVE",
"455 433 LINE",
"530 383 OFFCURVE",
"530 268 QCURVE SMOOTH",
"530 170 OFFCURVE",
"475 170 QCURVE SMOOTH",
"430 170 OFFCURVE",
"430 230 QCURVE SMOOTH",
"430 1000 LINE SMOOTH",
"430 1098 OFFCURVE",
"483 1098 QCURVE SMOOTH",
"535 1098 OFFCURVE",
"583 1004 QCURVE SMOOTH",
"599 972 OFFCURVE",
"625 972 QCURVE SMOOTH",
"651 972 OFFCURVE",
"667 1004 QCURVE SMOOTH",
"716 1098 OFFCURVE",
"768 1098 QCURVE SMOOTH",
"820 1098 OFFCURVE",
"820 1000 QCURVE SMOOTH",
"820 0 LINE",
"1070 0 LINE",
"1070 1000 LINE SMOOTH",
"1070 1122 OFFCURVE",
"936 1300 OFFCURVE",
"828 1300 QCURVE SMOOTH",
"719 1300 OFFCURVE",
"625 1176 QCURVE",
"532 1300 OFFCURVE",
"424 1300 QCURVE SMOOTH",
"315 1300 OFFCURVE",
"180 1122 OFFCURVE",
"180 1000 QCURVE",
"180 1000 LINE"
);
}
);
width = 1250;
}
);
note = uni1796;
unicode = 1796;
},
{
glyphname = uni1797;
layers = (
{
layerId = "4245090C-1DC1-4B2E-AF8E-CDB91B981D5B";
paths = (
{
closed = 1;
nodes = (
"348 923 OFFCURVE",
"390 1017 QCURVE",
"370 1013 OFFCURVE",
"352 1013 QCURVE SMOOTH",
"307 1013 OFFCURVE",
"265 1090 QCURVE",
"282 1137 OFFCURVE",
"319 1137 QCURVE SMOOTH",
"356 1137 OFFCURVE",
"631 1012 QCURVE",
"702 1126 OFFCURVE",
"763 1126 QCURVE",
"912 997 OFFCURVE",
"1042 997 QCURVE SMOOTH",
"1091 997 OFFCURVE",
"1150 1106 OFFCURVE",
"1150 1178 QCURVE",
"1133 1161 OFFCURVE",
"1090 1161 QCURVE SMOOTH",
"1061 1161 OFFCURVE",
"900 1300 OFFCURVE",
"835 1300 QCURVE SMOOTH",
"764 1300 OFFCURVE",
"649 1199 QCURVE",
"509 1300 OFFCURVE",
"365 1300 QCURVE SMOOTH",
"302 1300 OFFCURVE",
"154 1186 OFFCURVE",
"100 1095 QCURVE",
"100 1025 OFFCURVE",
"232 923 OFFCURVE",
"290 923 QCURVE",
"290 923 LINE"
);
},
{
closed = 1;
nodes = (
"430 650 LINE SMOOTH",
"430 790 OFFCURVE",
"625 790 QCURVE SMOOTH",
"820 790 OFFCURVE",
"820 650 QCURVE SMOOTH",
"820 0 LINE",
"1070 0 LINE",
"1070 650 LINE SMOOTH",
"1070 950 OFFCURVE",
"625 950 QCURVE SMOOTH",
"180 950 OFFCURVE",
"180 650 QCURVE SMOOTH",
"180 600 LINE SMOOTH",
"180 487 OFFCURVE",
"290 267 OFFCURVE",
"290 214 QCURVE SMOOTH",
"290 170 OFFCURVE",
"246 170 QCURVE SMOOTH",
"190 170 OFFCURVE",
"190 247 QCURVE SMOOTH",
"190 324 OFFCURVE",
"208 365 QCURVE",
"195 389 OFFCURVE",
"171 389 QCURVE SMOOTH",
"151 389 OFFCURVE",
"122 371 QCURVE SMOOTH",
"60 333 OFFCURVE",
"60 223 QCURVE SMOOTH",
"60 0 OFFCURVE",
"266 0 QCURVE SMOOTH",
"520 0 OFFCURVE",
"520 214 QCURVE SMOOTH",
"520 308 OFFCURVE",
"430 520 OFFCURVE",
"430 600 QCURVE",
"430 600 LINE"
);
}
);
width = 1250;
}
);
note = uni1797;
unicode = 1797;
},
{
glyphname = uni1798;
layers = (
{
layerId = "4245090C-1DC1-4B2E-AF8E-CDB91B981D5B";
paths = (
{
closed = 1;
nodes = (
"820 522 LINE",
"820 300 LINE SMOOTH",
"820 160 OFFCURVE",
"625 160 QCURVE SMOOTH",
"430 160 OFFCURVE",
"430 300 QCURVE SMOOTH",
"430 522 LINE",
"430 522 LINE"
);
},
{
closed = 1;
nodes = (
"430 806 LINE SMOOTH",
"430 932 OFFCURVE",
"216 991 QCURVE",
"239 1074 OFFCURVE",
"271 1074 QCURVE",
"350 1016 OFFCURVE",
"425 1016 QCURVE SMOOTH",
"540 1016 OFFCURVE",
"560 1223 QCURVE",
"533 1210 OFFCURVE",
"494 1210 QCURVE SMOOTH",
"464 1210 OFFCURVE",
"320 1300 OFFCURVE",
"258 1300 QCURVE SMOOTH",
"196 1300 OFFCURVE",
"74 1106 OFFCURVE",
"50 1004 QCURVE",
"90 882 LINE",
"180 862 OFFCURVE",
"180 756 QCURVE SMOOTH",
"180 300 LINE SMOOTH",
"180 0 OFFCURVE",
"625 0 QCURVE SMOOTH",
"1070 0 OFFCURVE",
"1070 300 QCURVE SMOOTH",
"1070 806 LINE SMOOTH",
"1070 932 OFFCURVE",
"856 991 QCURVE",
"879 1074 OFFCURVE",
"911 1074 QCURVE",
"990 1016 OFFCURVE",
"1065 1016 QCURVE SMOOTH",
"1180 1016 OFFCURVE",
"1200 1223 QCURVE",
"1173 1210 OFFCURVE",
"1134 1210 QCURVE SMOOTH",
"1104 1210 OFFCURVE",
"960 1300 OFFCURVE",
"898 1300 QCURVE SMOOTH",
"836 1300 OFFCURVE",
"714 1106 OFFCURVE",
"690 1004 QCURVE",
"730 882 LINE",
"820 862 OFFCURVE",
"820 756 QCURVE SMOOTH",
"820 682 LINE",
"430 682 LINE",
"430 682 LINE"
);
}
);
width = 1250;
}
);
note = uni1798;
unicode = 1798;
},
{
glyphname = uni1799;
layers = (
{
layerId = "4245090C-1DC1-4B2E-AF8E-CDB91B981D5B";
paths = (
{
closed = 1;
nodes = (
"180 300 LINE SMOOTH",
"180 0 OFFCURVE",
"645 0 QCURVE SMOOTH",
"877 0 OFFCURVE",
"985 65 QCURVE",
"1093 0 OFFCURVE",
"1295 0 QCURVE SMOOTH",
"1730 0 OFFCURVE",
"1730 300 QCURVE SMOOTH",
"1730 806 LINE SMOOTH",
"1730 932 OFFCURVE",
"1516 991 QCURVE",
"1539 1074 OFFCURVE",
"1571 1074 QCURVE",
"1650 1016 OFFCURVE",
"1725 1016 QCURVE SMOOTH",
"1840 1016 OFFCURVE",
"1860 1223 QCURVE",
"1833 1210 OFFCURVE",
"1794 1210 QCURVE SMOOTH",
"1764 1210 OFFCURVE",
"1620 1300 OFFCURVE",
"1558 1300 QCURVE SMOOTH",
"1496 1300 OFFCURVE",
"1374 1106 OFFCURVE",
"1350 1004 QCURVE",
"1390 882 LINE",
"1480 862 OFFCURVE",
"1480 756 QCURVE SMOOTH",
"1480 300 LINE SMOOTH",
"1480 160 OFFCURVE",
"1295 160 QCURVE SMOOTH",
"1110 160 OFFCURVE",
"1110 300 QCURVE SMOOTH",
"1110 806 LINE SMOOTH",
"1110 932 OFFCURVE",
"896 991 QCURVE",
"919 1074 OFFCURVE",
"951 1074 QCURVE",
"1030 1016 OFFCURVE",
"1105 1016 QCURVE SMOOTH",
"1220 1016 OFFCURVE",
"1240 1223 QCURVE",
"1213 1210 OFFCURVE",
"1174 1210 QCURVE SMOOTH",
"1144 1210 OFFCURVE",
"1000 1300 OFFCURVE",
"938 1300 QCURVE SMOOTH",
"876 1300 OFFCURVE",
"754 1106 OFFCURVE",
"730 1004 QCURVE",
"770 882 LINE",
"860 862 OFFCURVE",
"860 756 QCURVE SMOOTH",
"860 300 LINE SMOOTH",
"860 160 OFFCURVE",
"645 160 QCURVE SMOOTH",
"430 160 OFFCURVE",
"430 300 QCURVE SMOOTH",
"430 1070 LINE SMOOTH",
"430 1130 OFFCURVE",
"465 1130 QCURVE SMOOTH",
"500 1130 OFFCURVE",
"500 1032 QCURVE SMOOTH",
"500 917 OFFCURVE",
"455 867 QCURVE",
"485 807 LINE",
"552 807 OFFCURVE",
"650 927 OFFCURVE",
"650 1032 QCURVE SMOOTH",
"650 1300 OFFCURVE",
"420 1300 QCURVE SMOOTH",
"180 1300 OFFCURVE",
"180 1070 QCURVE",
"180 1070 LINE"
);
}
);
width = 1910;
}
);
note = uni1799;
unicode = 1799;
},
{
glyphname = uni179A;
layers = (
{
layerId = "4245090C-1DC1-4B2E-AF8E-CDB91B981D5B";
paths = (
{
closed = 1;
nodes = (
"510 786 LINE SMOOTH",
"510 912 OFFCURVE",
"216 991 QCURVE",
"239 1074 OFFCURVE",
"311 1074 QCURVE",
"390 1016 OFFCURVE",
"505 1016 QCURVE SMOOTH",
"620 1016 OFFCURVE",
"640 1223 QCURVE",
"613 1210 OFFCURVE",
"574 1210 QCURVE SMOOTH",
"544 1210 OFFCURVE",
"360 1300 OFFCURVE",
"298 1300 QCURVE SMOOTH",
"216 1300 OFFCURVE",
"74 1106 OFFCURVE",
"50 1004 QCURVE",
"90 882 LINE",
"180 862 OFFCURVE",
"260 756 QCURVE",
"260 210 LINE SMOOTH",
"260 170 OFFCURVE",
"225 170 QCURVE SMOOTH",
"200 170 OFFCURVE",
"200 218 QCURVE SMOOTH",
"200 333 OFFCURVE",
"245 383 QCURVE",
"225 433 LINE",
"128 433 OFFCURVE",
"50 303 OFFCURVE",
"50 218 QCURVE SMOOTH",
"50 0 OFFCURVE",
"275 0 QCURVE SMOOTH",
"510 0 OFFCURVE",
"510 210 QCURVE",
"510 210 LINE"
);
}
);
width = 690;
}
);
note = uni179A;
unicode = 179A;
},
{
glyphname = uni179B;
layers = (
{
layerId = "4245090C-1DC1-4B2E-AF8E-CDB91B981D5B";
paths = (
{
closed = 1;
nodes = (
"1670 806 LINE SMOOTH",
"1670 932 OFFCURVE",
"1456 991 QCURVE",
"1479 1074 OFFCURVE",
"1511 1074 QCURVE",
"1590 1016 OFFCURVE",
"1665 1016 QCURVE SMOOTH",
"1780 1016 OFFCURVE",
"1800 1223 QCURVE",
"1773 1210 OFFCURVE",
"1734 1210 QCURVE SMOOTH",
"1704 1210 OFFCURVE",
"1560 1300 OFFCURVE",
"1498 1300 QCURVE SMOOTH",
"1436 1300 OFFCURVE",
"1314 1106 OFFCURVE",
"1290 1004 QCURVE",
"1330 882 LINE",
"1420 862 OFFCURVE",
"1420 756 QCURVE SMOOTH",
"1420 300 LINE SMOOTH",
"1420 160 OFFCURVE",
"1250 160 QCURVE SMOOTH",
"1080 160 OFFCURVE",
"1080 300 QCURVE SMOOTH",
"1080 1000 LINE SMOOTH",
"1080 1300 OFFCURVE",
"630 1300 QCURVE SMOOTH",
"180 1300 OFFCURVE",
"180 1000 QCURVE SMOOTH",
"180 230 LINE SMOOTH",
"180 0 OFFCURVE",
"435 0 QCURVE SMOOTH",
"690 0 OFFCURVE",
"690 268 QCURVE SMOOTH",
"690 373 OFFCURVE",
"562 503 OFFCURVE",
"475 503 QCURVE",
"455 433 LINE",
"530 383 OFFCURVE",
"530 268 QCURVE SMOOTH",
"530 170 OFFCURVE",
"475 170 QCURVE SMOOTH",
"430 170 OFFCURVE",
"430 230 QCURVE SMOOTH",
"430 1000 LINE SMOOTH",
"430 1140 OFFCURVE",
"630 1140 QCURVE SMOOTH",
"830 1140 OFFCURVE",
"830 1000 QCURVE SMOOTH",
"830 300 LINE SMOOTH",
"830 0 OFFCURVE",
"1250 0 QCURVE SMOOTH",
"1670 0 OFFCURVE",
"1670 300 QCURVE",
"1670 300 LINE"
);
}
);
width = 1850;
}
);
note = uni179B;
unicode = 179B;
},
{
glyphname = uni179C;
layers = (
{
layerId = "4245090C-1DC1-4B2E-AF8E-CDB91B981D5B";
paths = (
{
closed = 1;
nodes = (
"351 1300 OFFCURVE",
"298 1300 QCURVE SMOOTH",
"216 1300 OFFCURVE",
"74 1106 OFFCURVE",
"50 1004 QCURVE",
"90 882 LINE",
"180 862 OFFCURVE",
"260 756 QCURVE",
"260 210 LINE SMOOTH",
"260 170 OFFCURVE",
"225 170 QCURVE SMOOTH",
"200 170 OFFCURVE",
"200 218 QCURVE SMOOTH",
"200 333 OFFCURVE",
"245 383 QCURVE",
"225 433 LINE",
"128 433 OFFCURVE",
"50 303 OFFCURVE",
"50 218 QCURVE SMOOTH",
"50 0 OFFCURVE",
"275 0 QCURVE SMOOTH",
"510 0 OFFCURVE",
"510 210 QCURVE SMOOTH",
"510 786 LINE SMOOTH",
"510 912 OFFCURVE",
"216 991 QCURVE",
"239 1074 OFFCURVE",
"311 1074 QCURVE",
"390 1016 OFFCURVE",
"505 1016 QCURVE SMOOTH",
"640 1016 OFFCURVE",
"640 1320 QCURVE SMOOTH",
"640 1449 OFFCURVE",
"477 1580 OFFCURVE",
"355 1580 QCURVE SMOOTH",
"263 1580 OFFCURVE",
"201 1442 QCURVE",
"341 1441 OFFCURVE",
"440 1390 OFFCURVE",
"440 1320 QCURVE SMOOTH",
"440 1289 OFFCURVE",
"426 1267 QCURVE",
"426 1267 LINE"
);
}
);
width = 690;
}
);
note = uni179C;
unicode = 179C;
},
{
glyphname = uni179D;
layers = (
{
layerId = "4245090C-1DC1-4B2E-AF8E-CDB91B981D5B";
paths = (
{
closed = 1;
nodes = (
"1070 650 LINE SMOOTH",
"1070 950 OFFCURVE",
"625 950 QCURVE SMOOTH",
"180 950 OFFCURVE",
"180 650 QCURVE SMOOTH",
"180 0 LINE",
"430 0 LINE",
"430 184 LINE",
"468 260 OFFCURVE",
"510 260 QCURVE SMOOTH",
"590 260 OFFCURVE",
"590 160 QCURVE",
"720 160 OFFCURVE",
"720 305 QCURVE SMOOTH",
"720 460 OFFCURVE",
"580 460 QCURVE SMOOTH",
"491 460 OFFCURVE",
"430 371 QCURVE",
"430 650 LINE SMOOTH",
"430 790 OFFCURVE",
"625 790 QCURVE SMOOTH",
"820 790 OFFCURVE",
"820 650 QCURVE SMOOTH",
"820 457 LINE",
"750 457 LINE",
"750 297 LINE",
"820 297 LINE",
"820 0 LINE",
"1070 0 LINE",
"1070 297 LINE",
"1200 297 LINE",
"1200 457 LINE",
"1070 457 LINE",
"1070 457 LINE"
);
},
{
closed = 1;
nodes = (
"100 1025 OFFCURVE",
"232 923 OFFCURVE",
"290 923 QCURVE SMOOTH",
"348 923 OFFCURVE",
"390 1017 QCURVE",
"370 1013 OFFCURVE",
"352 1013 QCURVE SMOOTH",
"307 1013 OFFCURVE",
"265 1090 QCURVE",
"282 1137 OFFCURVE",
"319 1137 QCURVE SMOOTH",
"356 1137 OFFCURVE",
"631 1012 QCURVE",
"702 1126 OFFCURVE",
"763 1126 QCURVE",
"912 997 OFFCURVE",
"1042 997 QCURVE SMOOTH",
"1091 997 OFFCURVE",
"1150 1106 OFFCURVE",
"1150 1178 QCURVE",
"1133 1161 OFFCURVE",
"1090 1161 QCURVE SMOOTH",
"1061 1161 OFFCURVE",
"900 1300 OFFCURVE",
"835 1300 QCURVE SMOOTH",
"764 1300 OFFCURVE",
"649 1199 QCURVE",
"509 1300 OFFCURVE",
"365 1300 QCURVE SMOOTH",
"302 1300 OFFCURVE",
"154 1186 OFFCURVE",
"100 1095 QCURVE",
"100 1095 LINE"
);
}
);
width = 1250;
}
);
note = uni179D;
unicode = 179D;
},
{
glyphname = uni179E;
layers = (
{
layerId = "4245090C-1DC1-4B2E-AF8E-CDB91B981D5B";
paths = (
{
closed = 1;
nodes = (
"1070 806 LINE SMOOTH",
"1070 932 OFFCURVE",
"856 991 QCURVE",
"879 1074 OFFCURVE",
"911 1074 QCURVE",
"990 1016 OFFCURVE",
"1065 1016 QCURVE SMOOTH",
"1180 1016 OFFCURVE",
"1200 1223 QCURVE",
"1173 1210 OFFCURVE",
"1134 1210 QCURVE SMOOTH",
"1104 1210 OFFCURVE",
"960 1300 OFFCURVE",
"898 1300 QCURVE SMOOTH",
"836 1300 OFFCURVE",
"714 1106 OFFCURVE",
"690 1004 QCURVE",
"730 882 LINE",
"820 862 OFFCURVE",
"820 756 QCURVE SMOOTH",
"820 620 LINE",
"700 620 LINE",
"700 460 LINE",
"820 460 LINE",
"820 300 LINE SMOOTH",
"820 160 OFFCURVE",
"625 160 QCURVE SMOOTH",
"430 160 OFFCURVE",
"430 300 QCURVE SMOOTH",
"430 806 LINE SMOOTH",
"430 932 OFFCURVE",
"216 991 QCURVE",
"239 1074 OFFCURVE",
"271 1074 QCURVE",
"350 1016 OFFCURVE",
"425 1016 QCURVE SMOOTH",
"540 1016 OFFCURVE",
"560 1223 QCURVE",
"533 1210 OFFCURVE",
"494 1210 QCURVE SMOOTH",
"464 1210 OFFCURVE",
"320 1300 OFFCURVE",
"258 1300 QCURVE SMOOTH",
"196 1300 OFFCURVE",
"74 1106 OFFCURVE",
"50 1004 QCURVE",
"90 882 LINE",
"180 862 OFFCURVE",
"180 756 QCURVE SMOOTH",
"180 300 LINE SMOOTH",
"180 0 OFFCURVE",
"625 0 QCURVE SMOOTH",
"1070 0 OFFCURVE",
"1070 300 QCURVE SMOOTH",
"1070 460 LINE",
"1200 460 LINE",
"1200 620 LINE",
"1070 620 LINE",
"1070 620 LINE"
);
}
);
width = 1250;
}
);
note = uni179E;
unicode = 179E;
},
{
glyphname = uni179F;
layers = (
{
layerId = "4245090C-1DC1-4B2E-AF8E-CDB91B981D5B";
paths = (
{
closed = 1;
nodes = (
"511 972 OFFCURVE",
"396 1011 QCURVE",
"449 1074 OFFCURVE",
"521 1074 QCURVE",
"620 1016 OFFCURVE",
"715 1016 QCURVE SMOOTH",
"860 1016 OFFCURVE",
"880 1223 QCURVE",
"853 1210 OFFCURVE",
"794 1210 QCURVE SMOOTH",
"754 1210 OFFCURVE",
"570 1300 OFFCURVE",
"508 1300 QCURVE SMOOTH",
"426 1300 OFFCURVE",
"264 1116 OFFCURVE",
"230 1034 QCURVE",
"270 912 LINE",
"313 903 OFFCURVE",
"352 886 QCURVE",
"180 815 OFFCURVE",
"180 630 QCURVE SMOOTH",
"180 230 LINE SMOOTH",
"180 0 OFFCURVE",
"435 0 QCURVE SMOOTH",
"690 0 OFFCURVE",
"690 268 QCURVE SMOOTH",
"690 373 OFFCURVE",
"562 503 OFFCURVE",
"475 503 QCURVE",
"455 433 LINE",
"530 383 OFFCURVE",
"530 268 QCURVE SMOOTH",
"530 170 OFFCURVE",
"475 170 QCURVE SMOOTH",
"430 170 OFFCURVE",
"430 230 QCURVE SMOOTH",
"430 630 LINE SMOOTH",
"430 770 OFFCURVE",
"630 770 QCURVE SMOOTH",
"830 770 OFFCURVE",
"830 630 QCURVE SMOOTH",
"830 300 LINE SMOOTH",
"830 0 OFFCURVE",
"1250 0 QCURVE SMOOTH",
"1670 0 OFFCURVE",
"1670 300 QCURVE SMOOTH",
"1670 806 LINE SMOOTH",
"1670 932 OFFCURVE",
"1456 991 QCURVE",
"1479 1074 OFFCURVE",
"1511 1074 QCURVE",
"1590 1016 OFFCURVE",
"1665 1016 QCURVE SMOOTH",
"1780 1016 OFFCURVE",
"1800 1223 QCURVE",
"1773 1210 OFFCURVE",
"1734 1210 QCURVE SMOOTH",
"1704 1210 OFFCURVE",
"1560 1300 OFFCURVE",
"1498 1300 QCURVE SMOOTH",
"1436 1300 OFFCURVE",
"1314 1106 OFFCURVE",
"1290 1004 QCURVE",
"1330 882 LINE",
"1420 862 OFFCURVE",
"1420 756 QCURVE SMOOTH",
"1420 300 LINE SMOOTH",
"1420 160 OFFCURVE",
"1250 160 QCURVE SMOOTH",
"1080 160 OFFCURVE",
"1080 300 QCURVE SMOOTH",
"1080 630 LINE SMOOTH",
"1080 930 OFFCURVE",
"630 930 QCURVE SMOOTH",
"605 930 OFFCURVE",
"582 929 QCURVE",
"582 929 LINE"
);
}
);
width = 1850;
}
);
note = uni179F;
unicode = 179F;
},
{
glyphname = uni17A0;
layers = (
{
layerId = "4245090C-1DC1-4B2E-AF8E-CDB91B981D5B";
paths = (
{
closed = 1;
nodes = (
"1050 1000 LINE SMOOTH",
"1050 1140 OFFCURVE",
"1235 1140 QCURVE SMOOTH",
"1420 1140 OFFCURVE",
"1420 1000 QCURVE SMOOTH",
"1420 0 LINE",
"1670 0 LINE",
"1670 1000 LINE SMOOTH",
"1670 1300 OFFCURVE",
"1235 1300 QCURVE SMOOTH",
"800 1300 OFFCURVE",
"800 1000 QCURVE SMOOTH",
"800 300 LINE SMOOTH",
"800 160 OFFCURVE",
"615 160 QCURVE SMOOTH",
"430 160 OFFCURVE",
"430 300 QCURVE SMOOTH",
"430 806 LINE SMOOTH",
"430 932 OFFCURVE",
"216 991 QCURVE",
"239 1074 OFFCURVE",
"271 1074 QCURVE",
"350 1016 OFFCURVE",
"425 1016 QCURVE SMOOTH",
"540 1016 OFFCURVE",
"560 1223 QCURVE",
"533 1210 OFFCURVE",
"494 1210 QCURVE SMOOTH",
"464 1210 OFFCURVE",
"320 1300 OFFCURVE",
"258 1300 QCURVE SMOOTH",
"196 1300 OFFCURVE",
"74 1106 OFFCURVE",
"50 1004 QCURVE",
"90 882 LINE",
"180 862 OFFCURVE",
"180 756 QCURVE SMOOTH",
"180 300 LINE SMOOTH",
"180 0 OFFCURVE",
"615 0 QCURVE SMOOTH",
"1050 0 OFFCURVE",
"1050 300 QCURVE",
"1050 300 LINE"
);
}
);
width = 1850;
}
);
note = uni17A0;
unicode = 17A0;
},
{
glyphname = uni17A1;
layers = (
{
layerId = "4245090C-1DC1-4B2E-AF8E-CDB91B981D5B";
paths = (
{
closed = 1;
nodes = (
"430 953 LINE SMOOTH",
"430 1140 OFFCURVE",
"625 1140 QCURVE SMOOTH",
"820 1140 OFFCURVE",
"820 1003 QCURVE SMOOTH",
"820 968 OFFCURVE",
"791 968 QCURVE SMOOTH",
"762 968 OFFCURVE",
"748 1015 QCURVE",
"705 997 OFFCURVE",
"705 944 QCURVE SMOOTH",
"705 810 OFFCURVE",
"857 810 QCURVE SMOOTH",
"1070 810 OFFCURVE",
"1070 1003 QCURVE SMOOTH",
"1070 1300 OFFCURVE",
"625 1300 QCURVE SMOOTH",
"180 1300 OFFCURVE",
"180 953 QCURVE SMOOTH",
"180 880 LINE SMOOTH",
"180 679 OFFCURVE",
"469 477 OFFCURVE",
"700 477 QCURVE",
"700 260 LINE SMOOTH",
"700 160 OFFCURVE",
"590 160 QCURVE SMOOTH",
"480 160 OFFCURVE",
"480 260 QCURVE SMOOTH",
"480 407 LINE",
"230 407 LINE",
"230 260 LINE SMOOTH",
"230 0 OFFCURVE",
"590 0 QCURVE SMOOTH",
"950 0 OFFCURVE",
"950 260 QCURVE SMOOTH",
"950 477 LINE",
"1050 497 OFFCURVE",
"1050 597 QCURVE SMOOTH",
"1050 717 OFFCURVE",
"875 717 QCURVE",
"820 637 OFFCURVE",
"700 637 QCURVE SMOOTH",
"554 637 OFFCURVE",
"430 729 OFFCURVE",
"430 880 QCURVE",
"430 880 LINE"
);
},
{
closed = 1;
nodes = (
"1370 -320 LINE",
"1284 -227 OFFCURVE",
"1231 -227 QCURVE SMOOTH",
"1177 -227 OFFCURVE",
"1090 -320 QCURVE",
"1090 -213 LINE SMOOTH",
"1090 -60 OFFCURVE",
"905 -60 QCURVE SMOOTH",
"720 -60 OFFCURVE",
"720 -234 QCURVE",
"738 -216 OFFCURVE",
"784 -216 QCURVE SMOOTH",
"840 -216 OFFCURVE",
"840 -268 QCURVE SMOOTH",
"840 -550 LINE",
"1060 -550 LINE",
"1205 -392 OFFCURVE",
"1230 -392 QCURVE SMOOTH",
"1255 -392 OFFCURVE",
"1400 -550 QCURVE",
"1620 -550 LINE",
"1620 806 LINE SMOOTH",
"1620 932 OFFCURVE",
"1406 991 QCURVE",
"1429 1074 OFFCURVE",
"1461 1074 QCURVE",
"1540 1016 OFFCURVE",
"1615 1016 QCURVE SMOOTH",
"1730 1016 OFFCURVE",
"1750 1223 QCURVE",
"1723 1210 OFFCURVE",
"1684 1210 QCURVE SMOOTH",
"1654 1210 OFFCURVE",
"1510 1300 OFFCURVE",
"1448 1300 QCURVE SMOOTH",
"1386 1300 OFFCURVE",
"1264 1106 OFFCURVE",
"1240 1004 QCURVE",
"1280 882 LINE",
"1370 862 OFFCURVE",
"1370 756 QCURVE",
"1370 756 LINE"
);
}
);
width = 1800;
}
);
note = uni17A1;
unicode = 17A1;
},
{
glyphname = uni17A2;
layers = (
{
layerId = "4245090C-1DC1-4B2E-AF8E-CDB91B981D5B";
paths = (
{
closed = 1;
nodes = (
"510 682 LINE",
"510 786 LINE SMOOTH",
"510 912 OFFCURVE",
"216 991 QCURVE",
"239 1074 OFFCURVE",
"311 1074 QCURVE",
"390 1016 OFFCURVE",
"475 1016 QCURVE SMOOTH",
"590 1016 OFFCURVE",
"610 1223 QCURVE",
"583 1210 OFFCURVE",
"544 1210 QCURVE SMOOTH",
"514 1210 OFFCURVE",
"360 1300 OFFCURVE",
"298 1300 QCURVE SMOOTH",
"216 1300 OFFCURVE",
"74 1106 OFFCURVE",
"50 1004 QCURVE",
"90 882 LINE",
"180 862 OFFCURVE",
"260 756 QCURVE",
"260 210 LINE SMOOTH",
"260 170 OFFCURVE",
"225 170 QCURVE SMOOTH",
"200 170 OFFCURVE",
"200 218 QCURVE SMOOTH",
"200 333 OFFCURVE",
"245 383 QCURVE",
"225 433 LINE",
"128 433 OFFCURVE",
"50 303 OFFCURVE",
"50 218 QCURVE SMOOTH",
"50 0 OFFCURVE",
"275 0 QCURVE SMOOTH",
"510 0 OFFCURVE",
"510 210 QCURVE SMOOTH",
"510 522 LINE",
"900 522 LINE",
"900 210 LINE SMOOTH",
"900 170 OFFCURVE",
"865 170 QCURVE SMOOTH",
"840 170 OFFCURVE",
"840 218 QCURVE SMOOTH",
"840 333 OFFCURVE",
"885 383 QCURVE",
"865 433 LINE",
"768 433 OFFCURVE",
"690 303 OFFCURVE",
"690 218 QCURVE SMOOTH",
"690 0 OFFCURVE",
"915 0 QCURVE SMOOTH",
"1150 0 OFFCURVE",
"1150 210 QCURVE SMOOTH",
"1150 786 LINE SMOOTH",
"1150 912 OFFCURVE",
"856 991 QCURVE",
"879 1074 OFFCURVE",
"951 1074 QCURVE",
"1030 1016 OFFCURVE",
"1145 1016 QCURVE SMOOTH",
"1260 1016 OFFCURVE",
"1280 1223 QCURVE",
"1253 1210 OFFCURVE",
"1214 1210 QCURVE SMOOTH",
"1184 1210 OFFCURVE",
"1000 1300 OFFCURVE",
"938 1300 QCURVE SMOOTH",
"856 1300 OFFCURVE",
"714 1106 OFFCURVE",
"690 1004 QCURVE",
"730 882 LINE",
"820 862 OFFCURVE",
"900 756 QCURVE",
"900 682 LINE",
"900 682 LINE"
);
}
);
width = 1330;
}
);
note = uni17A2;
unicode = 17A2;
},
{
glyphname = uni17A3;
layers = (
{
layerId = "4245090C-1DC1-4B2E-AF8E-CDB91B981D5B";
paths = (
{
closed = 1;
nodes = (
"510 682 LINE",
"510 786 LINE SMOOTH",
"510 912 OFFCURVE",
"216 991 QCURVE",
"239 1074 OFFCURVE",
"311 1074 QCURVE",
"390 1016 OFFCURVE",
"475 1016 QCURVE SMOOTH",
"590 1016 OFFCURVE",
"610 1223 QCURVE",
"583 1210 OFFCURVE",
"544 1210 QCURVE SMOOTH",
"514 1210 OFFCURVE",
"360 1300 OFFCURVE",
"298 1300 QCURVE SMOOTH",
"216 1300 OFFCURVE",
"74 1106 OFFCURVE",
"50 1004 QCURVE",
"90 882 LINE",
"180 862 OFFCURVE",
"260 756 QCURVE",
"260 210 LINE SMOOTH",
"260 170 OFFCURVE",
"225 170 QCURVE SMOOTH",
"200 170 OFFCURVE",
"200 218 QCURVE SMOOTH",
"200 333 OFFCURVE",
"245 383 QCURVE",
"225 433 LINE",
"128 433 OFFCURVE",
"50 303 OFFCURVE",
"50 218 QCURVE SMOOTH",
"50 0 OFFCURVE",
"275 0 QCURVE SMOOTH",
"510 0 OFFCURVE",
"510 210 QCURVE SMOOTH",
"510 522 LINE",
"900 522 LINE",
"900 210 LINE SMOOTH",
"900 170 OFFCURVE",
"865 170 QCURVE SMOOTH",
"840 170 OFFCURVE",
"840 218 QCURVE SMOOTH",
"840 333 OFFCURVE",
"885 383 QCURVE",
"865 433 LINE",
"768 433 OFFCURVE",
"690 303 OFFCURVE",
"690 218 QCURVE SMOOTH",
"690 0 OFFCURVE",
"915 0 QCURVE SMOOTH",
"1150 0 OFFCURVE",
"1150 210 QCURVE SMOOTH",
"1150 786 LINE SMOOTH",
"1150 912 OFFCURVE",
"856 991 QCURVE",
"879 1074 OFFCURVE",
"951 1074 QCURVE",
"1030 1016 OFFCURVE",
"1145 1016 QCURVE SMOOTH",
"1260 1016 OFFCURVE",
"1280 1223 QCURVE",
"1253 1210 OFFCURVE",
"1214 1210 QCURVE SMOOTH",
"1184 1210 OFFCURVE",
"1000 1300 OFFCURVE",
"938 1300 QCURVE SMOOTH",
"856 1300 OFFCURVE",
"714 1106 OFFCURVE",
"690 1004 QCURVE",
"730 882 LINE",
"820 862 OFFCURVE",
"900 756 QCURVE",
"900 682 LINE",
"900 682 LINE"
);
}
);
width = 1330;
}
);
note = uni17A3;
unicode = 17A3;
},
{
glyphname = uni17A4;
layers = (
{
layerId = "4245090C-1DC1-4B2E-AF8E-CDB91B981D5B";
paths = (
{
closed = 1;
nodes = (
"1225 1109 OFFCURVE",
"1490 966 OFFCURVE",
"1490 928 QCURVE SMOOTH",
"1490 0 LINE",
"1740 0 LINE",
"1740 928 LINE SMOOTH",
"1740 1073 OFFCURVE",
"1342 1300 OFFCURVE",
"1094 1300 QCURVE SMOOTH",
"946 1300 OFFCURVE",
"714 1106 OFFCURVE",
"690 1004 QCURVE",
"730 882 LINE",
"820 862 OFFCURVE",
"900 756 QCURVE",
"900 682 LINE",
"510 682 LINE",
"510 786 LINE SMOOTH",
"510 912 OFFCURVE",
"216 991 QCURVE",
"239 1074 OFFCURVE",
"311 1074 QCURVE",
"390 1016 OFFCURVE",
"475 1016 QCURVE SMOOTH",
"590 1016 OFFCURVE",
"610 1223 QCURVE",
"583 1210 OFFCURVE",
"544 1210 QCURVE SMOOTH",
"514 1210 OFFCURVE",
"360 1300 OFFCURVE",
"298 1300 QCURVE SMOOTH",
"216 1300 OFFCURVE",
"74 1106 OFFCURVE",
"50 1004 QCURVE",
"90 882 LINE",
"180 862 OFFCURVE",
"260 756 QCURVE",
"260 210 LINE SMOOTH",
"260 170 OFFCURVE",
"225 170 QCURVE SMOOTH",
"200 170 OFFCURVE",
"200 218 QCURVE SMOOTH",
"200 333 OFFCURVE",
"245 383 QCURVE",
"225 433 LINE",
"128 433 OFFCURVE",
"50 303 OFFCURVE",
"50 218 QCURVE SMOOTH",
"50 0 OFFCURVE",
"275 0 QCURVE SMOOTH",
"510 0 OFFCURVE",
"510 210 QCURVE SMOOTH",
"510 522 LINE",
"900 522 LINE",
"900 210 LINE SMOOTH",
"900 170 OFFCURVE",
"865 170 QCURVE SMOOTH",
"840 170 OFFCURVE",
"840 218 QCURVE SMOOTH",
"840 333 OFFCURVE",
"885 383 QCURVE",
"865 433 LINE",
"768 433 OFFCURVE",
"690 303 OFFCURVE",
"690 218 QCURVE SMOOTH",
"690 0 OFFCURVE",
"915 0 QCURVE SMOOTH",
"1150 0 OFFCURVE",
"1150 210 QCURVE SMOOTH",
"1150 786 LINE SMOOTH",
"1150 912 OFFCURVE",
"856 991 QCURVE",
"909 1109 OFFCURVE",
"1097 1109 QCURVE",
"1097 1109 LINE"
);
}
);
width = 1920;
}
);
note = uni17A4;
unicode = 17A4;
},
{
glyphname = uni17A5;
layers = (
{
layerId = "4245090C-1DC1-4B2E-AF8E-CDB91B981D5B";
paths = (
{
closed = 1;
nodes = (
"180 230 LINE SMOOTH",
"180 0 OFFCURVE",
"435 0 QCURVE SMOOTH",
"690 0 OFFCURVE",
"690 268 QCURVE SMOOTH",
"690 373 OFFCURVE",
"562 503 OFFCURVE",
"475 503 QCURVE",
"455 433 LINE",
"530 383 OFFCURVE",
"530 268 QCURVE SMOOTH",
"530 170 OFFCURVE",
"475 170 QCURVE SMOOTH",
"430 170 OFFCURVE",
"430 230 QCURVE SMOOTH",
"430 650 LINE SMOOTH",
"430 790 OFFCURVE",
"625 790 QCURVE SMOOTH",
"820 790 OFFCURVE",
"820 650 QCURVE SMOOTH",
"820 0 LINE",
"1070 0 LINE",
"1070 650 LINE SMOOTH",
"1070 950 OFFCURVE",
"625 950 QCURVE SMOOTH",
"180 950 OFFCURVE",
"180 650 QCURVE",
"180 650 LINE"
);
},
{
closed = 1;
nodes = (
"312 940 OFFCURVE",
"430 963 QCURVE",
"297 1013 OFFCURVE",
"265 1060 QCURVE",
"302 1097 OFFCURVE",
"385 1107 QCURVE",
"446 1107 OFFCURVE",
"631 1009 OFFCURVE",
"740 1009 QCURVE SMOOTH",
"1070 1009 OFFCURVE",
"1070 1260 QCURVE SMOOTH",
"1070 1519 OFFCURVE",
"820 1519 QCURVE SMOOTH",
"660 1519 OFFCURVE",
"660 1424 QCURVE",
"820 1424 OFFCURVE",
"820 1260 QCURVE SMOOTH",
"820 1169 OFFCURVE",
"740 1169 QCURVE SMOOTH",
"679 1169 OFFCURVE",
"499 1300 OFFCURVE",
"385 1300 QCURVE SMOOTH",
"282 1300 OFFCURVE",
"134 1176 OFFCURVE",
"100 1095 QCURVE",
"100 965 OFFCURVE",
"231 879 QCURVE",
"231 879 LINE"
);
}
);
width = 1250;
}
);
note = uni17A5;
unicode = 17A5;
},
{
glyphname = uni17A6;
layers = (
{
layerId = "4245090C-1DC1-4B2E-AF8E-CDB91B981D5B";
paths = (
{
closed = 1;
nodes = (
"1670 1230 LINE SMOOTH",
"1670 1550 OFFCURVE",
"1266 1550 QCURVE SMOOTH",
"1130 1550 LINE SMOOTH",
"1030 1550 OFFCURVE",
"1030 1611 QCURVE SMOOTH",
"1030 1661 OFFCURVE",
"1070 1736 OFFCURVE",
"1070 1801 QCURVE SMOOTH",
"1070 2001 OFFCURVE",
"863 2001 QCURVE SMOOTH",
"696 2001 OFFCURVE",
"696 1871 QCURVE",
"820 1871 OFFCURVE",
"820 1801 QCURVE SMOOTH",
"820 1751 OFFCURVE",
"780 1656 OFFCURVE",
"780 1611 QCURVE SMOOTH",
"780 1390 OFFCURVE",
"1130 1390 QCURVE SMOOTH",
"1266 1390 LINE SMOOTH",
"1420 1390 OFFCURVE",
"1420 1230 QCURVE SMOOTH",
"1420 -445 LINE SMOOTH",
"1420 -520 OFFCURVE",
"1245 -520 QCURVE SMOOTH",
"1070 -520 OFFCURVE",
"1070 -445 QCURVE SMOOTH",
"1070 -300 LINE SMOOTH",
"1070 -100 OFFCURVE",
"635 -100 QCURVE SMOOTH",
"200 -100 OFFCURVE",
"200 -300 QCURVE SMOOTH",
"200 -440 LINE SMOOTH",
"200 -650 OFFCURVE",
"420 -650 QCURVE SMOOTH",
"620 -650 OFFCURVE",
"620 -440 QCURVE SMOOTH",
"620 -340 OFFCURVE",
"493 -329 QCURVE",
"520 -366 OFFCURVE",
"520 -406 QCURVE SMOOTH",
"520 -460 OFFCURVE",
"480 -460 QCURVE SMOOTH",
"450 -460 OFFCURVE",
"450 -410 QCURVE SMOOTH",
"450 -300 LINE SMOOTH",
"450 -230 OFFCURVE",
"635 -230 QCURVE SMOOTH",
"820 -230 OFFCURVE",
"820 -300 QCURVE SMOOTH",
"820 -445 LINE SMOOTH",
"820 -650 OFFCURVE",
"1245 -650 QCURVE SMOOTH",
"1670 -650 OFFCURVE",
"1670 -445 QCURVE",
"1670 -445 LINE"
);
},
{
closed = 1;
nodes = (
"430 1000 LINE SMOOTH",
"430 1140 OFFCURVE",
"625 1140 QCURVE SMOOTH",
"820 1140 OFFCURVE",
"820 1000 QCURVE SMOOTH",
"820 0 LINE",
"1070 0 LINE",
"1070 1000 LINE SMOOTH",
"1070 1300 OFFCURVE",
"625 1300 QCURVE SMOOTH",
"180 1300 OFFCURVE",
"180 1000 QCURVE SMOOTH",
"180 230 LINE SMOOTH",
"180 0 OFFCURVE",
"435 0 QCURVE SMOOTH",
"690 0 OFFCURVE",
"690 268 QCURVE SMOOTH",
"690 373 OFFCURVE",
"562 503 OFFCURVE",
"475 503 QCURVE",
"455 433 LINE",
"530 383 OFFCURVE",
"530 268 QCURVE SMOOTH",
"530 170 OFFCURVE",
"475 170 QCURVE SMOOTH",
"430 170 OFFCURVE",
"430 230 QCURVE",
"430 230 LINE"
);
}
);
width = 1850;
}
);
note = uni17A6;
unicode = 17A6;
},
{
glyphname = uni17A7;
layers = (
{
layerId = "4245090C-1DC1-4B2E-AF8E-CDB91B981D5B";
paths = (
{
closed = 1;
nodes = (
"180 0 OFFCURVE",
"535 0 QCURVE SMOOTH",
"671 0 OFFCURVE",
"820 122 QCURVE",
"820 60 LINE SMOOTH",
"820 -13 OFFCURVE",
"760 -20 QCURVE",
"780 -100 OFFCURVE",
"895 -100 QCURVE SMOOTH",
"1070 -100 OFFCURVE",
"1070 60 QCURVE SMOOTH",
"1070 520 LINE",
"820 520 LINE",
"820 397 LINE",
"680 160 OFFCURVE",
"535 160 QCURVE SMOOTH",
"430 160 OFFCURVE",
"430 347 QCURVE SMOOTH",
"430 411 LINE",
"1070 736 OFFCURVE",
"1070 953 QCURVE SMOOTH",
"1070 1300 OFFCURVE",
"625 1300 QCURVE SMOOTH",
"180 1300 OFFCURVE",
"180 953 QCURVE SMOOTH",
"180 760 OFFCURVE",
"393 760 QCURVE SMOOTH",
"545 760 OFFCURVE",
"545 894 QCURVE SMOOTH",
"545 947 OFFCURVE",
"502 965 QCURVE",
"488 918 OFFCURVE",
"459 918 QCURVE SMOOTH",
"430 918 OFFCURVE",
"430 953 QCURVE SMOOTH",
"430 1140 OFFCURVE",
"625 1140 QCURVE SMOOTH",
"820 1140 OFFCURVE",
"820 953 QCURVE SMOOTH",
"820 806 OFFCURVE",
"180 481 QCURVE",
"180 347 LINE",
"180 347 LINE"
);
}
);
width = 1250;
}
);
note = uni17A7;
unicode = 17A7;
},
{
glyphname = uni17A8;
layers = (
{
layerId = "4245090C-1DC1-4B2E-AF8E-CDB91B981D5B";
paths = (
{
closed = 1;
nodes = (
"180 0 OFFCURVE",
"535 0 QCURVE SMOOTH",
"671 0 OFFCURVE",
"820 122 QCURVE",
"820 60 LINE SMOOTH",
"820 -13 OFFCURVE",
"760 -20 QCURVE",
"780 -100 OFFCURVE",
"895 -100 QCURVE SMOOTH",
"1070 -100 OFFCURVE",
"1070 60 QCURVE SMOOTH",
"1070 520 LINE",
"820 520 LINE",
"820 397 LINE",
"680 160 OFFCURVE",
"535 160 QCURVE SMOOTH",
"430 160 OFFCURVE",
"430 347 QCURVE SMOOTH",
"430 411 LINE",
"1070 736 OFFCURVE",
"1070 953 QCURVE SMOOTH",
"1070 1300 OFFCURVE",
"625 1300 QCURVE SMOOTH",
"180 1300 OFFCURVE",
"180 953 QCURVE SMOOTH",
"180 760 OFFCURVE",
"393 760 QCURVE SMOOTH",
"545 760 OFFCURVE",
"545 894 QCURVE SMOOTH",
"545 947 OFFCURVE",
"502 965 QCURVE",
"488 918 OFFCURVE",
"459 918 QCURVE SMOOTH",
"430 918 OFFCURVE",
"430 953 QCURVE SMOOTH",
"430 1140 OFFCURVE",
"625 1140 QCURVE SMOOTH",
"820 1140 OFFCURVE",
"820 953 QCURVE SMOOTH",
"820 806 OFFCURVE",
"180 481 QCURVE",
"180 347 LINE",
"180 347 LINE"
);
},
{
closed = 1;
nodes = (
"348 1283 OFFCURVE",
"390 1377 QCURVE",
"370 1373 OFFCURVE",
"352 1373 QCURVE SMOOTH",
"307 1373 OFFCURVE",
"265 1450 QCURVE",
"282 1497 OFFCURVE",
"319 1497 QCURVE SMOOTH",
"356 1497 OFFCURVE",
"631 1372 QCURVE",
"702 1486 OFFCURVE",
"763 1486 QCURVE",
"912 1357 OFFCURVE",
"1042 1357 QCURVE SMOOTH",
"1091 1357 OFFCURVE",
"1150 1466 OFFCURVE",
"1150 1538 QCURVE",
"1133 1521 OFFCURVE",
"1090 1521 QCURVE SMOOTH",
"1061 1521 OFFCURVE",
"900 1660 OFFCURVE",
"835 1660 QCURVE SMOOTH",
"764 1660 OFFCURVE",
"649 1559 QCURVE",
"509 1660 OFFCURVE",
"365 1660 QCURVE SMOOTH",
"302 1660 OFFCURVE",
"154 1546 OFFCURVE",
"100 1455 QCURVE",
"100 1385 OFFCURVE",
"232 1283 OFFCURVE",
"290 1283 QCURVE",
"290 1283 LINE"
);
}
);
width = 1250;
}
);
note = uni17A8;
unicode = 17A8;
},
{
glyphname = uni17A9;
layers = (
{
layerId = "4245090C-1DC1-4B2E-AF8E-CDB91B981D5B";
paths = (
{
closed = 1;
nodes = (
"1150 -50 LINE",
"1270 -50 LINE",
"1270 520 LINE",
"1150 520 LINE",
"1150 520 LINE"
);
},
{
closed = 1;
nodes = (
"180 0 OFFCURVE",
"535 0 QCURVE SMOOTH",
"671 0 OFFCURVE",
"820 122 QCURVE",
"820 60 LINE SMOOTH",
"820 -13 OFFCURVE",
"760 -20 QCURVE",
"780 -100 OFFCURVE",
"895 -100 QCURVE SMOOTH",
"1070 -100 OFFCURVE",
"1070 60 QCURVE SMOOTH",
"1070 520 LINE",
"820 520 LINE",
"820 397 LINE",
"680 160 OFFCURVE",
"535 160 QCURVE SMOOTH",
"430 160 OFFCURVE",
"430 347 QCURVE SMOOTH",
"430 411 LINE",
"1070 736 OFFCURVE",
"1070 953 QCURVE SMOOTH",
"1070 1300 OFFCURVE",
"625 1300 QCURVE SMOOTH",
"180 1300 OFFCURVE",
"180 953 QCURVE SMOOTH",
"180 760 OFFCURVE",
"393 760 QCURVE SMOOTH",
"545 760 OFFCURVE",
"545 894 QCURVE SMOOTH",
"545 947 OFFCURVE",
"502 965 QCURVE",
"488 918 OFFCURVE",
"459 918 QCURVE SMOOTH",
"430 918 OFFCURVE",
"430 953 QCURVE SMOOTH",
"430 1140 OFFCURVE",
"625 1140 QCURVE SMOOTH",
"820 1140 OFFCURVE",
"820 953 QCURVE SMOOTH",
"820 806 OFFCURVE",
"180 481 QCURVE",
"180 347 LINE",
"180 347 LINE"
);
}
);
width = 1270;
}
);
note = uni17A9;
unicode = 17A9;
},
{
glyphname = uni17AA;
layers = (
{
layerId = "4245090C-1DC1-4B2E-AF8E-CDB91B981D5B";
paths = (
{
closed = 1;
nodes = (
"180 0 OFFCURVE",
"535 0 QCURVE SMOOTH",
"671 0 OFFCURVE",
"820 122 QCURVE",
"820 60 LINE SMOOTH",
"820 -13 OFFCURVE",
"760 -20 QCURVE",
"780 -100 OFFCURVE",
"895 -100 QCURVE SMOOTH",
"1070 -100 OFFCURVE",
"1070 60 QCURVE SMOOTH",
"1070 520 LINE",
"820 520 LINE",
"820 397 LINE",
"680 160 OFFCURVE",
"535 160 QCURVE SMOOTH",
"430 160 OFFCURVE",
"430 347 QCURVE SMOOTH",
"430 411 LINE",
"1070 736 OFFCURVE",
"1070 953 QCURVE SMOOTH",
"1070 1300 OFFCURVE",
"625 1300 QCURVE SMOOTH",
"180 1300 OFFCURVE",
"180 953 QCURVE SMOOTH",
"180 760 OFFCURVE",
"393 760 QCURVE SMOOTH",
"545 760 OFFCURVE",
"545 894 QCURVE SMOOTH",
"545 947 OFFCURVE",
"502 965 QCURVE",
"488 918 OFFCURVE",
"459 918 QCURVE SMOOTH",
"430 918 OFFCURVE",
"430 953 QCURVE SMOOTH",
"430 1140 OFFCURVE",
"625 1140 QCURVE SMOOTH",
"820 1140 OFFCURVE",
"820 953 QCURVE SMOOTH",
"820 806 OFFCURVE",
"180 481 QCURVE",
"180 347 LINE",
"180 347 LINE"
);
},
{
closed = 1;
nodes = (
"312 1310 OFFCURVE",
"430 1333 QCURVE",
"297 1383 OFFCURVE",
"265 1430 QCURVE",
"302 1467 OFFCURVE",
"385 1477 QCURVE",
"446 1477 OFFCURVE",
"631 1379 OFFCURVE",
"740 1379 QCURVE SMOOTH",
"1070 1379 OFFCURVE",
"1070 1630 QCURVE SMOOTH",
"1070 1889 OFFCURVE",
"820 1889 QCURVE SMOOTH",
"660 1889 OFFCURVE",
"660 1794 QCURVE",
"820 1794 OFFCURVE",
"820 1630 QCURVE SMOOTH",
"820 1539 OFFCURVE",
"740 1539 QCURVE SMOOTH",
"679 1539 OFFCURVE",
"499 1670 OFFCURVE",
"385 1670 QCURVE SMOOTH",
"282 1670 OFFCURVE",
"134 1546 OFFCURVE",
"100 1465 QCURVE",
"100 1335 OFFCURVE",
"231 1249 QCURVE",
"231 1249 LINE"
);
}
);
width = 1250;
}
);
note = uni17AA;
unicode = 17AA;
},
{
glyphname = uni17AB;
layers = (
{
layerId = "4245090C-1DC1-4B2E-AF8E-CDB91B981D5B";
paths = (
{
closed = 1;
nodes = (
"820 -178 OFFCURVE",
"820 -228 QCURVE SMOOTH",
"820 -399 OFFCURVE",
"60 -450 QCURVE",
"60 -543 OFFCURVE",
"266 -543 QCURVE SMOOTH",
"1070 -543 OFFCURVE",
"1070 -228 QCURVE SMOOTH",
"1070 -40 OFFCURVE",
"866 -40 QCURVE SMOOTH",
"716 -40 OFFCURVE",
"716 -178 QCURVE",
"716 -178 LINE"
);
},
{
closed = 1;
nodes = (
"180 300 LINE SMOOTH",
"180 0 OFFCURVE",
"625 0 QCURVE SMOOTH",
"1070 0 OFFCURVE",
"1070 300 QCURVE SMOOTH",
"1070 806 LINE SMOOTH",
"1070 932 OFFCURVE",
"856 991 QCURVE",
"879 1074 OFFCURVE",
"911 1074 QCURVE",
"990 1016 OFFCURVE",
"1065 1016 QCURVE SMOOTH",
"1180 1016 OFFCURVE",
"1200 1223 QCURVE",
"1173 1210 OFFCURVE",
"1134 1210 QCURVE SMOOTH",
"1104 1210 OFFCURVE",
"960 1300 OFFCURVE",
"898 1300 QCURVE SMOOTH",
"836 1300 OFFCURVE",
"714 1106 OFFCURVE",
"690 1004 QCURVE",
"730 882 LINE",
"820 862 OFFCURVE",
"820 756 QCURVE SMOOTH",
"820 300 LINE SMOOTH",
"820 160 OFFCURVE",
"625 160 QCURVE SMOOTH",
"430 160 OFFCURVE",
"430 300 QCURVE SMOOTH",
"430 806 LINE SMOOTH",
"430 932 OFFCURVE",
"216 991 QCURVE",
"239 1074 OFFCURVE",
"271 1074 QCURVE",
"350 1016 OFFCURVE",
"425 1016 QCURVE SMOOTH",
"540 1016 OFFCURVE",
"560 1223 QCURVE",
"533 1210 OFFCURVE",
"494 1210 QCURVE SMOOTH",
"464 1210 OFFCURVE",
"320 1300 OFFCURVE",
"258 1300 QCURVE SMOOTH",
"196 1300 OFFCURVE",
"74 1106 OFFCURVE",
"50 1004 QCURVE",
"90 882 LINE",
"180 862 OFFCURVE",
"180 756 QCURVE",
"180 756 LINE"
);
}
);
width = 1250;
}
);
note = uni17AB;
unicode = 17AB;
},
{
glyphname = uni17AC;
layers = (
{
layerId = "4245090C-1DC1-4B2E-AF8E-CDB91B981D5B";
paths = (
{
closed = 1;
nodes = (
"180 300 LINE SMOOTH",
"180 0 OFFCURVE",
"625 0 QCURVE SMOOTH",
"1070 0 OFFCURVE",
"1070 300 QCURVE SMOOTH",
"1070 806 LINE SMOOTH",
"1070 932 OFFCURVE",
"856 991 QCURVE",
"879 1074 OFFCURVE",
"911 1074 QCURVE",
"990 1016 OFFCURVE",
"1065 1016 QCURVE SMOOTH",
"1180 1016 OFFCURVE",
"1200 1223 QCURVE",
"1173 1210 OFFCURVE",
"1134 1210 QCURVE SMOOTH",
"1104 1210 OFFCURVE",
"960 1300 OFFCURVE",
"898 1300 QCURVE SMOOTH",
"836 1300 OFFCURVE",
"714 1106 OFFCURVE",
"690 1004 QCURVE",
"730 882 LINE",
"820 862 OFFCURVE",
"820 756 QCURVE SMOOTH",
"820 300 LINE SMOOTH",
"820 160 OFFCURVE",
"625 160 QCURVE SMOOTH",
"430 160 OFFCURVE",
"430 300 QCURVE SMOOTH",
"430 806 LINE SMOOTH",
"430 932 OFFCURVE",
"216 991 QCURVE",
"239 1074 OFFCURVE",
"271 1074 QCURVE",
"350 1016 OFFCURVE",
"425 1016 QCURVE SMOOTH",
"540 1016 OFFCURVE",
"560 1223 QCURVE",
"533 1210 OFFCURVE",
"494 1210 QCURVE SMOOTH",
"464 1210 OFFCURVE",
"320 1300 OFFCURVE",
"258 1300 QCURVE SMOOTH",
"196 1300 OFFCURVE",
"74 1106 OFFCURVE",
"50 1004 QCURVE",
"90 882 LINE",
"180 862 OFFCURVE",
"180 756 QCURVE",
"180 756 LINE"
);
},
{
closed = 1;
nodes = (
"1070 -277 OFFCURVE",
"1070 -228 QCURVE SMOOTH",
"1070 -40 OFFCURVE",
"866 -40 QCURVE SMOOTH",
"716 -40 OFFCURVE",
"716 -178 QCURVE",
"820 -178 OFFCURVE",
"820 -228 QCURVE SMOOTH",
"820 -399 OFFCURVE",
"60 -450 QCURVE",
"60 -543 OFFCURVE",
"266 -543 QCURVE SMOOTH",
"743 -543 OFFCURVE",
"937 -432 QCURVE",
"986 -550 OFFCURVE",
"1100 -550 QCURVE SMOOTH",
"1200 -550 OFFCURVE",
"1200 -450 QCURVE SMOOTH",
"1200 -350 OFFCURVE",
"1100 -350 QCURVE SMOOTH",
"1071 -350 OFFCURVE",
"1051 -318 QCURVE",
"1051 -318 LINE"
);
}
);
width = 1250;
}
);
note = uni17AC;
unicode = 17AC;
},
{
glyphname = uni17AD;
layers = (
{
layerId = "4245090C-1DC1-4B2E-AF8E-CDB91B981D5B";
paths = (
{
closed = 1;
nodes = (
"180 230 LINE SMOOTH",
"180 0 OFFCURVE",
"435 0 QCURVE SMOOTH",
"690 0 OFFCURVE",
"690 268 QCURVE SMOOTH",
"690 373 OFFCURVE",
"562 503 OFFCURVE",
"475 503 QCURVE",
"455 433 LINE",
"530 383 OFFCURVE",
"530 268 QCURVE SMOOTH",
"530 170 OFFCURVE",
"475 170 QCURVE SMOOTH",
"430 170 OFFCURVE",
"430 230 QCURVE SMOOTH",
"430 1000 LINE SMOOTH",
"430 1098 OFFCURVE",
"483 1098 QCURVE SMOOTH",
"535 1098 OFFCURVE",
"583 1004 QCURVE SMOOTH",
"599 972 OFFCURVE",
"625 972 QCURVE SMOOTH",
"651 972 OFFCURVE",
"667 1004 QCURVE SMOOTH",
"716 1098 OFFCURVE",
"768 1098 QCURVE SMOOTH",
"820 1098 OFFCURVE",
"820 1000 QCURVE SMOOTH",
"820 0 LINE",
"1070 0 LINE",
"1070 1000 LINE SMOOTH",
"1070 1122 OFFCURVE",
"936 1300 OFFCURVE",
"828 1300 QCURVE SMOOTH",
"719 1300 OFFCURVE",
"625 1176 QCURVE",
"532 1300 OFFCURVE",
"424 1300 QCURVE SMOOTH",
"315 1300 OFFCURVE",
"180 1122 OFFCURVE",
"180 1000 QCURVE",
"180 1000 LINE"
);
},
{
closed = 1;
nodes = (
"820 -178 OFFCURVE",
"820 -228 QCURVE SMOOTH",
"820 -399 OFFCURVE",
"60 -450 QCURVE",
"60 -543 OFFCURVE",
"266 -543 QCURVE SMOOTH",
"1070 -543 OFFCURVE",
"1070 -228 QCURVE SMOOTH",
"1070 -40 OFFCURVE",
"866 -40 QCURVE SMOOTH",
"716 -40 OFFCURVE",
"716 -178 QCURVE",
"716 -178 LINE"
);
}
);
width = 1250;
}
);
note = uni17AD;
unicode = 17AD;
},
{
glyphname = uni17AE;
layers = (
{
layerId = "4245090C-1DC1-4B2E-AF8E-CDB91B981D5B";
paths = (
{
closed = 1;
nodes = (
"180 230 LINE SMOOTH",
"180 0 OFFCURVE",
"435 0 QCURVE SMOOTH",
"690 0 OFFCURVE",
"690 268 QCURVE SMOOTH",
"690 373 OFFCURVE",
"562 503 OFFCURVE",
"475 503 QCURVE",
"455 433 LINE",
"530 383 OFFCURVE",
"530 268 QCURVE SMOOTH",
"530 170 OFFCURVE",
"475 170 QCURVE SMOOTH",
"430 170 OFFCURVE",
"430 230 QCURVE SMOOTH",
"430 1000 LINE SMOOTH",
"430 1098 OFFCURVE",
"483 1098 QCURVE SMOOTH",
"535 1098 OFFCURVE",
"583 1004 QCURVE SMOOTH",
"599 972 OFFCURVE",
"625 972 QCURVE SMOOTH",
"651 972 OFFCURVE",
"667 1004 QCURVE SMOOTH",
"716 1098 OFFCURVE",
"768 1098 QCURVE SMOOTH",
"820 1098 OFFCURVE",
"820 1000 QCURVE SMOOTH",
"820 0 LINE",
"1070 0 LINE",
"1070 1000 LINE SMOOTH",
"1070 1122 OFFCURVE",
"936 1300 OFFCURVE",
"828 1300 QCURVE SMOOTH",
"719 1300 OFFCURVE",
"625 1176 QCURVE",
"532 1300 OFFCURVE",
"424 1300 QCURVE SMOOTH",
"315 1300 OFFCURVE",
"180 1122 OFFCURVE",
"180 1000 QCURVE",
"180 1000 LINE"
);
},
{
closed = 1;
nodes = (
"1070 -277 OFFCURVE",
"1070 -228 QCURVE SMOOTH",
"1070 -40 OFFCURVE",
"866 -40 QCURVE SMOOTH",
"716 -40 OFFCURVE",
"716 -178 QCURVE",
"820 -178 OFFCURVE",
"820 -228 QCURVE SMOOTH",
"820 -399 OFFCURVE",
"60 -450 QCURVE",
"60 -543 OFFCURVE",
"266 -543 QCURVE SMOOTH",
"743 -543 OFFCURVE",
"937 -432 QCURVE",
"986 -550 OFFCURVE",
"1100 -550 QCURVE SMOOTH",
"1200 -550 OFFCURVE",
"1200 -450 QCURVE SMOOTH",
"1200 -350 OFFCURVE",
"1100 -350 QCURVE SMOOTH",
"1071 -350 OFFCURVE",
"1051 -318 QCURVE",
"1051 -318 LINE"
);
}
);
width = 1250;
}
);
note = uni17AE;
unicode = 17AE;
},
{
glyphname = uni17AF;
layers = (
{
layerId = "4245090C-1DC1-4B2E-AF8E-CDB91B981D5B";
paths = (
{
closed = 1;
nodes = (
"1070 988 LINE SMOOTH",
"1070 1300 OFFCURVE",
"716 1300 QCURVE SMOOTH",
"622 1300 OFFCURVE",
"516 1257 OFFCURVE",
"469 1257 QCURVE SMOOTH",
"430 1257 OFFCURVE",
"430 1302 QCURVE SMOOTH",
"430 1352 OFFCURVE",
"470 1437 OFFCURVE",
"470 1502 QCURVE SMOOTH",
"470 1692 OFFCURVE",
"266 1692 QCURVE SMOOTH",
"96 1692 OFFCURVE",
"96 1572 QCURVE",
"220 1572 OFFCURVE",
"220 1502 QCURVE SMOOTH",
"220 1452 OFFCURVE",
"180 1347 OFFCURVE",
"180 1302 QCURVE SMOOTH",
"180 1097 OFFCURVE",
"469 1097 QCURVE SMOOTH",
"544 1097 OFFCURVE",
"650 1140 OFFCURVE",
"716 1140 QCURVE SMOOTH",
"820 1140 OFFCURVE",
"820 988 QCURVE SMOOTH",
"820 231 LINE",
"694 329 LINE SMOOTH",
"659 357 OFFCURVE",
"623 357 QCURVE SMOOTH",
"590 357 OFFCURVE",
"556 332 QCURVE SMOOTH",
"430 237 LINE",
"430 777 LINE SMOOTH",
"430 950 OFFCURVE",
"232 950 QCURVE SMOOTH",
"65 950 OFFCURVE",
"65 796 QCURVE SMOOTH",
"65 733 OFFCURVE",
"108 715 QCURVE",
"122 772 OFFCURVE",
"151 772 QCURVE SMOOTH",
"180 772 OFFCURVE",
"180 727 QCURVE SMOOTH",
"180 0 LINE",
"400 0 LINE",
"625 190 LINE",
"850 0 LINE",
"1070 0 LINE",
"1070 0 LINE"
);
}
);
width = 1250;
}
);
note = uni17AF;
unicode = 17AF;
},
{
glyphname = uni17B0;
layers = (
{
layerId = "4245090C-1DC1-4B2E-AF8E-CDB91B981D5B";
paths = (
{
closed = 1;
nodes = (
"775 -146 OFFCURVE",
"837 -91 QCURVE",
"810 -188 OFFCURVE",
"791 -197 QCURVE SMOOTH",
"780 -203 OFFCURVE",
"766 -203 QCURVE SMOOTH",
"744 -203 OFFCURVE",
"712 -191 QCURVE",
"712 -191 LINE"
);
},
{
closed = 1;
nodes = (
"515 -404 OFFCURVE",
"474 -404 QCURVE SMOOTH",
"432 -404 OFFCURVE",
"367 -337 QCURVE",
"472 -310 OFFCURVE",
"575 -262 QCURVE",
"577 -281 OFFCURVE",
"577 -297 QCURVE SMOOTH",
"577 -353 OFFCURVE",
"553 -374 QCURVE",
"553 -374 LINE"
);
},
{
closed = 1;
nodes = (
"1070 1000 LINE SMOOTH",
"1070 1122 OFFCURVE",
"936 1300 OFFCURVE",
"828 1300 QCURVE SMOOTH",
"719 1300 OFFCURVE",
"625 1176 QCURVE",
"532 1300 OFFCURVE",
"424 1300 QCURVE SMOOTH",
"315 1300 OFFCURVE",
"180 1122 OFFCURVE",
"180 1000 QCURVE SMOOTH",
"180 230 LINE SMOOTH",
"180 0 OFFCURVE",
"435 0 QCURVE SMOOTH",
"690 0 OFFCURVE",
"690 268 QCURVE SMOOTH",
"690 373 OFFCURVE",
"562 503 OFFCURVE",
"475 503 QCURVE",
"455 433 LINE",
"530 383 OFFCURVE",
"530 268 QCURVE SMOOTH",
"530 170 OFFCURVE",
"475 170 QCURVE SMOOTH",
"430 170 OFFCURVE",
"430 230 QCURVE SMOOTH",
"430 1000 LINE SMOOTH",
"430 1098 OFFCURVE",
"483 1098 QCURVE SMOOTH",
"535 1098 OFFCURVE",
"583 1004 QCURVE SMOOTH",
"599 972 OFFCURVE",
"625 972 QCURVE SMOOTH",
"651 972 OFFCURVE",
"667 1004 QCURVE SMOOTH",
"716 1098 OFFCURVE",
"768 1098 QCURVE SMOOTH",
"820 1098 OFFCURVE",
"820 1000 QCURVE SMOOTH",
"820 68 LINE",
"583 -98 OFFCURVE",
"382 -145 QCURVE SMOOTH",
"180 -192 OFFCURVE",
"180 -362 QCURVE SMOOTH",
"180 -431 OFFCURVE",
"387 -550 OFFCURVE",
"470 -550 QCURVE SMOOTH",
"552 -550 OFFCURVE",
"636 -480 QCURVE",
"695 -425 OFFCURVE",
"695 -351 QCURVE SMOOTH",
"695 -320 OFFCURVE",
"685 -285 QCURVE",
"743 -316 OFFCURVE",
"796 -316 QCURVE SMOOTH",
"841 -316 OFFCURVE",
"882 -293 QCURVE",
"1070 -249 OFFCURVE",
"1070 0 QCURVE",
"1070 0 LINE"
);
}
);
width = 1250;
}
);
note = uni17B0;
unicode = 17B0;
},
{
glyphname = uni17B1;
layers = (
{
layerId = "4245090C-1DC1-4B2E-AF8E-CDB91B981D5B";
paths = (
{
closed = 1;
nodes = (
"541 1711 OFFCURVE",
"503 1711 QCURVE SMOOTH",
"387 1711 OFFCURVE",
"160 1577 OFFCURVE",
"160 1544 QCURVE SMOOTH",
"160 1448 LINE SMOOTH",
"160 1375 OFFCURVE",
"325 1310 QCURVE",
"470 1340 LINE",
"365 1441 OFFCURVE",
"365 1479 QCURVE SMOOTH",
"365 1502 OFFCURVE",
"385 1525 QCURVE SMOOTH",
"399 1542 OFFCURVE",
"457 1542 QCURVE SMOOTH",
"515 1542 OFFCURVE",
"576 1539 QCURVE SMOOTH",
"835 1523 OFFCURVE",
"865 1400 QCURVE",
"865 1312 OFFCURVE",
"1013 1312 QCURVE SMOOTH",
"1100 1312 OFFCURVE",
"1100 1400 QCURVE SMOOTH",
"1100 1626 OFFCURVE",
"582 1705 QCURVE",
"582 1705 LINE"
);
},
{
closed = 1;
nodes = (
"180 0 OFFCURVE",
"535 0 QCURVE SMOOTH",
"671 0 OFFCURVE",
"820 122 QCURVE",
"820 60 LINE SMOOTH",
"820 -13 OFFCURVE",
"760 -20 QCURVE",
"780 -100 OFFCURVE",
"895 -100 QCURVE SMOOTH",
"1070 -100 OFFCURVE",
"1070 60 QCURVE SMOOTH",
"1070 520 LINE",
"820 520 LINE",
"820 397 LINE",
"680 160 OFFCURVE",
"535 160 QCURVE SMOOTH",
"430 160 OFFCURVE",
"430 347 QCURVE SMOOTH",
"430 411 LINE",
"1070 736 OFFCURVE",
"1070 953 QCURVE SMOOTH",
"1070 1300 OFFCURVE",
"625 1300 QCURVE SMOOTH",
"180 1300 OFFCURVE",
"180 953 QCURVE SMOOTH",
"180 760 OFFCURVE",
"393 760 QCURVE SMOOTH",
"545 760 OFFCURVE",
"545 894 QCURVE SMOOTH",
"545 947 OFFCURVE",
"502 965 QCURVE",
"488 918 OFFCURVE",
"459 918 QCURVE SMOOTH",
"430 918 OFFCURVE",
"430 953 QCURVE SMOOTH",
"430 1140 OFFCURVE",
"625 1140 QCURVE SMOOTH",
"820 1140 OFFCURVE",
"820 953 QCURVE SMOOTH",
"820 806 OFFCURVE",
"180 481 QCURVE",
"180 347 LINE",
"180 347 LINE"
);
}
);
width = 1250;
}
);
note = uni17B1;
unicode = 17B1;
},
{
glyphname = uni17B2;
layers = (
{
layerId = "4245090C-1DC1-4B2E-AF8E-CDB91B981D5B";
paths = (
{
closed = 1;
nodes = (
"422 953 LINE SMOOTH",
"422 1140 OFFCURVE",
"625 1140 QCURVE SMOOTH",
"828 1140 OFFCURVE",
"828 1083 QCURVE",
"1070 1083 LINE",
"1070 1300 OFFCURVE",
"625 1300 QCURVE SMOOTH",
"180 1300 OFFCURVE",
"180 953 QCURVE SMOOTH",
"180 347 LINE SMOOTH",
"180 0 OFFCURVE",
"625 0 QCURVE SMOOTH",
"1070 0 OFFCURVE",
"1070 347 QCURVE SMOOTH",
"1070 429 OFFCURVE",
"1026 482 QCURVE SMOOTH",
"992 522 OFFCURVE",
"911 540 QCURVE",
"1008 614 OFFCURVE",
"1042 679 QCURVE SMOOTH",
"1070 732 OFFCURVE",
"1070 780 QCURVE SMOOTH",
"1070 997 OFFCURVE",
"770 997 QCURVE SMOOTH",
"531 997 OFFCURVE",
"531 830 QCURVE SMOOTH",
"531 745 OFFCURVE",
"567 713 QCURVE SMOOTH",
"604 680 OFFCURVE",
"660 680 QCURVE SMOOTH",
"719 680 OFFCURVE",
"776 758 QCURVE",
"722 758 OFFCURVE",
"722 830 QCURVE SMOOTH",
"722 897 OFFCURVE",
"770 897 QCURVE SMOOTH",
"828 897 OFFCURVE",
"828 780 QCURVE SMOOTH",
"828 750 OFFCURVE",
"774 634 OFFCURVE",
"508 451 QCURVE",
"625 308 LINE",
"788 433 LINE SMOOTH",
"798 440 OFFCURVE",
"806 448 QCURVE",
"828 415 OFFCURVE",
"828 347 QCURVE SMOOTH",
"828 160 OFFCURVE",
"625 160 QCURVE SMOOTH",
"422 160 OFFCURVE",
"422 347 QCURVE",
"422 347 LINE"
);
}
);
width = 1250;
}
);
note = uni17B2;
unicode = 17B2;
},
{
glyphname = uni17B3;
layers = (
{
layerId = "4245090C-1DC1-4B2E-AF8E-CDB91B981D5B";
paths = (
{
closed = 1;
nodes = (
"875 1716 OFFCURVE",
"1043 1716 QCURVE SMOOTH",
"1090 1716 OFFCURVE",
"1090 1786 QCURVE SMOOTH",
"1090 1855 OFFCURVE",
"1043 1855 QCURVE SMOOTH",
"741 1855 OFFCURVE",
"694 1671 QCURVE",
"577 1696 OFFCURVE",
"487 1696 QCURVE SMOOTH",
"366 1696 OFFCURVE",
"130 1560 OFFCURVE",
"130 1477 QCURVE SMOOTH",
"130 1430 LINE SMOOTH",
"130 1356 OFFCURVE",
"324 1270 QCURVE",
"453 1320 LINE",
"341 1422 OFFCURVE",
"341 1462 QCURVE SMOOTH",
"341 1485 OFFCURVE",
"382 1523 OFFCURVE",
"564 1523 QCURVE",
"649 1519 OFFCURVE",
"686 1510 QCURVE",
"706 1327 OFFCURVE",
"952 1296 QCURVE SMOOTH",
"983 1292 OFFCURVE",
"1020 1292 QCURVE SMOOTH",
"1110 1292 OFFCURVE",
"1110 1381 QCURVE SMOOTH",
"1110 1561 OFFCURVE",
"837 1638 QCURVE",
"837 1638 LINE"
);
},
{
closed = 1;
nodes = (
"850 1435 OFFCURVE",
"821 1489 QCURVE",
"924 1461 OFFCURVE",
"944 1409 QCURVE",
"944 1409 LINE"
);
},
{
closed = 1;
nodes = (
"180 0 OFFCURVE",
"535 0 QCURVE SMOOTH",
"671 0 OFFCURVE",
"820 122 QCURVE",
"820 60 LINE SMOOTH",
"820 -13 OFFCURVE",
"760 -20 QCURVE",
"780 -100 OFFCURVE",
"895 -100 QCURVE SMOOTH",
"1070 -100 OFFCURVE",
"1070 60 QCURVE SMOOTH",
"1070 520 LINE",
"820 520 LINE",
"820 397 LINE",
"680 160 OFFCURVE",
"535 160 QCURVE SMOOTH",
"430 160 OFFCURVE",
"430 347 QCURVE SMOOTH",
"430 411 LINE",
"1070 736 OFFCURVE",
"1070 953 QCURVE SMOOTH",
"1070 1300 OFFCURVE",
"625 1300 QCURVE SMOOTH",
"180 1300 OFFCURVE",
"180 953 QCURVE SMOOTH",
"180 760 OFFCURVE",
"393 760 QCURVE SMOOTH",
"545 760 OFFCURVE",
"545 894 QCURVE SMOOTH",
"545 947 OFFCURVE",
"502 965 QCURVE",
"488 918 OFFCURVE",
"459 918 QCURVE SMOOTH",
"430 918 OFFCURVE",
"430 953 QCURVE SMOOTH",
"430 1140 OFFCURVE",
"625 1140 QCURVE SMOOTH",
"820 1140 OFFCURVE",
"820 953 QCURVE SMOOTH",
"820 806 OFFCURVE",
"180 481 QCURVE",
"180 347 LINE",
"180 347 LINE"
);
}
);
width = 1250;
}
);
note = uni17B3;
unicode = 17B3;
},
{
glyphname = uni17B6;
layers = (
{
layerId = "4245090C-1DC1-4B2E-AF8E-CDB91B981D5B";
paths = (
{
closed = 1;
nodes = (
"-94 1109 OFFCURVE",
"-17 1109 QCURVE SMOOTH",
"35 1109 OFFCURVE",
"210 966 OFFCURVE",
"210 928 QCURVE SMOOTH",
"210 0 LINE",
"460 0 LINE",
"460 928 LINE SMOOTH",
"460 1073 OFFCURVE",
"132 1300 OFFCURVE",
"23 1300 QCURVE SMOOTH",
"-68 1300 OFFCURVE",
"-160 1244 QCURVE SMOOTH",
"-215 1210 OFFCURVE",
"-215 1127 QCURVE SMOOTH",
"-215 1043 OFFCURVE",
"-192 1015 QCURVE",
"-192 1015 LINE"
);
}
);
width = 640;
}
);
note = uni17B6;
unicode = 17B6;
},
{
glyphname = uni17B7;
layers = (
{
layerId = "4245090C-1DC1-4B2E-AF8E-CDB91B981D5B";
paths = (
{
closed = 1;
nodes = (
"-1060 1520 OFFCURVE",
"-820 1520 QCURVE SMOOTH",
"-300 1520 LINE SMOOTH",
"-180 1520 OFFCURVE",
"-180 1585 QCURVE SMOOTH",
"-180 1650 OFFCURVE",
"-550 1950 OFFCURVE",
"-780 1950 QCURVE SMOOTH",
"-1060 1950 OFFCURVE",
"-1060 1730 QCURVE",
"-1060 1730 LINE"
);
},
{
closed = 1;
nodes = (
"-820 1790 OFFCURVE",
"-730 1790 QCURVE SMOOTH",
"-599 1790 OFFCURVE",
"-480 1680 QCURVE",
"-770 1680 LINE SMOOTH",
"-820 1680 OFFCURVE",
"-820 1730 QCURVE",
"-820 1730 LINE"
);
}
);
width = 0;
}
);
note = uni17B7;
unicode = 17B7;
},
{
glyphname = uni17B8;
layers = (
{
layerId = "4245090C-1DC1-4B2E-AF8E-CDB91B981D5B";
paths = (
{
closed = 1;
nodes = (
"-820 1680 OFFCURVE",
"-820 1730 QCURVE SMOOTH",
"-820 1790 OFFCURVE",
"-730 1790 QCURVE SMOOTH",
"-599 1790 OFFCURVE",
"-480 1680 QCURVE",
"-770 1680 LINE",
"-770 1680 LINE"
);
},
{
closed = 1;
nodes = (
"-557 1950 OFFCURVE",
"-780 1950 QCURVE SMOOTH",
"-1060 1950 OFFCURVE",
"-1060 1730 QCURVE SMOOTH",
"-1060 1520 OFFCURVE",
"-820 1520 QCURVE SMOOTH",
"-300 1520 LINE SMOOTH",
"-180 1520 OFFCURVE",
"-180 1585 QCURVE SMOOTH",
"-180 1612 OFFCURVE",
"-213 1655 QCURVE",
"-180 1770 OFFCURVE",
"-180 1865 QCURVE SMOOTH",
"-180 2000 OFFCURVE",
"-322 2000 QCURVE SMOOTH",
"-404 2000 OFFCURVE",
"-430 1959 QCURVE",
"-370 1937 OFFCURVE",
"-370 1867 QCURVE SMOOTH",
"-370 1841 OFFCURVE",
"-377 1809 QCURVE",
"-377 1809 LINE"
);
}
);
width = 0;
}
);
note = uni17B8;
unicode = 17B8;
},
{
glyphname = uni17B9;
layers = (
{
layerId = "4245090C-1DC1-4B2E-AF8E-CDB91B981D5B";
paths = (
{
closed = 1;
nodes = (
"-710 1950 OFFCURVE",
"-780 1950 QCURVE SMOOTH",
"-1060 1950 OFFCURVE",
"-1060 1730 QCURVE SMOOTH",
"-1060 1520 OFFCURVE",
"-820 1520 QCURVE SMOOTH",
"-300 1520 LINE SMOOTH",
"-180 1520 OFFCURVE",
"-180 1585 QCURVE SMOOTH",
"-180 1616 OFFCURVE",
"-222 1667 QCURVE",
"-180 1721 OFFCURVE",
"-180 1815 QCURVE SMOOTH",
"-180 2040 OFFCURVE",
"-425 2040 QCURVE SMOOTH",
"-591 2040 OFFCURVE",
"-645 1936 QCURVE",
"-645 1936 LINE"
);
},
{
closed = 1;
nodes = (
"-355 1895 OFFCURVE",
"-355 1815 QCURVE SMOOTH",
"-355 1735 OFFCURVE",
"-425 1735 QCURVE SMOOTH",
"-495 1735 OFFCURVE",
"-495 1815 QCURVE SMOOTH",
"-495 1895 OFFCURVE",
"-425 1895 QCURVE",
"-425 1895 LINE"
);
},
{
closed = 1;
nodes = (
"-820 1790 OFFCURVE",
"-730 1790 QCURVE SMOOTH",
"-599 1790 OFFCURVE",
"-480 1680 QCURVE",
"-770 1680 LINE SMOOTH",
"-820 1680 OFFCURVE",
"-820 1730 QCURVE",
"-820 1730 LINE"
);
}
);
width = 0;
}
);
note = uni17B9;
unicode = 17B9;
},
{
glyphname = uni17BA;
layers = (
{
layerId = "4245090C-1DC1-4B2E-AF8E-CDB91B981D5B";
paths = (
{
closed = 1;
nodes = (
"-820 1680 OFFCURVE",
"-820 1730 QCURVE SMOOTH",
"-820 1790 OFFCURVE",
"-730 1790 QCURVE SMOOTH",
"-599 1790 OFFCURVE",
"-480 1680 QCURVE",
"-770 1680 LINE",
"-770 1680 LINE"
);
},
{
closed = 1;
nodes = (
"-688 1950 OFFCURVE",
"-780 1950 QCURVE SMOOTH",
"-1060 1950 OFFCURVE",
"-1060 1730 QCURVE SMOOTH",
"-1060 1520 OFFCURVE",
"-820 1520 QCURVE SMOOTH",
"-300 1520 LINE SMOOTH",
"-180 1520 OFFCURVE",
"-180 1585 QCURVE SMOOTH",
"-180 1612 OFFCURVE",
"-213 1655 QCURVE",
"-180 1770 OFFCURVE",
"-180 1865 QCURVE SMOOTH",
"-180 2000 OFFCURVE",
"-322 2000 QCURVE SMOOTH",
"-374 2000 OFFCURVE",
"-400 1959 QCURVE",
"-370 1937 OFFCURVE",
"-370 1867 QCURVE SMOOTH",
"-370 1841 OFFCURVE",
"-377 1809 QCURVE",
"-418 1841 OFFCURVE",
"-462 1866 QCURVE",
"-458 1878 LINE SMOOTH",
"-449 1909 OFFCURVE",
"-449 1935 QCURVE SMOOTH",
"-449 2050 OFFCURVE",
"-570 2050 QCURVE SMOOTH",
"-619 2050 OFFCURVE",
"-650 2009 QCURVE",
"-603 1987 OFFCURVE",
"-603 1937 QCURVE SMOOTH",
"-603 1932 OFFCURVE",
"-604 1926 QCURVE",
"-604 1926 LINE"
);
}
);
width = 0;
}
);
note = uni17BA;
unicode = 17BA;
},
{
glyphname = uni17BB;
layers = (
{
layerId = "4245090C-1DC1-4B2E-AF8E-CDB91B981D5B";
paths = (
{
closed = 1;
nodes = (
"-510 -50 OFFCURVE",
"-510 -172 QCURVE",
"-430 -184 OFFCURVE",
"-430 -244 QCURVE SMOOTH",
"-430 -550 LINE",
"-180 -550 LINE",
"-180 -222 LINE SMOOTH",
"-180 -50 OFFCURVE",
"-340 -50 QCURVE",
"-340 -50 LINE"
);
}
);
width = 0;
}
);
note = uni17BB;
unicode = 17BB;
},
{
glyphname = uni17BC;
layers = (
{
layerId = "4245090C-1DC1-4B2E-AF8E-CDB91B981D5B";
paths = (
{
closed = 1;
nodes = (
"-299 -550 OFFCURVE",
"-133 -178 OFFCURVE",
"-133 -106 QCURVE SMOOTH",
"-133 -50 OFFCURVE",
"-208 -50 QCURVE SMOOTH",
"-262 -50 OFFCURVE",
"-427 -418 OFFCURVE",
"-500 -418 QCURVE SMOOTH",
"-560 -418 OFFCURVE",
"-560 -386 QCURVE SMOOTH",
"-560 -375 OFFCURVE",
"-553 -360 QCURVE SMOOTH",
"-512 -255 LINE SMOOTH",
"-491 -195 OFFCURVE",
"-491 -152 QCURVE SMOOTH",
"-491 -50 OFFCURVE",
"-644 -50 QCURVE SMOOTH",
"-804 -50 OFFCURVE",
"-804 -132 QCURVE",
"-720 -144 OFFCURVE",
"-720 -191 QCURVE SMOOTH",
"-720 -202 OFFCURVE",
"-724 -214 QCURVE SMOOTH",
"-774 -337 LINE SMOOTH",
"-780 -354 OFFCURVE",
"-780 -370 QCURVE SMOOTH",
"-780 -408 OFFCURVE",
"-703 -550 OFFCURVE",
"-500 -550 QCURVE",
"-500 -550 LINE"
);
}
);
width = 0;
}
);
note = uni17BC;
unicode = 17BC;
},
{
glyphname = uni17BD;
layers = (
{
layerId = "4245090C-1DC1-4B2E-AF8E-CDB91B981D5B";
paths = (
{
closed = 1;
nodes = (
"-426 -550 OFFCURVE",
"-343 -550 QCURVE SMOOTH",
"-157 -550 OFFCURVE",
"-103 -210 OFFCURVE",
"-103 -130 QCURVE SMOOTH",
"-103 -50 OFFCURVE",
"-192 -50 QCURVE SMOOTH",
"-231 -50 OFFCURVE",
"-265 -222 QCURVE SMOOTH",
"-300 -394 OFFCURVE",
"-343 -394 QCURVE SMOOTH",
"-409 -394 OFFCURVE",
"-450 -215 QCURVE",
"-591 -394 OFFCURVE",
"-633 -394 QCURVE SMOOTH",
"-642 -394 OFFCURVE",
"-642 -385 QCURVE SMOOTH",
"-642 -357 OFFCURVE",
"-550 -160 OFFCURVE",
"-550 -105 QCURVE SMOOTH",
"-550 -50 OFFCURVE",
"-653 -50 QCURVE SMOOTH",
"-810 -50 OFFCURVE",
"-810 -132 QCURVE",
"-748 -148 OFFCURVE",
"-748 -176 QCURVE SMOOTH",
"-748 -193 OFFCURVE",
"-769 -214 QCURVE",
"-849 -331 OFFCURVE",
"-849 -394 QCURVE SMOOTH",
"-849 -550 OFFCURVE",
"-753 -550 QCURVE SMOOTH",
"-618 -550 OFFCURVE",
"-481 -430 QCURVE",
"-481 -430 LINE"
);
}
);
width = 0;
}
);
note = uni17BD;
unicode = 17BD;
},
{
glyphname = uni17BE;
layers = (
{
layerId = "4245090C-1DC1-4B2E-AF8E-CDB91B981D5B";
paths = (
{
closed = 1;
nodes = (
"-820 1680 OFFCURVE",
"-820 1730 QCURVE SMOOTH",
"-820 1790 OFFCURVE",
"-730 1790 QCURVE SMOOTH",
"-599 1790 OFFCURVE",
"-480 1680 QCURVE",
"-770 1680 LINE",
"-770 1680 LINE"
);
},
{
closed = 1;
nodes = (
"-557 1950 OFFCURVE",
"-780 1950 QCURVE SMOOTH",
"-1060 1950 OFFCURVE",
"-1060 1730 QCURVE SMOOTH",
"-1060 1520 OFFCURVE",
"-820 1520 QCURVE SMOOTH",
"-300 1520 LINE SMOOTH",
"-180 1520 OFFCURVE",
"-180 1585 QCURVE SMOOTH",
"-180 1612 OFFCURVE",
"-213 1655 QCURVE",
"-180 1770 OFFCURVE",
"-180 1865 QCURVE SMOOTH",
"-180 2000 OFFCURVE",
"-322 2000 QCURVE SMOOTH",
"-404 2000 OFFCURVE",
"-430 1959 QCURVE",
"-370 1937 OFFCURVE",
"-370 1867 QCURVE SMOOTH",
"-370 1841 OFFCURVE",
"-377 1809 QCURVE",
"-377 1809 LINE"
);
}
);
width = 0;
}
);
note = uni17BE;
unicode = 17BE;
},
{
glyphname = uni17BF;
layers = (
{
layerId = "4245090C-1DC1-4B2E-AF8E-CDB91B981D5B";
paths = (
{
closed = 1;
nodes = (
"-360 1680 OFFCURVE",
"-360 1730 QCURVE SMOOTH",
"-360 1790 OFFCURVE",
"-270 1790 QCURVE SMOOTH",
"-139 1790 OFFCURVE",
"-20 1680 QCURVE",
"-310 1680 LINE",
"-310 1680 LINE"
);
},
{
closed = 1;
nodes = (
"280 1776 OFFCURVE",
"280 1865 QCURVE SMOOTH",
"280 2000 OFFCURVE",
"138 2000 QCURVE SMOOTH",
"86 2000 OFFCURVE",
"60 1959 QCURVE",
"90 1937 OFFCURVE",
"90 1867 QCURVE SMOOTH",
"90 1841 OFFCURVE",
"83 1809 QCURVE",
"42 1841 OFFCURVE",
"-2 1866 QCURVE",
"2 1878 LINE SMOOTH",
"11 1909 OFFCURVE",
"11 1935 QCURVE SMOOTH",
"11 2050 OFFCURVE",
"-110 2050 QCURVE SMOOTH",
"-159 2050 OFFCURVE",
"-190 2009 QCURVE",
"-143 1987 OFFCURVE",
"-143 1937 QCURVE SMOOTH",
"-143 1932 OFFCURVE",
"-144 1926 QCURVE",
"-228 1950 OFFCURVE",
"-320 1950 QCURVE SMOOTH",
"-600 1950 OFFCURVE",
"-600 1730 QCURVE SMOOTH",
"-600 1520 OFFCURVE",
"-360 1520 QCURVE SMOOTH",
"80 1520 LINE SMOOTH",
"180 1520 OFFCURVE",
"180 1350 QCURVE SMOOTH",
"180 -250 LINE SMOOTH",
"180 -400 OFFCURVE",
"0 -400 QCURVE SMOOTH",
"-180 -400 OFFCURVE",
"-180 -250 QCURVE SMOOTH",
"-180 -100 LINE",
"-430 -100 LINE",
"-430 -250 LINE SMOOTH",
"-430 -550 OFFCURVE",
"0 -550 QCURVE SMOOTH",
"430 -550 OFFCURVE",
"430 -250 QCURVE SMOOTH",
"430 1350 LINE SMOOTH",
"430 1533 OFFCURVE",
"251 1670 QCURVE",
"251 1670 LINE"
);
}
);
width = 610;
}
);
note = uni17BF;
unicode = 17BF;
},
{
glyphname = uni17C0;
layers = (
{
layerId = "4245090C-1DC1-4B2E-AF8E-CDB91B981D5B";
paths = (
{
closed = 1;
nodes = (
"180 -250 LINE SMOOTH",
"180 -400 OFFCURVE",
"0 -400 QCURVE SMOOTH",
"-180 -400 OFFCURVE",
"-180 -250 QCURVE SMOOTH",
"-180 -100 LINE",
"-430 -100 LINE",
"-430 -250 LINE SMOOTH",
"-430 -550 OFFCURVE",
"0 -550 QCURVE SMOOTH",
"430 -550 OFFCURVE",
"430 -250 QCURVE SMOOTH",
"430 1340 LINE SMOOTH",
"430 1650 OFFCURVE",
"-4 1650 QCURVE SMOOTH",
"-100 1650 LINE SMOOTH",
"-170 1650 OFFCURVE",
"-170 1691 QCURVE SMOOTH",
"-170 1728 OFFCURVE",
"-130 1782 OFFCURVE",
"-130 1845 QCURVE SMOOTH",
"-130 2000 OFFCURVE",
"-307 2000 QCURVE SMOOTH",
"-474 2000 OFFCURVE",
"-474 1896 QCURVE",
"-380 1896 OFFCURVE",
"-380 1845 QCURVE SMOOTH",
"-380 1793 OFFCURVE",
"-420 1724 OFFCURVE",
"-420 1691 QCURVE SMOOTH",
"-420 1490 OFFCURVE",
"-120 1490 QCURVE SMOOTH",
"-4 1490 LINE SMOOTH",
"180 1490 OFFCURVE",
"180 1340 QCURVE",
"180 1340 LINE"
);
}
);
width = 610;
}
);
note = uni17C0;
unicode = 17C0;
},
{
glyphname = uni17C1;
layers = (
{
layerId = "4245090C-1DC1-4B2E-AF8E-CDB91B981D5B";
paths = (
{
closed = 1;
nodes = (
"180 210 LINE SMOOTH",
"180 0 OFFCURVE",
"415 0 QCURVE SMOOTH",
"640 0 OFFCURVE",
"640 218 QCURVE SMOOTH",
"640 303 OFFCURVE",
"562 433 OFFCURVE",
"465 433 QCURVE",
"445 383 LINE",
"490 333 OFFCURVE",
"490 218 QCURVE SMOOTH",
"490 170 OFFCURVE",
"465 170 QCURVE SMOOTH",
"430 170 OFFCURVE",
"430 210 QCURVE SMOOTH",
"430 786 LINE SMOOTH",
"430 912 OFFCURVE",
"216 991 QCURVE",
"239 1074 OFFCURVE",
"311 1074 QCURVE",
"390 1016 OFFCURVE",
"505 1016 QCURVE SMOOTH",
"620 1016 OFFCURVE",
"640 1223 QCURVE",
"613 1210 OFFCURVE",
"574 1210 QCURVE SMOOTH",
"544 1210 OFFCURVE",
"360 1300 OFFCURVE",
"298 1300 QCURVE SMOOTH",
"216 1300 OFFCURVE",
"74 1106 OFFCURVE",
"50 1004 QCURVE",
"90 882 LINE",
"180 862 OFFCURVE",
"180 756 QCURVE",
"180 756 LINE"
);
}
);
width = 690;
}
);
note = uni17C1;
unicode = 17C1;
},
{
glyphname = uni17C2;
layers = (
{
layerId = "4245090C-1DC1-4B2E-AF8E-CDB91B981D5B";
paths = (
{
closed = 1;
nodes = (
"280 1710 OFFCURVE",
"155 1710 QCURVE SMOOTH",
"30 1710 OFFCURVE",
"30 1560 QCURVE SMOOTH",
"30 1390 OFFCURVE",
"300 1390 QCURVE SMOOTH",
"650 1390 OFFCURVE",
"650 1680 QCURVE SMOOTH",
"650 1920 OFFCURVE",
"350 1920 QCURVE SMOOTH",
"230 1920 OFFCURVE",
"230 1800 QCURVE",
"410 1800 OFFCURVE",
"410 1680 QCURVE SMOOTH",
"410 1530 OFFCURVE",
"300 1530 QCURVE SMOOTH",
"225 1530 OFFCURVE",
"225 1585 QCURVE SMOOTH",
"225 1610 OFFCURVE",
"280 1610 QCURVE",
"280 1610 LINE"
);
},
{
closed = 1;
nodes = (
"180 210 LINE SMOOTH",
"180 0 OFFCURVE",
"415 0 QCURVE SMOOTH",
"640 0 OFFCURVE",
"640 218 QCURVE SMOOTH",
"640 303 OFFCURVE",
"562 433 OFFCURVE",
"465 433 QCURVE",
"445 383 LINE",
"490 333 OFFCURVE",
"490 218 QCURVE SMOOTH",
"490 170 OFFCURVE",
"465 170 QCURVE SMOOTH",
"430 170 OFFCURVE",
"430 210 QCURVE SMOOTH",
"430 786 LINE SMOOTH",
"430 912 OFFCURVE",
"216 991 QCURVE",
"239 1074 OFFCURVE",
"311 1074 QCURVE",
"390 1016 OFFCURVE",
"505 1016 QCURVE SMOOTH",
"620 1016 OFFCURVE",
"640 1223 QCURVE",
"613 1210 OFFCURVE",
"574 1210 QCURVE SMOOTH",
"544 1210 OFFCURVE",
"360 1300 OFFCURVE",
"298 1300 QCURVE SMOOTH",
"216 1300 OFFCURVE",
"74 1106 OFFCURVE",
"50 1004 QCURVE",
"90 882 LINE",
"180 862 OFFCURVE",
"180 756 QCURVE",
"180 756 LINE"
);
}
);
width = 690;
}
);
note = uni17C2;
unicode = 17C2;
},
{
glyphname = uni17C3;
layers = (
{
layerId = "4245090C-1DC1-4B2E-AF8E-CDB91B981D5B";
paths = (
{
closed = 1;
nodes = (
"80 1630 OFFCURVE",
"80 1530 QCURVE SMOOTH",
"80 1400 OFFCURVE",
"313 1400 QCURVE SMOOTH",
"620 1400 OFFCURVE",
"620 1620 QCURVE SMOOTH",
"620 1850 OFFCURVE",
"333 1850 QCURVE",
"287 1830 LINE",
"287 1900 OFFCURVE",
"255 1945 QCURVE SMOOTH",
"222 1990 OFFCURVE",
"120 1990 QCURVE SMOOTH",
"20 1990 OFFCURVE",
"20 1890 QCURVE",
"80 1890 OFFCURVE",
"80 1810 QCURVE SMOOTH",
"80 1710 OFFCURVE",
"207 1710 QCURVE SMOOTH",
"333 1710 LINE SMOOTH",
"384 1710 OFFCURVE",
"384 1620 QCURVE SMOOTH",
"384 1530 OFFCURVE",
"313 1530 QCURVE SMOOTH",
"257 1530 OFFCURVE",
"257 1575 QCURVE SMOOTH",
"257 1630 OFFCURVE",
"169 1630 QCURVE",
"169 1630 LINE"
);
},
{
closed = 1;
nodes = (
"180 210 LINE SMOOTH",
"180 0 OFFCURVE",
"415 0 QCURVE SMOOTH",
"640 0 OFFCURVE",
"640 218 QCURVE SMOOTH",
"640 303 OFFCURVE",
"562 433 OFFCURVE",
"465 433 QCURVE",
"445 383 LINE",
"490 333 OFFCURVE",
"490 218 QCURVE SMOOTH",
"490 170 OFFCURVE",
"465 170 QCURVE SMOOTH",
"430 170 OFFCURVE",
"430 210 QCURVE SMOOTH",
"430 786 LINE SMOOTH",
"430 912 OFFCURVE",
"216 991 QCURVE",
"239 1074 OFFCURVE",
"311 1074 QCURVE",
"390 1016 OFFCURVE",
"505 1016 QCURVE SMOOTH",
"620 1016 OFFCURVE",
"640 1223 QCURVE",
"613 1210 OFFCURVE",
"574 1210 QCURVE SMOOTH",
"544 1210 OFFCURVE",
"360 1300 OFFCURVE",
"298 1300 QCURVE SMOOTH",
"216 1300 OFFCURVE",
"74 1106 OFFCURVE",
"50 1004 QCURVE",
"90 882 LINE",
"180 862 OFFCURVE",
"180 756 QCURVE",
"180 756 LINE"
);
}
);
width = 690;
}
);
note = uni17C3;
unicode = 17C3;
},
{
glyphname = uni17C4;
layers = (
{
layerId = "4245090C-1DC1-4B2E-AF8E-CDB91B981D5B";
paths = (
{
closed = 1;
nodes = (
"-94 1109 OFFCURVE",
"-17 1109 QCURVE SMOOTH",
"35 1109 OFFCURVE",
"210 966 OFFCURVE",
"210 928 QCURVE SMOOTH",
"210 0 LINE",
"460 0 LINE",
"460 928 LINE SMOOTH",
"460 1073 OFFCURVE",
"132 1300 OFFCURVE",
"23 1300 QCURVE SMOOTH",
"-68 1300 OFFCURVE",
"-160 1244 QCURVE SMOOTH",
"-215 1210 OFFCURVE",
"-215 1127 QCURVE SMOOTH",
"-215 1043 OFFCURVE",
"-192 1015 QCURVE",
"-192 1015 LINE"
);
}
);
width = 640;
}
);
note = uni17C4;
unicode = 17C4;
},
{
glyphname = uni17C5;
layers = (
{
layerId = "4245090C-1DC1-4B2E-AF8E-CDB91B981D5B";
paths = (
{
closed = 1;
nodes = (
"500 1133 OFFCURVE",
"500 1214 QCURVE SMOOTH",
"500 1474 LINE SMOOTH",
"500 1677 OFFCURVE",
"315 1677 QCURVE SMOOTH",
"150 1677 OFFCURVE",
"150 1560 QCURVE",
"250 1560 OFFCURVE",
"250 1474 QCURVE SMOOTH",
"250 1122 LINE",
"415 1001 LINE",
"415 1001 LINE"
);
},
{
closed = 1;
nodes = (
"-94 1109 OFFCURVE",
"-17 1109 QCURVE SMOOTH",
"35 1109 OFFCURVE",
"210 966 OFFCURVE",
"210 928 QCURVE SMOOTH",
"210 0 LINE",
"460 0 LINE",
"460 928 LINE SMOOTH",
"460 1073 OFFCURVE",
"132 1300 OFFCURVE",
"23 1300 QCURVE SMOOTH",
"-68 1300 OFFCURVE",
"-160 1244 QCURVE SMOOTH",
"-215 1210 OFFCURVE",
"-215 1127 QCURVE SMOOTH",
"-215 1043 OFFCURVE",
"-192 1015 QCURVE",
"-192 1015 LINE"
);
}
);
width = 640;
}
);
note = uni17C5;
unicode = 17C5;
},
{
glyphname = uni17C6;
layers = (
{
layerId = "4245090C-1DC1-4B2E-AF8E-CDB91B981D5B";
paths = (
{
closed = 1;
nodes = (
"-555 1805 OFFCURVE",
"-555 1725 QCURVE SMOOTH",
"-555 1645 OFFCURVE",
"-625 1645 QCURVE SMOOTH",
"-695 1645 OFFCURVE",
"-695 1725 QCURVE SMOOTH",
"-695 1805 OFFCURVE",
"-625 1805 QCURVE",
"-625 1805 LINE"
);
},
{
closed = 1;
nodes = (
"-870 1950 OFFCURVE",
"-870 1725 QCURVE SMOOTH",
"-870 1500 OFFCURVE",
"-625 1500 QCURVE SMOOTH",
"-380 1500 OFFCURVE",
"-380 1725 QCURVE SMOOTH",
"-380 1950 OFFCURVE",
"-625 1950 QCURVE",
"-625 1950 LINE"
);
}
);
width = 0;
}
);
note = uni17C6;
unicode = 17C6;
},
{
glyphname = uni17C7;
layers = (
{
layerId = "4245090C-1DC1-4B2E-AF8E-CDB91B981D5B";
paths = (
{
closed = 1;
nodes = (
"495 1155 OFFCURVE",
"495 1075 QCURVE SMOOTH",
"495 995 OFFCURVE",
"425 995 QCURVE SMOOTH",
"355 995 OFFCURVE",
"355 1075 QCURVE SMOOTH",
"355 1155 OFFCURVE",
"425 1155 QCURVE",
"425 1155 LINE"
);
},
{
closed = 1;
nodes = (
"180 1300 OFFCURVE",
"180 1075 QCURVE SMOOTH",
"180 850 OFFCURVE",
"425 850 QCURVE SMOOTH",
"670 850 OFFCURVE",
"670 1075 QCURVE SMOOTH",
"670 1300 OFFCURVE",
"425 1300 QCURVE",
"425 1300 LINE"
);
},
{
closed = 1;
nodes = (
"495 305 OFFCURVE",
"495 225 QCURVE SMOOTH",
"495 145 OFFCURVE",
"425 145 QCURVE SMOOTH",
"355 145 OFFCURVE",
"355 225 QCURVE SMOOTH",
"355 305 OFFCURVE",
"425 305 QCURVE",
"425 305 LINE"
);
},
{
closed = 1;
nodes = (
"180 450 OFFCURVE",
"180 225 QCURVE SMOOTH",
"180 0 OFFCURVE",
"425 0 QCURVE SMOOTH",
"670 0 OFFCURVE",
"670 225 QCURVE SMOOTH",
"670 450 OFFCURVE",
"425 450 QCURVE",
"425 450 LINE"
);
}
);
width = 850;
}
);
note = uni17C7;
unicode = 17C7;
},
{
glyphname = uni17C8;
layers = (
{
layerId = "4245090C-1DC1-4B2E-AF8E-CDB91B981D5B";
paths = (
{
closed = 1;
nodes = (
"280 330 OFFCURVE",
"196 291 OFFCURVE",
"150 219 OFFCURVE",
"150 180 QCURVE SMOOTH",
"150 141 OFFCURVE",
"196 70 OFFCURVE",
"280 30 OFFCURVE",
"325 30 QCURVE SMOOTH",
"371 30 OFFCURVE",
"454 70 OFFCURVE",
"500 141 OFFCURVE",
"500 180 QCURVE SMOOTH",
"500 219 OFFCURVE",
"452 291 OFFCURVE",
"370 330 OFFCURVE",
"325 330 QCURVE",
"325 330 LINE"
);
},
{
closed = 1;
nodes = (
"280 1220 OFFCURVE",
"196 1181 OFFCURVE",
"150 1109 OFFCURVE",
"150 1070 QCURVE SMOOTH",
"150 1031 OFFCURVE",
"196 960 OFFCURVE",
"280 920 OFFCURVE",
"325 920 QCURVE SMOOTH",
"371 920 OFFCURVE",
"454 960 OFFCURVE",
"500 1031 OFFCURVE",
"500 1070 QCURVE SMOOTH",
"500 1109 OFFCURVE",
"452 1181 OFFCURVE",
"370 1220 OFFCURVE",
"325 1220 QCURVE",
"325 1220 LINE"
);
}
);
width = 680;
}
);
note = uni17C8;
unicode = 17C8;
},
{
glyphname = uni17C9;
layers = (
{
layerId = "4245090C-1DC1-4B2E-AF8E-CDB91B981D5B";
paths = (
{
closed = 1;
nodes = (
"-910 1930 LINE",
"-910 1580 LINE SMOOTH",
"-910 1500 OFFCURVE",
"-807 1480 QCURVE",
"-705 1500 OFFCURVE",
"-705 1580 QCURVE SMOOTH",
"-705 1930 LINE",
"-705 1930 LINE"
);
},
{
closed = 1;
nodes = (
"-545 1930 LINE",
"-545 1580 LINE SMOOTH",
"-545 1500 OFFCURVE",
"-442 1480 QCURVE",
"-340 1500 OFFCURVE",
"-340 1580 QCURVE SMOOTH",
"-340 1930 LINE",
"-340 1930 LINE"
);
}
);
width = 0;
}
);
note = uni17C9;
unicode = 17C9;
},
{
glyphname = uni17CA;
layers = (
{
layerId = "4245090C-1DC1-4B2E-AF8E-CDB91B981D5B";
paths = (
{
closed = 1;
nodes = (
"-902 1317 OFFCURVE",
"-860 1377 QCURVE",
"-880 1373 OFFCURVE",
"-898 1373 QCURVE SMOOTH",
"-943 1373 OFFCURVE",
"-985 1410 QCURVE",
"-968 1457 OFFCURVE",
"-931 1457 QCURVE SMOOTH",
"-894 1457 OFFCURVE",
"-619 1332 QCURVE",
"-548 1446 OFFCURVE",
"-487 1446 QCURVE",
"-338 1317 OFFCURVE",
"-208 1317 QCURVE SMOOTH",
"-159 1317 OFFCURVE",
"-100 1426 OFFCURVE",
"-100 1498 QCURVE",
"-117 1481 OFFCURVE",
"-160 1481 QCURVE SMOOTH",
"-189 1481 OFFCURVE",
"-350 1620 OFFCURVE",
"-415 1620 QCURVE SMOOTH",
"-486 1620 OFFCURVE",
"-601 1519 QCURVE",
"-741 1620 OFFCURVE",
"-885 1620 QCURVE SMOOTH",
"-948 1620 OFFCURVE",
"-1096 1506 OFFCURVE",
"-1150 1415 QCURVE",
"-1150 1375 OFFCURVE",
"-1018 1317 OFFCURVE",
"-960 1317 QCURVE",
"-960 1317 LINE"
);
}
);
width = 0;
}
);
note = uni17CA;
unicode = 17CA;
},
{
glyphname = uni17CB;
layers = (
{
layerId = "4245090C-1DC1-4B2E-AF8E-CDB91B981D5B";
paths = (
{
closed = 1;
nodes = (
"-750 2000 LINE",
"-750 1570 LINE SMOOTH",
"-750 1490 OFFCURVE",
"-625 1470 QCURVE",
"-500 1490 OFFCURVE",
"-500 1570 QCURVE SMOOTH",
"-500 2000 LINE",
"-500 2000 LINE"
);
}
);
width = 0;
}
);
note = uni17CB;
unicode = 17CB;
},
{
glyphname = uni17CC;
layers = (
{
layerId = "4245090C-1DC1-4B2E-AF8E-CDB91B981D5B";
paths = (
{
closed = 1;
nodes = (
"-754 1487 OFFCURVE",
"-711 1503 QCURVE SMOOTH",
"-683 1513 OFFCURVE",
"-622 1513 QCURVE SMOOTH",
"-591 1513 OFFCURVE",
"-550 1510 QCURVE SMOOTH",
"-482 1502 OFFCURVE",
"-438 1441 QCURVE SMOOTH",
"-408 1400 OFFCURVE",
"-370 1400 QCURVE SMOOTH",
"-310 1400 OFFCURVE",
"-289 1411 QCURVE SMOOTH",
"-251 1428 OFFCURVE",
"-251 1459 QCURVE SMOOTH",
"-251 1511 OFFCURVE",
"-311 1569 QCURVE SMOOTH",
"-360 1615 OFFCURVE",
"-439 1615 QCURVE SMOOTH",
"-459 1615 OFFCURVE",
"-480 1612 QCURVE SMOOTH",
"-588 1598 OFFCURVE",
"-630 1584 QCURVE",
"-531 1659 OFFCURVE",
"-368 1859 OFFCURVE",
"-367 1918 QCURVE SMOOTH",
"-367 2000 OFFCURVE",
"-491 2000 QCURVE SMOOTH",
"-606 2000 OFFCURVE",
"-606 1918 QCURVE SMOOTH",
"-606 1883 OFFCURVE",
"-679 1705 OFFCURVE",
"-821 1626 QCURVE SMOOTH",
"-915 1573 LINE SMOOTH",
"-979 1537 OFFCURVE",
"-979 1453 QCURVE SMOOTH",
"-979 1438 OFFCURVE",
"-966 1422 QCURVE SMOOTH",
"-946 1400 OFFCURVE",
"-914 1400 QCURVE SMOOTH",
"-876 1400 OFFCURVE",
"-815 1444 QCURVE",
"-815 1444 LINE"
);
}
);
width = 0;
}
);
note = uni17CC;
unicode = 17CC;
},
{
glyphname = uni17CD;
layers = (
{
layerId = "4245090C-1DC1-4B2E-AF8E-CDB91B981D5B";
paths = (
{
closed = 1;
nodes = (
"-670 1720 OFFCURVE",
"-605 1720 QCURVE SMOOTH",
"-542 1720 OFFCURVE",
"-468 1650 QCURVE",
"-434 1650 OFFCURVE",
"-398 1661 QCURVE",
"-323 1698 OFFCURVE",
"-262 1747 QCURVE SMOOTH",
"-202 1797 OFFCURVE",
"-173 1834 QCURVE SMOOTH",
"-152 1861 OFFCURVE",
"-152 1890 QCURVE SMOOTH",
"-152 1899 OFFCURVE",
"-154 1909 QCURVE SMOOTH",
"-163 1947 OFFCURVE",
"-202 1977 QCURVE",
"-255 1923 OFFCURVE",
"-319 1880 QCURVE SMOOTH",
"-384 1836 OFFCURVE",
"-460 1811 QCURVE",
"-508 1870 OFFCURVE",
"-635 1870 QCURVE SMOOTH",
"-875 1870 OFFCURVE",
"-875 1655 QCURVE SMOOTH",
"-875 1450 OFFCURVE",
"-640 1450 QCURVE SMOOTH",
"-543 1450 OFFCURVE",
"-499 1480 QCURVE SMOOTH",
"-455 1510 OFFCURVE",
"-455 1569 QCURVE SMOOTH",
"-455 1610 OFFCURVE",
"-525 1610 QCURVE SMOOTH",
"-545 1610 OFFCURVE",
"-615 1600 OFFCURVE",
"-645 1600 QCURVE SMOOTH",
"-670 1600 OFFCURVE",
"-670 1656 QCURVE",
"-670 1656 LINE"
);
}
);
width = 0;
}
);
note = uni17CD;
unicode = 17CD;
},
{
glyphname = uni17CE;
layers = (
{
layerId = "4245090C-1DC1-4B2E-AF8E-CDB91B981D5B";
paths = (
{
closed = 1;
nodes = (
"-735 1470 LINE",
"-515 1470 LINE",
"-515 1629 LINE",
"-355 1629 LINE",
"-355 1790 LINE",
"-515 1790 LINE",
"-515 1949 LINE",
"-735 1949 LINE",
"-735 1790 LINE",
"-895 1790 LINE",
"-895 1629 LINE",
"-735 1629 LINE",
"-735 1629 LINE"
);
}
);
width = 0;
}
);
note = uni17CE;
unicode = 17CE;
},
{
glyphname = uni17CF;
layers = (
{
layerId = "4245090C-1DC1-4B2E-AF8E-CDB91B981D5B";
paths = (
{
closed = 1;
nodes = (
"-572 2030 OFFCURVE",
"-645 1831 QCURVE",
"-1025 1831 OFFCURVE",
"-1025 1619 QCURVE SMOOTH",
"-1025 1450 OFFCURVE",
"-770 1450 QCURVE SMOOTH",
"-685 1450 OFFCURVE",
"-615 1535 QCURVE",
"-545 1450 OFFCURVE",
"-450 1450 QCURVE SMOOTH",
"-205 1450 OFFCURVE",
"-205 1597 QCURVE SMOOTH",
"-205 1704 OFFCURVE",
"-375 1704 QCURVE SMOOTH",
"-475 1704 OFFCURVE",
"-475 1619 QCURVE",
"-445 1619 OFFCURVE",
"-445 1597 QCURVE SMOOTH",
"-445 1575 OFFCURVE",
"-455 1575 QCURVE SMOOTH",
"-505 1575 OFFCURVE",
"-615 1650 QCURVE",
"-725 1575 OFFCURVE",
"-765 1575 QCURVE SMOOTH",
"-785 1575 OFFCURVE",
"-785 1619 QCURVE SMOOTH",
"-785 1716 OFFCURVE",
"-595 1716 QCURVE SMOOTH",
"-493 1716 LINE",
"-400 1833 OFFCURVE",
"-365 1833 QCURVE SMOOTH",
"-226 1833 OFFCURVE",
"-226 1937 QCURVE SMOOTH",
"-226 2030 OFFCURVE",
"-395 2030 QCURVE",
"-395 2030 LINE"
);
}
);
width = 0;
}
);
note = uni17CF;
unicode = 17CF;
},
{
glyphname = uni17D0;
layers = (
{
layerId = "4245090C-1DC1-4B2E-AF8E-CDB91B981D5B";
paths = (
{
closed = 1;
nodes = (
"-700 1778 OFFCURVE",
"-700 1652 QCURVE SMOOTH",
"-700 1463 OFFCURVE",
"-400 1463 QCURVE SMOOTH",
"20 1463 OFFCURVE",
"20 1727 QCURVE SMOOTH",
"20 1820 OFFCURVE",
"-105 1913 OFFCURVE",
"-180 1913 QCURVE SMOOTH",
"-280 1913 OFFCURVE",
"-280 1841 QCURVE",
"-200 1819 OFFCURVE",
"-200 1727 QCURVE SMOOTH",
"-200 1588 OFFCURVE",
"-400 1588 QCURVE SMOOTH",
"-520 1588 OFFCURVE",
"-520 1652 QCURVE",
"-485 1652 OFFCURVE",
"-475 1610 QCURVE",
"-400 1610 OFFCURVE",
"-400 1690 QCURVE SMOOTH",
"-400 1778 OFFCURVE",
"-530 1778 QCURVE",
"-530 1778 LINE"
);
}
);
width = 0;
}
);
note = uni17D0;
unicode = 17D0;
},
{
glyphname = uni17D1;
layers = (
{
layerId = "4245090C-1DC1-4B2E-AF8E-CDB91B981D5B";
paths = (
{
closed = 1;
nodes = (
"-1050 1800 LINE",
"-1050 1650 LINE",
"-200 1650 LINE",
"-200 1800 LINE",
"-200 1800 LINE"
);
}
);
width = 0;
}
);
note = uni17D1;
unicode = 17D1;
},
{
glyphname = uni17D2;
layers = (
{
layerId = "4245090C-1DC1-4B2E-AF8E-CDB91B981D5B";
paths = (
{
closed = 1;
nodes = (
"-425 -350 LINE",
"-575 -350 LINE",
"-575 -200 LINE",
"-675 -200 LINE",
"-675 -350 LINE",
"-825 -350 LINE",
"-825 -450 LINE",
"-675 -450 LINE",
"-675 -600 LINE",
"-575 -600 LINE",
"-575 -450 LINE",
"-425 -450 LINE",
"-425 -450 LINE"
);
}
);
width = 0;
}
);
note = uni17D2;
unicode = 17D2;
},
{
glyphname = uni17D3;
layers = (
{
layerId = "4245090C-1DC1-4B2E-AF8E-CDB91B981D5B";
paths = (
{
closed = 1;
nodes = (
"-675 1800 OFFCURVE",
"-663 1825 QCURVE SMOOTH",
"-650 1850 OFFCURVE",
"-625 1850 QCURVE SMOOTH",
"-600 1850 OFFCURVE",
"-587 1825 QCURVE SMOOTH",
"-575 1800 OFFCURVE",
"-575 1750 QCURVE SMOOTH",
"-575 1700 OFFCURVE",
"-587 1675 QCURVE SMOOTH",
"-600 1650 OFFCURVE",
"-625 1650 QCURVE SMOOTH",
"-650 1650 OFFCURVE",
"-663 1675 QCURVE SMOOTH",
"-675 1700 OFFCURVE",
"-675 1750 QCURVE",
"-675 1750 LINE"
);
},
{
closed = 1;
nodes = (
"-375 1850 OFFCURVE",
"-438 1900 QCURVE SMOOTH",
"-500 1950 OFFCURVE",
"-625 1950 QCURVE SMOOTH",
"-750 1950 OFFCURVE",
"-812 1900 QCURVE SMOOTH",
"-875 1850 OFFCURVE",
"-875 1750 QCURVE SMOOTH",
"-875 1650 OFFCURVE",
"-812 1600 QCURVE SMOOTH",
"-750 1550 OFFCURVE",
"-625 1550 QCURVE SMOOTH",
"-500 1550 OFFCURVE",
"-438 1600 QCURVE SMOOTH",
"-375 1650 OFFCURVE",
"-375 1750 QCURVE",
"-375 1750 LINE"
);
}
);
width = 0;
}
);
note = uni17D3;
unicode = 17D3;
},
{
glyphname = uni17D4;
layers = (
{
layerId = "4245090C-1DC1-4B2E-AF8E-CDB91B981D5B";
paths = (
{
closed = 1;
nodes = (
"778 960 OFFCURVE",
"630 960 QCURVE SMOOTH",
"530 960 OFFCURVE",
"530 1050 QCURVE SMOOTH",
"530 1170 OFFCURVE",
"680 1170 QCURVE",
"680 1300 OFFCURVE",
"550 1300 QCURVE SMOOTH",
"280 1300 OFFCURVE",
"280 1050 QCURVE SMOOTH",
"280 800 OFFCURVE",
"630 800 QCURVE SMOOTH",
"802 800 OFFCURVE",
"920 961 QCURVE",
"920 255 LINE SMOOTH",
"920 151 OFFCURVE",
"770 151 QCURVE",
"770 0 OFFCURVE",
"950 0 QCURVE SMOOTH",
"1170 0 OFFCURVE",
"1170 255 QCURVE SMOOTH",
"1170 1300 LINE",
"920 1300 LINE",
"920 1192 LINE",
"920 1192 LINE"
);
}
);
width = 1350;
}
);
note = uni17D4;
unicode = 17D4;
},
{
glyphname = uni17D5;
layers = (
{
layerId = "4245090C-1DC1-4B2E-AF8E-CDB91B981D5B";
paths = (
{
closed = 1;
nodes = (
"1280 180 LINE SMOOTH",
"1280 87 OFFCURVE",
"1255 54 QCURVE SMOOTH",
"1230 22 OFFCURVE",
"1180 0 QCURVE",
"1530 0 OFFCURVE",
"1530 180 QCURVE SMOOTH",
"1530 1300 LINE",
"1280 1300 LINE",
"1280 1300 LINE"
);
},
{
closed = 1;
nodes = (
"778 960 OFFCURVE",
"630 960 QCURVE SMOOTH",
"530 960 OFFCURVE",
"530 1050 QCURVE SMOOTH",
"530 1170 OFFCURVE",
"680 1170 QCURVE",
"680 1300 OFFCURVE",
"550 1300 QCURVE SMOOTH",
"280 1300 OFFCURVE",
"280 1050 QCURVE SMOOTH",
"280 800 OFFCURVE",
"630 800 QCURVE SMOOTH",
"802 800 OFFCURVE",
"920 961 QCURVE",
"920 255 LINE SMOOTH",
"920 151 OFFCURVE",
"770 151 QCURVE",
"770 0 OFFCURVE",
"950 0 QCURVE SMOOTH",
"1170 0 OFFCURVE",
"1170 255 QCURVE SMOOTH",
"1170 1300 LINE",
"920 1300 LINE",
"920 1192 LINE",
"920 1192 LINE"
);
}
);
width = 1710;
}
);
note = uni17D5;
unicode = 17D5;
},
{
glyphname = uni17D6;
layers = (
{
layerId = "4245090C-1DC1-4B2E-AF8E-CDB91B981D5B";
paths = (
{
closed = 1;
nodes = (
"850 575 LINE",
"850 725 LINE",
"50 725 LINE",
"50 575 LINE",
"50 575 LINE"
);
},
{
closed = 1;
nodes = (
"495 1155 OFFCURVE",
"495 1075 QCURVE SMOOTH",
"495 995 OFFCURVE",
"425 995 QCURVE SMOOTH",
"355 995 OFFCURVE",
"355 1075 QCURVE SMOOTH",
"355 1155 OFFCURVE",
"425 1155 QCURVE",
"425 1155 LINE"
);
},
{
closed = 1;
nodes = (
"180 1300 OFFCURVE",
"180 1075 QCURVE SMOOTH",
"180 850 OFFCURVE",
"425 850 QCURVE SMOOTH",
"670 850 OFFCURVE",
"670 1075 QCURVE SMOOTH",
"670 1300 OFFCURVE",
"425 1300 QCURVE",
"425 1300 LINE"
);
},
{
closed = 1;
nodes = (
"495 305 OFFCURVE",
"495 225 QCURVE SMOOTH",
"495 145 OFFCURVE",
"425 145 QCURVE SMOOTH",
"355 145 OFFCURVE",
"355 225 QCURVE SMOOTH",
"355 305 OFFCURVE",
"425 305 QCURVE",
"425 305 LINE"
);
},
{
closed = 1;
nodes = (
"180 450 OFFCURVE",
"180 225 QCURVE SMOOTH",
"180 0 OFFCURVE",
"425 0 QCURVE SMOOTH",
"670 0 OFFCURVE",
"670 225 QCURVE SMOOTH",
"670 450 OFFCURVE",
"425 450 QCURVE",
"425 450 LINE"
);
}
);
width = 900;
}
);
note = uni17D6;
unicode = 17D6;
},
{
glyphname = uni17D7;
layers = (
{
layerId = "4245090C-1DC1-4B2E-AF8E-CDB91B981D5B";
paths = (
{
closed = 1;
nodes = (
"1069 1000 LINE SMOOTH",
"1069 1122 OFFCURVE",
"935 1300 OFFCURVE",
"827 1300 QCURVE SMOOTH",
"718 1300 OFFCURVE",
"624 1176 QCURVE",
"531 1300 OFFCURVE",
"423 1300 QCURVE SMOOTH",
"314 1300 OFFCURVE",
"179 1122 OFFCURVE",
"179 1000 QCURVE SMOOTH",
"179 953 LINE SMOOTH",
"179 760 OFFCURVE",
"392 760 QCURVE SMOOTH",
"544 760 OFFCURVE",
"544 894 QCURVE SMOOTH",
"544 947 OFFCURVE",
"501 965 QCURVE",
"487 918 OFFCURVE",
"458 918 QCURVE SMOOTH",
"429 918 OFFCURVE",
"429 953 QCURVE SMOOTH",
"429 1000 LINE SMOOTH",
"429 1098 OFFCURVE",
"482 1098 QCURVE SMOOTH",
"534 1098 OFFCURVE",
"582 1004 QCURVE SMOOTH",
"598 972 OFFCURVE",
"624 972 QCURVE SMOOTH",
"650 972 OFFCURVE",
"666 1004 QCURVE SMOOTH",
"715 1098 OFFCURVE",
"767 1098 QCURVE SMOOTH",
"819 1098 OFFCURVE",
"819 1000 QCURVE SMOOTH",
"819 303 LINE SMOOTH",
"819 150 OFFCURVE",
"608 150 QCURVE SMOOTH",
"417 150 OFFCURVE",
"417 322 QCURVE",
"199 322 OFFCURVE",
"199 172 QCURVE SMOOTH",
"199 0 OFFCURVE",
"608 0 QCURVE SMOOTH",
"1069 0 OFFCURVE",
"1069 303 QCURVE",
"1069 303 LINE"
);
}
);
width = 1290;
}
);
note = uni17D7;
unicode = 17D7;
},
{
glyphname = uni17D8;
layers = (
{
layerId = "4245090C-1DC1-4B2E-AF8E-CDB91B981D5B";
paths = (
{
closed = 1;
nodes = (
"3878 960 OFFCURVE",
"3730 960 QCURVE SMOOTH",
"3630 960 OFFCURVE",
"3630 1050 QCURVE SMOOTH",
"3630 1170 OFFCURVE",
"3780 1170 QCURVE",
"3780 1300 OFFCURVE",
"3650 1300 QCURVE SMOOTH",
"3380 1300 OFFCURVE",
"3380 1050 QCURVE SMOOTH",
"3380 800 OFFCURVE",
"3730 800 QCURVE SMOOTH",
"3902 800 OFFCURVE",
"4020 961 QCURVE",
"4020 255 LINE SMOOTH",
"4020 151 OFFCURVE",
"3870 151 QCURVE",
"3870 0 OFFCURVE",
"4050 0 QCURVE SMOOTH",
"4270 0 OFFCURVE",
"4270 255 QCURVE SMOOTH",
"4270 1300 LINE",
"4020 1300 LINE",
"4020 1192 LINE",
"4020 1192 LINE"
);
},
{
closed = 1;
nodes = (
"3020 806 LINE SMOOTH",
"3020 932 OFFCURVE",
"2806 991 QCURVE",
"2829 1074 OFFCURVE",
"2861 1074 QCURVE",
"2940 1016 OFFCURVE",
"3015 1016 QCURVE SMOOTH",
"3130 1016 OFFCURVE",
"3150 1223 QCURVE",
"3123 1210 OFFCURVE",
"3084 1210 QCURVE SMOOTH",
"3054 1210 OFFCURVE",
"2910 1300 OFFCURVE",
"2848 1300 QCURVE SMOOTH",
"2786 1300 OFFCURVE",
"2664 1106 OFFCURVE",
"2640 1004 QCURVE",
"2680 882 LINE",
"2770 862 OFFCURVE",
"2770 756 QCURVE SMOOTH",
"2770 300 LINE SMOOTH",
"2770 160 OFFCURVE",
"2600 160 QCURVE SMOOTH",
"2430 160 OFFCURVE",
"2430 300 QCURVE SMOOTH",
"2430 1000 LINE SMOOTH",
"2430 1300 OFFCURVE",
"1980 1300 QCURVE SMOOTH",
"1530 1300 OFFCURVE",
"1530 1000 QCURVE SMOOTH",
"1530 230 LINE SMOOTH",
"1530 0 OFFCURVE",
"1785 0 QCURVE SMOOTH",
"2040 0 OFFCURVE",
"2040 268 QCURVE SMOOTH",
"2040 373 OFFCURVE",
"1912 503 OFFCURVE",
"1825 503 QCURVE",
"1805 433 LINE",
"1880 383 OFFCURVE",
"1880 268 QCURVE SMOOTH",
"1880 170 OFFCURVE",
"1825 170 QCURVE SMOOTH",
"1780 170 OFFCURVE",
"1780 230 QCURVE SMOOTH",
"1780 1000 LINE SMOOTH",
"1780 1140 OFFCURVE",
"1980 1140 QCURVE SMOOTH",
"2180 1140 OFFCURVE",
"2180 1000 QCURVE SMOOTH",
"2180 300 LINE SMOOTH",
"2180 0 OFFCURVE",
"2600 0 QCURVE SMOOTH",
"3020 0 OFFCURVE",
"3020 300 QCURVE",
"3020 300 LINE"
);
},
{
closed = 1;
nodes = (
"778 960 OFFCURVE",
"630 960 QCURVE SMOOTH",
"530 960 OFFCURVE",
"530 1050 QCURVE SMOOTH",
"530 1170 OFFCURVE",
"680 1170 QCURVE",
"680 1300 OFFCURVE",
"550 1300 QCURVE SMOOTH",
"280 1300 OFFCURVE",
"280 1050 QCURVE SMOOTH",
"280 800 OFFCURVE",
"630 800 QCURVE SMOOTH",
"802 800 OFFCURVE",
"920 961 QCURVE",
"920 255 LINE SMOOTH",
"920 151 OFFCURVE",
"770 151 QCURVE",
"770 0 OFFCURVE",
"950 0 QCURVE SMOOTH",
"1170 0 OFFCURVE",
"1170 255 QCURVE SMOOTH",
"1170 1300 LINE",
"920 1300 LINE",
"920 1192 LINE",
"920 1192 LINE"
);
}
);
width = 4450;
}
);
note = uni17D8;
unicode = 17D8;
},
{
glyphname = uni17D9;
layers = (
{
layerId = "4245090C-1DC1-4B2E-AF8E-CDB91B981D5B";
paths = (
{
closed = 1;
nodes = (
"1174 0 OFFCURVE",
"1338 163 QCURVE SMOOTH",
"1500 325 OFFCURVE",
"1500 650 QCURVE SMOOTH",
"1500 975 OFFCURVE",
"1338 1138 QCURVE SMOOTH",
"1174 1300 OFFCURVE",
"850 1300 QCURVE SMOOTH",
"526 1300 OFFCURVE",
"363 1138 QCURVE SMOOTH",
"200 975 OFFCURVE",
"200 650 QCURVE SMOOTH",
"200 325 OFFCURVE",
"363 163 QCURVE SMOOTH",
"526 0 OFFCURVE",
"850 0 QCURVE",
"850 0 LINE"
);
},
{
closed = 1;
nodes = (
"1361 1161 OFFCURVE",
"1361 650 QCURVE SMOOTH",
"1361 139 OFFCURVE",
"850 139 QCURVE SMOOTH",
"339 139 OFFCURVE",
"339 650 QCURVE SMOOTH",
"339 1161 OFFCURVE",
"850 1161 QCURVE",
"850 1161 LINE"
);
},
{
closed = 1;
nodes = (
"1037 279 OFFCURVE",
"1129 371 QCURVE SMOOTH",
"1221 464 OFFCURVE",
"1221 650 QCURVE SMOOTH",
"1221 836 OFFCURVE",
"1129 929 QCURVE SMOOTH",
"1037 1021 OFFCURVE",
"850 1021 QCURVE SMOOTH",
"663 1021 OFFCURVE",
"571 929 QCURVE SMOOTH",
"479 836 OFFCURVE",
"479 650 QCURVE SMOOTH",
"479 464 OFFCURVE",
"571 371 QCURVE SMOOTH",
"663 279 OFFCURVE",
"850 279 QCURVE",
"850 279 LINE"
);
},
{
closed = 1;
nodes = (
"965 882 OFFCURVE",
"1024 825 QCURVE SMOOTH",
"1082 766 OFFCURVE",
"1082 650 QCURVE SMOOTH",
"1082 534 OFFCURVE",
"1024 476 QCURVE SMOOTH",
"965 418 OFFCURVE",
"850 418 QCURVE SMOOTH",
"735 418 OFFCURVE",
"676 476 QCURVE SMOOTH",
"618 534 OFFCURVE",
"618 650 QCURVE SMOOTH",
"618 766 OFFCURVE",
"676 825 QCURVE SMOOTH",
"735 882 OFFCURVE",
"850 882 QCURVE",
"850 882 LINE"
);
}
);
width = 1700;
}
);
note = uni17D9;
unicode = 17D9;
},
{
glyphname = uni17DA;
layers = (
{
layerId = "4245090C-1DC1-4B2E-AF8E-CDB91B981D5B";
paths = (
{
closed = 1;
nodes = (
"3132 447 OFFCURVE",
"3132 441 QCURVE SMOOTH",
"3132 439 OFFCURVE",
"3131 438 QCURVE SMOOTH",
"3124 432 OFFCURVE",
"3118 432 QCURVE SMOOTH",
"3111 432 OFFCURVE",
"3106 439 QCURVE SMOOTH",
"3105 441 OFFCURVE",
"3105 444 QCURVE SMOOTH",
"3105 452 OFFCURVE",
"3121 466 QCURVE",
"3121 466 LINE"
);
},
{
closed = 1;
nodes = (
"1786 856 OFFCURVE",
"1781 864 QCURVE SMOOTH",
"1739 920 OFFCURVE",
"1739 951 QCURVE SMOOTH",
"1739 963 OFFCURVE",
"1746 971 QCURVE SMOOTH",
"1772 1001 OFFCURVE",
"1800 1001 QCURVE SMOOTH",
"1823 1001 OFFCURVE",
"1847 980 QCURVE SMOOTH",
"1854 974 OFFCURVE",
"1854 963 QCURVE SMOOTH",
"1854 930 OFFCURVE",
"1793 848 QCURVE",
"1793 848 LINE"
);
},
{
closed = 1;
nodes = (
"2115 328 OFFCURVE",
"2115 306 QCURVE SMOOTH",
"2115 298 OFFCURVE",
"2109 295 QCURVE",
"2090 282 OFFCURVE",
"2072 282 QCURVE SMOOTH",
"2050 282 OFFCURVE",
"2031 301 QCURVE",
"2027 304 OFFCURVE",
"2027 310 QCURVE SMOOTH",
"2027 332 OFFCURVE",
"2071 380 QCURVE",
"2071 380 LINE"
);
},
{
closed = 1;
nodes = (
"2381 926 OFFCURVE",
"2381 944 QCURVE SMOOTH",
"2381 952 OFFCURVE",
"2386 955 QCURVE SMOOTH",
"2402 965 OFFCURVE",
"2416 965 QCURVE SMOOTH",
"2434 965 OFFCURVE",
"2449 948 QCURVE SMOOTH",
"2451 946 OFFCURVE",
"2451 942 QCURVE SMOOTH",
"2451 926 OFFCURVE",
"2411 882 QCURVE",
"2411 882 LINE"
);
},
{
closed = 1;
nodes = (
"2652 387 OFFCURVE",
"2652 380 QCURVE SMOOTH",
"2652 377 OFFCURVE",
"2650 376 QCURVE SMOOTH",
"2642 372 OFFCURVE",
"2634 372 QCURVE SMOOTH",
"2625 372 OFFCURVE",
"2618 379 QCURVE SMOOTH",
"2617 380 LINE",
"2617 387 OFFCURVE",
"2638 406 QCURVE",
"2638 406 LINE"
);
},
{
closed = 1;
nodes = (
"2974 861 OFFCURVE",
"2974 868 QCURVE SMOOTH",
"2974 871 OFFCURVE",
"2976 873 QCURVE SMOOTH",
"2986 881 OFFCURVE",
"2995 881 QCURVE SMOOTH",
"3001 881 OFFCURVE",
"3006 876 QCURVE",
"3007 876 OFFCURVE",
"3007 875 QCURVE SMOOTH",
"3007 870 OFFCURVE",
"2982 848 QCURVE",
"2982 848 LINE"
);
},
{
closed = 1;
nodes = (
"3137 663 OFFCURVE",
"3114 688 QCURVE SMOOTH",
"3088 717 OFFCURVE",
"3067 740 QCURVE",
"3096 770 OFFCURVE",
"3115 797 QCURVE SMOOTH",
"3150 848 OFFCURVE",
"3150 887 QCURVE SMOOTH",
"3150 921 OFFCURVE",
"3126 947 QCURVE SMOOTH",
"3072 1005 OFFCURVE",
"3012 1012 QCURVE SMOOTH",
"3003 1013 OFFCURVE",
"2994 1013 QCURVE SMOOTH",
"2942 1013 OFFCURVE",
"2886 977 QCURVE SMOOTH",
"2840 946 OFFCURVE",
"2840 895 QCURVE SMOOTH",
"2840 872 OFFCURVE",
"2849 844 QCURVE SMOOTH",
"2860 811 OFFCURVE",
"2883 772 QCURVE",
"2832 734 OFFCURVE",
"2758 682 QCURVE SMOOTH",
"2699 640 OFFCURVE",
"2653 601 QCURVE",
"2618 644 OFFCURVE",
"2574 692 QCURVE SMOOTH",
"2528 741 OFFCURVE",
"2493 781 QCURVE",
"2527 823 OFFCURVE",
"2549 860 QCURVE SMOOTH",
"2586 922 OFFCURVE",
"2586 969 QCURVE SMOOTH",
"2586 1009 OFFCURVE",
"2560 1037 QCURVE SMOOTH",
"2503 1101 OFFCURVE",
"2436 1108 QCURVE",
"2420 1108 LINE SMOOTH",
"2361 1108 OFFCURVE",
"2293 1064 QCURVE SMOOTH",
"2244 1032 OFFCURVE",
"2244 974 QCURVE SMOOTH",
"2244 941 OFFCURVE",
"2260 900 QCURVE SMOOTH",
"2282 842 OFFCURVE",
"2314 791 QCURVE",
"2257 740 OFFCURVE",
"2176 674 QCURVE SMOOTH",
"2114 621 OFFCURVE",
"2065 574 QCURVE",
"2026 614 OFFCURVE",
"1979 657 QCURVE SMOOTH",
"1926 705 OFFCURVE",
"1884 748 QCURVE",
"1920 801 OFFCURVE",
"1943 847 QCURVE SMOOTH",
"1981 923 OFFCURVE",
"1981 979 QCURVE SMOOTH",
"1981 1035 OFFCURVE",
"1944 1071 QCURVE SMOOTH",
"1871 1143 OFFCURVE",
"1799 1143 QCURVE SMOOTH",
"1797 1143 LINE SMOOTH",
"1723 1142 OFFCURVE",
"1649 1069 QCURVE SMOOTH",
"1607 1027 OFFCURVE",
"1607 970 QCURVE SMOOTH",
"1607 925 OFFCURVE",
"1632 871 QCURVE SMOOTH",
"1658 815 OFFCURVE",
"1712 748 QCURVE",
"1635 657 OFFCURVE",
"1515 532 QCURVE SMOOTH",
"1322 331 OFFCURVE",
"1160 231 QCURVE SMOOTH",
"998 130 OFFCURVE",
"866 130 QCURVE SMOOTH",
"733 130 OFFCURVE",
"667 260 QCURVE SMOOTH",
"601 390 OFFCURVE",
"601 650 QCURVE SMOOTH",
"601 656 LINE SMOOTH",
"601 912 OFFCURVE",
"682 1040 QCURVE SMOOTH",
"763 1170 OFFCURVE",
"925 1170 QCURVE SMOOTH",
"1087 1170 OFFCURVE",
"1169 1115 QCURVE SMOOTH",
"1250 1060 OFFCURVE",
"1250 951 QCURVE SMOOTH",
"1250 829 OFFCURVE",
"1191 754 QCURVE SMOOTH",
"1132 679 OFFCURVE",
"1015 653 QCURVE SMOOTH",
"946 637 OFFCURVE",
"946 593 QCURVE SMOOTH",
"946 582 OFFCURVE",
"950 570 QCURVE SMOOTH",
"965 523 OFFCURVE",
"1016 523 QCURVE SMOOTH",
"1033 523 OFFCURVE",
"1054 529 QCURVE",
"1227 567 OFFCURVE",
"1314 674 QCURVE SMOOTH",
"1400 781 OFFCURVE",
"1400 957 QCURVE SMOOTH",
"1400 1128 OFFCURVE",
"1282 1214 QCURVE SMOOTH",
"1163 1300 OFFCURVE",
"925 1300 QCURVE SMOOTH",
"688 1300 OFFCURVE",
"569 1137 QCURVE SMOOTH",
"450 975 OFFCURVE",
"450 650 QCURVE SMOOTH",
"450 325 OFFCURVE",
"554 162 QCURVE SMOOTH",
"658 0 OFFCURVE",
"865 0 QCURVE SMOOTH",
"1032 0 OFFCURVE",
"1228 116 QCURVE SMOOTH",
"1423 231 OFFCURVE",
"1646 463 QCURVE SMOOTH",
"1739 560 OFFCURVE",
"1806 643 QCURVE",
"1840 609 OFFCURVE",
"1879 574 QCURVE SMOOTH",
"1935 522 OFFCURVE",
"1978 480 QCURVE",
"1942 436 OFFCURVE",
"1920 397 QCURVE SMOOTH",
"1888 340 OFFCURVE",
"1888 296 QCURVE SMOOTH",
"1888 252 OFFCURVE",
"1919 220 QCURVE SMOOTH",
"1982 156 OFFCURVE",
"2053 151 QCURVE SMOOTH",
"2059 150 OFFCURVE",
"2066 150 QCURVE SMOOTH",
"2131 150 OFFCURVE",
"2203 198 QCURVE SMOOTH",
"2249 228 OFFCURVE",
"2249 280 QCURVE SMOOTH",
"2249 316 OFFCURVE",
"2226 364 QCURVE SMOOTH",
"2203 411 OFFCURVE",
"2159 467 QCURVE",
"2213 516 OFFCURVE",
"2288 578 QCURVE SMOOTH",
"2351 633 OFFCURVE",
"2400 681 QCURVE",
"2469 607 LINE SMOOTH",
"2519 551 OFFCURVE",
"2555 509 QCURVE",
"2531 482 OFFCURVE",
"2514 458 QCURVE SMOOTH",
"2479 405 OFFCURVE",
"2479 364 QCURVE SMOOTH",
"2479 330 OFFCURVE",
"2502 304 QCURVE SMOOTH",
"2554 246 OFFCURVE",
"2615 238 QCURVE SMOOTH",
"2624 237 OFFCURVE",
"2633 237 QCURVE SMOOTH",
"2685 237 OFFCURVE",
"2743 275 QCURVE SMOOTH",
"2785 302 OFFCURVE",
"2785 352 QCURVE SMOOTH",
"2785 383 OFFCURVE",
"2769 423 QCURVE SMOOTH",
"2757 452 OFFCURVE",
"2737 484 QCURVE",
"2792 524 OFFCURVE",
"2870 580 QCURVE SMOOTH",
"2926 619 OFFCURVE",
"2972 655 QCURVE",
"2987 637 OFFCURVE",
"3005 618 QCURVE SMOOTH",
"3022 597 OFFCURVE",
"3037 578 QCURVE",
"2963 526 OFFCURVE",
"2948 474 QCURVE SMOOTH",
"2945 461 OFFCURVE",
"2945 449 QCURVE SMOOTH",
"2945 406 OFFCURVE",
"2984 363 QCURVE SMOOTH",
"3035 308 OFFCURVE",
"3094 302 QCURVE SMOOTH",
"3102 301 OFFCURVE",
"3110 301 QCURVE SMOOTH",
"3161 301 OFFCURVE",
"3218 338 QCURVE SMOOTH",
"3265 369 OFFCURVE",
"3265 423 QCURVE SMOOTH",
"3265 444 OFFCURVE",
"3258 469 QCURVE SMOOTH",
"3249 499 OFFCURVE",
"3229 535 QCURVE",
"3295 563 OFFCURVE",
"3381 563 QCURVE SMOOTH",
"3501 563 LINE SMOOTH",
"3600 563 OFFCURVE",
"3600 628 QCURVE SMOOTH",
"3600 693 OFFCURVE",
"3505 693 QCURVE SMOOTH",
"3358 693 OFFCURVE",
"3243 666 QCURVE SMOOTH",
"3197 655 OFFCURVE",
"3156 640 QCURVE",
"3156 640 LINE"
);
}
);
width = 3850;
}
);
note = uni17DA;
unicode = 17DA;
},
{
glyphname = uni17DB;
layers = (
{
layerId = "4245090C-1DC1-4B2E-AF8E-CDB91B981D5B";
paths = (
{
closed = 1;
nodes = (
"260 210 LINE SMOOTH",
"260 170 OFFCURVE",
"225 170 QCURVE SMOOTH",
"200 170 OFFCURVE",
"200 218 QCURVE SMOOTH",
"200 333 OFFCURVE",
"245 383 QCURVE",
"225 433 LINE",
"128 433 OFFCURVE",
"50 303 OFFCURVE",
"50 218 QCURVE SMOOTH",
"50 0 OFFCURVE",
"275 0 QCURVE SMOOTH",
"510 0 OFFCURVE",
"510 210 QCURVE SMOOTH",
"510 570 LINE",
"640 570 LINE",
"640 730 LINE",
"510 730 LINE",
"510 786 LINE SMOOTH",
"510 912 OFFCURVE",
"216 991 QCURVE",
"239 1074 OFFCURVE",
"311 1074 QCURVE",
"390 1016 OFFCURVE",
"505 1016 QCURVE SMOOTH",
"620 1016 OFFCURVE",
"640 1223 QCURVE",
"613 1210 OFFCURVE",
"574 1210 QCURVE SMOOTH",
"544 1210 OFFCURVE",
"360 1300 OFFCURVE",
"298 1300 QCURVE SMOOTH",
"216 1300 OFFCURVE",
"74 1106 OFFCURVE",
"50 1004 QCURVE",
"90 882 LINE",
"180 862 OFFCURVE",
"260 756 QCURVE",
"260 730 LINE",
"50 730 LINE",
"50 570 LINE",
"260 570 LINE",
"260 570 LINE"
);
}
);
width = 690;
}
);
note = uni17DB;
unicode = 17DB;
},
{
glyphname = uni17E0;
layers = (
{
layerId = "4245090C-1DC1-4B2E-AF8E-CDB91B981D5B";
paths = (
{
closed = 1;
nodes = (
"970 520 LINE SMOOTH",
"970 160 OFFCURVE",
"700 160 QCURVE SMOOTH",
"430 160 OFFCURVE",
"430 520 QCURVE SMOOTH",
"430 780 LINE SMOOTH",
"430 1140 OFFCURVE",
"700 1140 QCURVE SMOOTH",
"970 1140 OFFCURVE",
"970 780 QCURVE",
"970 780 LINE"
);
},
{
closed = 1;
nodes = (
"1220 780 LINE SMOOTH",
"1220 1300 OFFCURVE",
"700 1300 QCURVE SMOOTH",
"180 1300 OFFCURVE",
"180 780 QCURVE SMOOTH",
"180 520 LINE SMOOTH",
"180 0 OFFCURVE",
"700 0 QCURVE SMOOTH",
"1220 0 OFFCURVE",
"1220 520 QCURVE",
"1220 520 LINE"
);
}
);
width = 1400;
}
);
note = uni17E0;
unicode = 17E0;
},
{
glyphname = uni17E1;
layers = (
{
layerId = "4245090C-1DC1-4B2E-AF8E-CDB91B981D5B";
paths = (
{
closed = 1;
nodes = (
"1320 1300 OFFCURVE",
"718 1300 QCURVE SMOOTH",
"180 1300 OFFCURVE",
"180 844 QCURVE SMOOTH",
"180 476 OFFCURVE",
"563 476 QCURVE SMOOTH",
"894 476 OFFCURVE",
"894 752 QCURVE SMOOTH",
"894 961 OFFCURVE",
"685 961 QCURVE SMOOTH",
"565 961 OFFCURVE",
"565 844 QCURVE SMOOTH",
"565 726 OFFCURVE",
"658 726 QCURVE SMOOTH",
"677 726 OFFCURVE",
"701 732 QCURVE",
"701 723 LINE SMOOTH",
"701 636 OFFCURVE",
"563 636 QCURVE SMOOTH",
"430 636 OFFCURVE",
"430 844 QCURVE SMOOTH",
"430 1140 OFFCURVE",
"718 1140 QCURVE SMOOTH",
"1070 1140 OFFCURVE",
"1070 780 QCURVE SMOOTH",
"1070 150 OFFCURVE",
"570 150 QCURVE",
"570 0 LINE",
"1320 0 OFFCURVE",
"1320 780 QCURVE",
"1320 780 LINE"
);
}
);
width = 1500;
}
);
note = uni17E1;
unicode = 17E1;
},
{
glyphname = uni17E2;
layers = (
{
layerId = "4245090C-1DC1-4B2E-AF8E-CDB91B981D5B";
paths = (
{
closed = 1;
nodes = (
"180 347 LINE SMOOTH",
"180 0 OFFCURVE",
"760 0 QCURVE SMOOTH",
"1340 0 OFFCURVE",
"1340 347 QCURVE SMOOTH",
"1340 1040 LINE SMOOTH",
"1340 1146 OFFCURVE",
"1183 1300 OFFCURVE",
"1129 1300 QCURVE SMOOTH",
"1074 1300 OFFCURVE",
"951 1184 QCURVE",
"828 1300 OFFCURVE",
"773 1300 QCURVE SMOOTH",
"718 1300 OFFCURVE",
"560 1146 OFFCURVE",
"560 1040 QCURVE SMOOTH",
"560 620 LINE SMOOTH",
"560 433 OFFCURVE",
"780 433 QCURVE SMOOTH",
"906 433 OFFCURVE",
"906 533 QCURVE",
"810 546 OFFCURVE",
"810 620 QCURVE SMOOTH",
"810 1040 LINE SMOOTH",
"810 1095 OFFCURVE",
"837 1100 QCURVE SMOOTH",
"839 1100 LINE SMOOTH",
"867 1100 OFFCURVE",
"951 977 QCURVE",
"1037 1100 OFFCURVE",
"1063 1100 QCURVE SMOOTH",
"1065 1100 LINE",
"1090 1095 OFFCURVE",
"1090 1040 QCURVE SMOOTH",
"1090 347 LINE SMOOTH",
"1090 160 OFFCURVE",
"760 160 QCURVE SMOOTH",
"430 160 OFFCURVE",
"430 347 QCURVE SMOOTH",
"430 1320 LINE SMOOTH",
"430 1570 OFFCURVE",
"180 1570 QCURVE SMOOTH",
"50 1570 OFFCURVE",
"50 1436 QCURVE",
"180 1436 OFFCURVE",
"180 1320 QCURVE",
"180 1320 LINE"
);
}
);
width = 1520;
}
);
note = uni17E2;
unicode = 17E2;
},
{
glyphname = uni17E3;
layers = (
{
layerId = "4245090C-1DC1-4B2E-AF8E-CDB91B981D5B";
paths = (
{
closed = 1;
nodes = (
"180 213 LINE SMOOTH",
"180 0 OFFCURVE",
"382 0 QCURVE SMOOTH",
"585 0 OFFCURVE",
"585 174 QCURVE SMOOTH",
"585 275 OFFCURVE",
"478 325 QCURVE",
"442 275 LINE",
"478 248 OFFCURVE",
"478 201 QCURVE SMOOTH",
"478 168 OFFCURVE",
"459 168 QCURVE SMOOTH",
"430 168 OFFCURVE",
"430 213 QCURVE SMOOTH",
"430 997 LINE SMOOTH",
"430 1140 OFFCURVE",
"575 1140 QCURVE SMOOTH",
"720 1140 OFFCURVE",
"720 997 QCURVE SMOOTH",
"720 0 LINE",
"970 0 LINE",
"970 997 LINE SMOOTH",
"970 1140 OFFCURVE",
"1115 1140 QCURVE SMOOTH",
"1260 1140 OFFCURVE",
"1260 997 QCURVE SMOOTH",
"1260 0 LINE",
"1510 0 LINE",
"1510 997 LINE SMOOTH",
"1510 1300 OFFCURVE",
"1115 1300 QCURVE SMOOTH",
"938 1300 OFFCURVE",
"845 1207 QCURVE",
"752 1300 OFFCURVE",
"575 1300 QCURVE SMOOTH",
"180 1300 OFFCURVE",
"180 997 QCURVE",
"180 997 LINE"
);
}
);
width = 1690;
}
);
note = uni17E3;
unicode = 17E3;
},
{
glyphname = uni17E4;
layers = (
{
layerId = "4245090C-1DC1-4B2E-AF8E-CDB91B981D5B";
paths = (
{
closed = 1;
nodes = (
"1040 597 LINE SMOOTH",
"1040 642 OFFCURVE",
"1069 642 QCURVE SMOOTH",
"1088 642 OFFCURVE",
"1088 609 QCURVE SMOOTH",
"1088 562 OFFCURVE",
"1052 535 QCURVE",
"1088 485 LINE",
"1200 535 OFFCURVE",
"1200 636 QCURVE SMOOTH",
"1200 810 OFFCURVE",
"992 810 QCURVE SMOOTH",
"790 810 OFFCURVE",
"790 597 QCURVE SMOOTH",
"790 397 LINE SMOOTH",
"790 327 OFFCURVE",
"962 160 QCURVE",
"620 160 LINE SMOOTH",
"430 160 OFFCURVE",
"430 265 QCURVE SMOOTH",
"430 706 LINE SMOOTH",
"430 906 OFFCURVE",
"1220 1165 OFFCURVE",
"1220 1350 QCURVE SMOOTH",
"1220 1550 OFFCURVE",
"1041 1550 QCURVE SMOOTH",
"862 1550 OFFCURVE",
"862 1412 QCURVE",
"970 1412 OFFCURVE",
"970 1350 QCURVE SMOOTH",
"970 1247 OFFCURVE",
"180 1001 OFFCURVE",
"180 706 QCURVE SMOOTH",
"180 265 LINE SMOOTH",
"180 0 OFFCURVE",
"620 0 QCURVE SMOOTH",
"1220 0 LINE",
"1220 120 LINE",
"1130 219 LINE SMOOTH",
"1040 318 OFFCURVE",
"1040 397 QCURVE",
"1040 397 LINE"
);
}
);
width = 1390;
}
);
note = uni17E4;
unicode = 17E4;
},
{
glyphname = uni17E5;
layers = (
{
layerId = "4245090C-1DC1-4B2E-AF8E-CDB91B981D5B";
paths = (
{
closed = 1;
nodes = (
"180 265 LINE SMOOTH",
"180 0 OFFCURVE",
"620 0 QCURVE SMOOTH",
"1220 0 LINE",
"1220 120 LINE",
"1130 219 LINE SMOOTH",
"1040 318 OFFCURVE",
"1040 397 QCURVE SMOOTH",
"1040 527 LINE SMOOTH",
"1040 572 OFFCURVE",
"1069 572 QCURVE SMOOTH",
"1088 572 OFFCURVE",
"1088 539 QCURVE SMOOTH",
"1088 492 OFFCURVE",
"1052 465 QCURVE",
"1088 415 LINE",
"1200 465 OFFCURVE",
"1200 566 QCURVE SMOOTH",
"1200 740 OFFCURVE",
"992 740 QCURVE SMOOTH",
"790 740 OFFCURVE",
"790 527 QCURVE SMOOTH",
"790 397 LINE SMOOTH",
"790 327 OFFCURVE",
"962 160 QCURVE",
"620 160 LINE SMOOTH",
"430 160 OFFCURVE",
"430 265 QCURVE SMOOTH",
"430 626 LINE SMOOTH",
"430 817 OFFCURVE",
"540 904 QCURVE",
"578 922 OFFCURVE",
"609 940 QCURVE",
"1005 882 LINE",
"1220 882 OFFCURVE",
"1220 1147 QCURVE SMOOTH",
"1220 1350 LINE SMOOTH",
"1220 1412 OFFCURVE",
"1320 1412 QCURVE",
"1320 1540 OFFCURVE",
"1170 1540 QCURVE SMOOTH",
"970 1540 OFFCURVE",
"970 1350 QCURVE SMOOTH",
"970 1197 LINE SMOOTH",
"970 1072 OFFCURVE",
"897 1072 QCURVE SMOOTH",
"883 1072 OFFCURVE",
"866 1074 QCURVE SMOOTH",
"735 1097 LINE",
"760 1116 OFFCURVE",
"760 1158 QCURVE SMOOTH",
"760 1324 OFFCURVE",
"548 1324 QCURVE SMOOTH",
"336 1324 OFFCURVE",
"336 1148 QCURVE SMOOTH",
"336 1054 OFFCURVE",
"416 1006 QCURVE",
"180 874 OFFCURVE",
"180 626 QCURVE",
"180 626 LINE"
);
}
);
width = 1400;
}
);
note = uni17E5;
unicode = 17E5;
},
{
glyphname = uni17E6;
layers = (
{
layerId = "4245090C-1DC1-4B2E-AF8E-CDB91B981D5B";
paths = (
{
closed = 1;
nodes = (
"640 580 OFFCURVE",
"640 521 QCURVE SMOOTH",
"640 439 OFFCURVE",
"571 425 QCURVE",
"571 344 OFFCURVE",
"712 344 QCURVE SMOOTH",
"843 344 OFFCURVE",
"843 501 QCURVE SMOOTH",
"843 740 OFFCURVE",
"514 740 QCURVE SMOOTH",
"180 740 OFFCURVE",
"180 407 QCURVE SMOOTH",
"180 0 OFFCURVE",
"696 0 QCURVE SMOOTH",
"1220 0 OFFCURVE",
"1220 598 QCURVE SMOOTH",
"1220 693 LINE SMOOTH",
"1220 1300 OFFCURVE",
"731 1300 QCURVE SMOOTH",
"568 1300 OFFCURVE",
"430 1183 QCURVE",
"430 1300 LINE SMOOTH",
"430 1547 OFFCURVE",
"220 1547 QCURVE SMOOTH",
"50 1547 OFFCURVE",
"50 1401 QCURVE",
"180 1401 OFFCURVE",
"180 1300 QCURVE SMOOTH",
"180 954 LINE SMOOTH",
"180 867 OFFCURVE",
"275 867 QCURVE SMOOTH",
"430 867 OFFCURVE",
"430 954 QCURVE",
"552 1140 OFFCURVE",
"731 1140 QCURVE SMOOTH",
"970 1140 OFFCURVE",
"970 693 QCURVE SMOOTH",
"970 598 LINE SMOOTH",
"970 110 OFFCURVE",
"695 110 QCURVE SMOOTH",
"430 110 OFFCURVE",
"430 407 QCURVE SMOOTH",
"430 580 OFFCURVE",
"516 580 QCURVE",
"516 580 LINE"
);
}
);
width = 1400;
}
);
note = uni17E6;
unicode = 17E6;
},
{
glyphname = uni17E7;
layers = (
{
layerId = "4245090C-1DC1-4B2E-AF8E-CDB91B981D5B";
paths = (
{
closed = 1;
nodes = (
"1070 1000 LINE SMOOTH",
"1070 1122 OFFCURVE",
"936 1300 OFFCURVE",
"828 1300 QCURVE SMOOTH",
"719 1300 OFFCURVE",
"625 1176 QCURVE",
"532 1300 OFFCURVE",
"424 1300 QCURVE SMOOTH",
"315 1300 OFFCURVE",
"180 1122 OFFCURVE",
"180 1000 QCURVE SMOOTH",
"180 230 LINE SMOOTH",
"180 0 OFFCURVE",
"435 0 QCURVE SMOOTH",
"690 0 OFFCURVE",
"690 268 QCURVE SMOOTH",
"690 373 OFFCURVE",
"562 503 OFFCURVE",
"475 503 QCURVE",
"455 433 LINE",
"530 383 OFFCURVE",
"530 268 QCURVE SMOOTH",
"530 170 OFFCURVE",
"475 170 QCURVE SMOOTH",
"430 170 OFFCURVE",
"430 230 QCURVE SMOOTH",
"430 1000 LINE SMOOTH",
"430 1098 OFFCURVE",
"483 1098 QCURVE SMOOTH",
"535 1098 OFFCURVE",
"583 1004 QCURVE SMOOTH",
"599 972 OFFCURVE",
"625 972 QCURVE SMOOTH",
"651 972 OFFCURVE",
"667 1004 QCURVE SMOOTH",
"716 1098 OFFCURVE",
"768 1098 QCURVE SMOOTH",
"820 1098 OFFCURVE",
"820 1000 QCURVE SMOOTH",
"820 223 LINE SMOOTH",
"820 0 OFFCURVE",
"1145 0 QCURVE SMOOTH",
"1470 0 OFFCURVE",
"1470 223 QCURVE SMOOTH",
"1470 1340 LINE SMOOTH",
"1470 1590 OFFCURVE",
"1200 1590 QCURVE SMOOTH",
"1070 1590 OFFCURVE",
"1070 1456 QCURVE",
"1220 1456 OFFCURVE",
"1220 1340 QCURVE SMOOTH",
"1220 223 LINE SMOOTH",
"1220 175 OFFCURVE",
"1145 175 QCURVE SMOOTH",
"1070 175 OFFCURVE",
"1070 223 QCURVE",
"1070 223 LINE"
);
}
);
width = 1650;
}
);
note = uni17E7;
unicode = 17E7;
},
{
glyphname = uni17E8;
layers = (
{
layerId = "4245090C-1DC1-4B2E-AF8E-CDB91B981D5B";
paths = (
{
closed = 1;
nodes = (
"1220 517 LINE SMOOTH",
"1220 730 OFFCURVE",
"1018 730 QCURVE SMOOTH",
"815 730 OFFCURVE",
"815 556 QCURVE SMOOTH",
"815 455 OFFCURVE",
"922 405 QCURVE",
"958 455 LINE",
"922 482 OFFCURVE",
"922 529 QCURVE SMOOTH",
"922 562 OFFCURVE",
"941 562 QCURVE SMOOTH",
"970 562 OFFCURVE",
"970 517 QCURVE SMOOTH",
"970 260 LINE SMOOTH",
"970 160 OFFCURVE",
"912 160 QCURVE SMOOTH",
"854 160 OFFCURVE",
"797 236 OFFCURVE",
"797 291 QCURVE SMOOTH",
"797 347 OFFCURVE",
"695 347 QCURVE SMOOTH",
"593 347 OFFCURVE",
"593 291 QCURVE SMOOTH",
"593 236 OFFCURVE",
"547 160 OFFCURVE",
"489 160 QCURVE SMOOTH",
"430 160 OFFCURVE",
"430 260 QCURVE SMOOTH",
"430 867 LINE SMOOTH",
"430 1140 OFFCURVE",
"639 1140 QCURVE SMOOTH",
"819 1140 OFFCURVE",
"984 910 OFFCURVE",
"1132 910 QCURVE SMOOTH",
"1220 910 OFFCURVE",
"1220 997 QCURVE SMOOTH",
"1220 1300 LINE SMOOTH",
"1220 1401 OFFCURVE",
"1350 1401 QCURVE",
"1350 1517 OFFCURVE",
"1220 1517 QCURVE SMOOTH",
"970 1517 OFFCURVE",
"970 1300 QCURVE SMOOTH",
"970 1183 LINE",
"842 1300 OFFCURVE",
"639 1300 QCURVE SMOOTH",
"180 1300 OFFCURVE",
"180 867 QCURVE SMOOTH",
"180 260 LINE SMOOTH",
"180 0 OFFCURVE",
"489 0 QCURVE SMOOTH",
"624 0 OFFCURVE",
"695 110 QCURVE",
"766 0 OFFCURVE",
"912 0 QCURVE SMOOTH",
"1220 0 OFFCURVE",
"1220 260 QCURVE",
"1220 260 LINE"
);
}
);
width = 1400;
}
);
note = uni17E8;
unicode = 17E8;
},
{
glyphname = uni17E9;
layers = (
{
layerId = "4245090C-1DC1-4B2E-AF8E-CDB91B981D5B";
paths = (
{
closed = 1;
nodes = (
"796 160 OFFCURVE",
"670 160 QCURVE SMOOTH",
"575 160 OFFCURVE",
"430 254 OFFCURVE",
"430 390 QCURVE SMOOTH",
"430 542 OFFCURVE",
"639 663 OFFCURVE",
"800 663 QCURVE SMOOTH",
"980 663 OFFCURVE",
"1095 597 QCURVE",
"1158 544 OFFCURVE",
"1187 544 QCURVE SMOOTH",
"1210 544 OFFCURVE",
"1210 579 QCURVE SMOOTH",
"1210 677 OFFCURVE",
"1154 720 QCURVE",
"984 838 OFFCURVE",
"800 838 QCURVE SMOOTH",
"739 838 OFFCURVE",
"630 910 OFFCURVE",
"630 1001 QCURVE SMOOTH",
"630 1082 OFFCURVE",
"702 1140 OFFCURVE",
"749 1140 QCURVE SMOOTH",
"918 1140 OFFCURVE",
"1002 997 QCURVE",
"1024 954 OFFCURVE",
"1136 954 QCURVE SMOOTH",
"1220 954 OFFCURVE",
"1220 1040 QCURVE SMOOTH",
"1220 1300 LINE SMOOTH",
"1220 1517 OFFCURVE",
"1022 1517 QCURVE SMOOTH",
"892 1517 OFFCURVE",
"892 1401 QCURVE",
"970 1401 OFFCURVE",
"970 1300 QCURVE SMOOTH",
"970 1233 LINE",
"912 1300 OFFCURVE",
"749 1300 QCURVE SMOOTH",
"542 1300 OFFCURVE",
"380 1159 OFFCURVE",
"380 997 QCURVE SMOOTH",
"380 872 OFFCURVE",
"498 797 QCURVE",
"349 751 OFFCURVE",
"180 557 OFFCURVE",
"180 390 QCURVE SMOOTH",
"180 192 OFFCURVE",
"452 0 OFFCURVE",
"670 0 QCURVE SMOOTH",
"897 0 OFFCURVE",
"1044 62 QCURVE SMOOTH",
"1190 125 OFFCURVE",
"1190 216 QCURVE SMOOTH",
"1190 306 OFFCURVE",
"1147 335 QCURVE SMOOTH",
"1104 364 OFFCURVE",
"1056 366 QCURVE SMOOTH",
"1047 366 LINE SMOOTH",
"1002 366 OFFCURVE",
"954 349 QCURVE SMOOTH",
"903 332 OFFCURVE",
"879 288 QCURVE SMOOTH",
"871 274 OFFCURVE",
"871 255 QCURVE SMOOTH",
"871 215 OFFCURVE",
"906 185 QCURVE",
"906 185 LINE"
);
}
);
width = 1400;
}
);
note = uni17E9;
unicode = 17E9;
},
{
glyphname = uni17D21780;
layers = (
{
layerId = "4245090C-1DC1-4B2E-AF8E-CDB91B981D5B";
paths = (
{
closed = 1;
nodes = (
"-825 -262 LINE SMOOTH",
"-825 -166 OFFCURVE",
"-625 -166 QCURVE SMOOTH",
"-425 -166 OFFCURVE",
"-425 -262 QCURVE SMOOTH",
"-425 -550 LINE",
"-205 -550 LINE",
"-205 -263 LINE SMOOTH",
"-205 -141 OFFCURVE",
"-305 -96 QCURVE SMOOTH",
"-405 -50 OFFCURVE",
"-625 -50 QCURVE SMOOTH",
"-845 -50 OFFCURVE",
"-945 -96 QCURVE SMOOTH",
"-1045 -141 OFFCURVE",
"-1045 -260 QCURVE SMOOTH",
"-1045 -550 LINE",
"-825 -550 LINE",
"-825 -550 LINE"
);
}
);
width = 0;
}
);
note = uni17D21780;
},
{
glyphname = uni17D21781;
layers = (
{
layerId = "4245090C-1DC1-4B2E-AF8E-CDB91B981D5B";
paths = (
{
closed = 1;
nodes = (
"-415 -551 OFFCURVE",
"-310 -499 QCURVE SMOOTH",
"-205 -449 OFFCURVE",
"-205 -349 QCURVE",
"-434 -380 LINE",
"-434 -426 OFFCURVE",
"-547 -447 OFFCURVE",
"-625 -447 QCURVE SMOOTH",
"-704 -447 OFFCURVE",
"-817 -434 OFFCURVE",
"-817 -394 QCURVE",
"-591 -359 LINE SMOOTH",
"-440 -340 OFFCURVE",
"-205 -256 OFFCURVE",
"-205 -193 QCURVE SMOOTH",
"-205 -139 OFFCURVE",
"-457 -51 OFFCURVE",
"-625 -51 QCURVE SMOOTH",
"-783 -51 OFFCURVE",
"-1045 -125 OFFCURVE",
"-1045 -183 QCURVE SMOOTH",
"-1045 -259 OFFCURVE",
"-816 -259 QCURVE",
"-816 -193 OFFCURVE",
"-746 -154 OFFCURVE",
"-625 -154 QCURVE SMOOTH",
"-548 -154 OFFCURVE",
"-436 -174 OFFCURVE",
"-436 -197 QCURVE SMOOTH",
"-436 -228 OFFCURVE",
"-553 -272 OFFCURVE",
"-675 -287 QCURVE SMOOTH",
"-975 -323 LINE SMOOTH",
"-1045 -330 OFFCURVE",
"-1045 -396 QCURVE SMOOTH",
"-1045 -473 OFFCURVE",
"-940 -511 QCURVE SMOOTH",
"-835 -551 OFFCURVE",
"-625 -551 QCURVE",
"-625 -551 LINE"
);
}
);
width = 0;
}
);
note = uni17D21781;
},
{
glyphname = uni17D21782;
layers = (
{
layerId = "4245090C-1DC1-4B2E-AF8E-CDB91B981D5B";
paths = (
{
closed = 1;
nodes = (
"-825 -262 LINE SMOOTH",
"-825 -166 OFFCURVE",
"-625 -166 QCURVE SMOOTH",
"-425 -166 OFFCURVE",
"-425 -262 QCURVE SMOOTH",
"-425 -550 LINE",
"-205 -550 LINE",
"-205 -263 LINE SMOOTH",
"-205 -141 OFFCURVE",
"-305 -96 QCURVE SMOOTH",
"-405 -50 OFFCURVE",
"-625 -50 QCURVE SMOOTH",
"-845 -50 OFFCURVE",
"-945 -96 QCURVE SMOOTH",
"-1045 -141 OFFCURVE",
"-1045 -260 QCURVE SMOOTH",
"-1045 -550 LINE",
"-825 -550 LINE",
"-825 -536 OFFCURVE",
"-790 -500 QCURVE SMOOTH",
"-743 -450 LINE SMOOTH",
"-680 -383 OFFCURVE",
"-630 -383 QCURVE SMOOTH",
"-530 -383 OFFCURVE",
"-530 -320 QCURVE SMOOTH",
"-530 -257 OFFCURVE",
"-630 -257 QCURVE SMOOTH",
"-679 -257 OFFCURVE",
"-780 -362 QCURVE SMOOTH",
"-825 -409 LINE",
"-825 -409 LINE"
);
}
);
width = 0;
}
);
note = uni17D21782;
},
{
glyphname = uni17D21783;
layers = (
{
layerId = "4245090C-1DC1-4B2E-AF8E-CDB91B981D5B";
paths = (
{
closed = 1;
nodes = (
"430 806 LINE SMOOTH",
"430 932 OFFCURVE",
"216 991 QCURVE",
"239 1074 OFFCURVE",
"271 1074 QCURVE",
"350 1016 OFFCURVE",
"425 1016 QCURVE SMOOTH",
"540 1016 OFFCURVE",
"560 1223 QCURVE",
"533 1210 OFFCURVE",
"494 1210 QCURVE SMOOTH",
"464 1210 OFFCURVE",
"320 1300 OFFCURVE",
"258 1300 QCURVE SMOOTH",
"196 1300 OFFCURVE",
"74 1106 OFFCURVE",
"50 1004 QCURVE",
"90 882 LINE",
"180 862 OFFCURVE",
"180 756 QCURVE SMOOTH",
"180 -301 LINE SMOOTH",
"180 -355 OFFCURVE",
"100 -396 OFFCURVE",
"45 -396 QCURVE SMOOTH",
"-25 -396 OFFCURVE",
"-75 -375 QCURVE SMOOTH",
"-125 -355 OFFCURVE",
"-125 -301 QCURVE SMOOTH",
"-125 -175 LINE SMOOTH",
"-125 -50 OFFCURVE",
"-265 -50 QCURVE SMOOTH",
"-405 -50 OFFCURVE",
"-405 -134 QCURVE",
"-325 -134 OFFCURVE",
"-325 -175 QCURVE SMOOTH",
"-325 -301 LINE SMOOTH",
"-325 -355 OFFCURVE",
"-363 -375 QCURVE SMOOTH",
"-400 -396 OFFCURVE",
"-445 -396 QCURVE SMOOTH",
"-500 -396 OFFCURVE",
"-537 -375 QCURVE SMOOTH",
"-575 -355 OFFCURVE",
"-575 -302 QCURVE SMOOTH",
"-575 -134 LINE SMOOTH",
"-575 -50 OFFCURVE",
"-700 -50 QCURVE SMOOTH",
"-775 -50 OFFCURVE",
"-875 -125 OFFCURVE",
"-875 -167 QCURVE SMOOTH",
"-875 -209 OFFCURVE",
"-833 -259 OFFCURVE",
"-775 -259 QCURVE",
"-775 -301 LINE SMOOTH",
"-775 -426 OFFCURVE",
"-700 -468 QCURVE SMOOTH",
"-625 -510 OFFCURVE",
"-445 -510 QCURVE SMOOTH",
"-347 -510 OFFCURVE",
"-293 -498 QCURVE SMOOTH",
"-239 -487 OFFCURVE",
"-222 -464 QCURVE",
"-204 -487 OFFCURVE",
"-135 -498 QCURVE SMOOTH",
"-65 -510 OFFCURVE",
"45 -510 QCURVE SMOOTH",
"187 -510 OFFCURVE",
"430 -426 OFFCURVE",
"430 -301 QCURVE",
"430 -301 LINE"
);
}
);
width = 610;
}
);
note = uni17D21783;
},
{
glyphname = uni17D21784;
layers = (
{
layerId = "4245090C-1DC1-4B2E-AF8E-CDB91B981D5B";
paths = (
{
closed = 1;
nodes = (
"-611 -550 OFFCURVE",
"-520 -515 QCURVE SMOOTH",
"-429 -482 OFFCURVE",
"-363 -414 QCURVE SMOOTH",
"-296 -346 OFFCURVE",
"-257 -242 QCURVE SMOOTH",
"-219 -141 OFFCURVE",
"-205 -96 QCURVE",
"-205 -50 OFFCURVE",
"-292 -50 QCURVE SMOOTH",
"-379 -50 OFFCURVE",
"-392 -61 QCURVE SMOOTH",
"-404 -73 OFFCURVE",
"-407 -96 QCURVE",
"-442 -203 OFFCURVE",
"-614 -432 OFFCURVE",
"-685 -432 QCURVE SMOOTH",
"-757 -432 OFFCURVE",
"-816 -373 OFFCURVE",
"-816 -323 QCURVE SMOOTH",
"-816 -277 OFFCURVE",
"-790 -254 QCURVE SMOOTH",
"-764 -232 OFFCURVE",
"-711 -232 QCURVE",
"-711 -186 OFFCURVE",
"-764 -111 OFFCURVE",
"-856 -111 QCURVE SMOOTH",
"-948 -111 OFFCURVE",
"-1045 -232 OFFCURVE",
"-1045 -303 QCURVE SMOOTH",
"-1045 -436 OFFCURVE",
"-867 -550 OFFCURVE",
"-709 -550 QCURVE",
"-709 -550 LINE"
);
}
);
width = 0;
}
);
note = uni17D21784;
},
{
glyphname = uni17D21785;
layers = (
{
layerId = "4245090C-1DC1-4B2E-AF8E-CDB91B981D5B";
paths = (
{
closed = 1;
nodes = (
"-826 -50 OFFCURVE",
"-836 -93 QCURVE",
"-865 -159 LINE SMOOTH",
"-887 -212 OFFCURVE",
"-955 -277 OFFCURVE",
"-1020 -290 QCURVE",
"-1070 -296 OFFCURVE",
"-1070 -382 QCURVE SMOOTH",
"-1070 -466 OFFCURVE",
"-995 -509 QCURVE SMOOTH",
"-920 -550 OFFCURVE",
"-750 -550 QCURVE SMOOTH",
"-670 -550 OFFCURVE",
"-585 -512 QCURVE SMOOTH",
"-500 -474 OFFCURVE",
"-430 -398 QCURVE",
"-408 -380 OFFCURVE",
"-395 -364 QCURVE",
"-384 -365 OFFCURVE",
"-359 -366 OFFCURVE",
"-346 -366 QCURVE SMOOTH",
"-298 -366 LINE SMOOTH",
"-161 -366 OFFCURVE",
"-161 -270 QCURVE SMOOTH",
"-161 -243 OFFCURVE",
"-170 -213 QCURVE",
"-243 -247 OFFCURVE",
"-270 -247 QCURVE SMOOTH",
"-306 -247 LINE",
"-290 -221 OFFCURVE",
"-290 -204 QCURVE SMOOTH",
"-290 -141 OFFCURVE",
"-323 -110 QCURVE SMOOTH",
"-355 -78 OFFCURVE",
"-420 -78 QCURVE SMOOTH",
"-495 -78 OFFCURVE",
"-533 -110 QCURVE SMOOTH",
"-570 -141 OFFCURVE",
"-570 -204 QCURVE SMOOTH",
"-570 -279 OFFCURVE",
"-542 -290 QCURVE",
"-650 -422 OFFCURVE",
"-750 -422 QCURVE SMOOTH",
"-795 -422 OFFCURVE",
"-840 -411 OFFCURVE",
"-840 -382 QCURVE",
"-755 -341 OFFCURVE",
"-638 -129 OFFCURVE",
"-638 -84 QCURVE SMOOTH",
"-638 -50 OFFCURVE",
"-690 -50 QCURVE",
"-690 -50 LINE"
);
}
);
width = 0;
}
);
note = uni17D21785;
},
{
glyphname = uni17D21786;
layers = (
{
layerId = "4245090C-1DC1-4B2E-AF8E-CDB91B981D5B";
paths = (
{
closed = 1;
nodes = (
"-1040 -50 LINE",
"-1040 -211 LINE",
"-1090 -211 OFFCURVE",
"-1115 -234 QCURVE SMOOTH",
"-1140 -256 OFFCURVE",
"-1140 -332 QCURVE SMOOTH",
"-1140 -386 OFFCURVE",
"-1090 -459 QCURVE",
"-1040 -550 OFFCURVE",
"-920 -550 QCURVE SMOOTH",
"-820 -550 OFFCURVE",
"-820 -454 QCURVE SMOOTH",
"-820 -359 LINE",
"-790 -359 LINE SMOOTH",
"-740 -359 OFFCURVE",
"-690 -418 QCURVE SMOOTH",
"-570 -550 OFFCURVE",
"-490 -550 QCURVE SMOOTH",
"-325 -550 OFFCURVE",
"-263 -492 QCURVE SMOOTH",
"-200 -436 OFFCURVE",
"-200 -322 QCURVE SMOOTH",
"-200 -113 LINE SMOOTH",
"-200 -50 OFFCURVE",
"-305 -50 QCURVE SMOOTH",
"-410 -50 LINE",
"-510 -93 OFFCURVE",
"-510 -209 QCURVE SMOOTH",
"-510 -240 OFFCURVE",
"-479 -276 OFFCURVE",
"-440 -276 QCURVE",
"-440 -322 LINE SMOOTH",
"-440 -391 OFFCURVE",
"-480 -402 OFFCURVE",
"-510 -402 QCURVE SMOOTH",
"-540 -402 OFFCURVE",
"-615 -304 QCURVE SMOOTH",
"-690 -211 OFFCURVE",
"-790 -211 QCURVE SMOOTH",
"-820 -211 LINE",
"-820 -50 LINE",
"-820 -50 LINE"
);
}
);
width = 0;
}
);
note = uni17D21786;
},
{
glyphname = uni17D21787;
layers = (
{
layerId = "4245090C-1DC1-4B2E-AF8E-CDB91B981D5B";
paths = (
{
closed = 1;
nodes = (
"-444 -159 OFFCURVE",
"-438 -226 QCURVE",
"-439 -227 OFFCURVE",
"-444 -227 QCURVE SMOOTH",
"-463 -227 LINE SMOOTH",
"-488 -227 OFFCURVE",
"-488 -192 QCURVE SMOOTH",
"-488 -176 OFFCURVE",
"-481 -167 QCURVE SMOOTH",
"-475 -159 OFFCURVE",
"-462 -159 QCURVE",
"-462 -159 LINE"
);
},
{
closed = 1;
nodes = (
"-129 -193 OFFCURVE",
"-133 -195 QCURVE SMOOTH",
"-136 -196 OFFCURVE",
"-145 -197 OFFCURVE",
"-151 -198 QCURVE",
"-164 -203 OFFCURVE",
"-192 -209 OFFCURVE",
"-206 -213 QCURVE",
"-222 -132 OFFCURVE",
"-270 -91 QCURVE SMOOTH",
"-318 -50 OFFCURVE",
"-438 -50 QCURVE SMOOTH",
"-513 -50 OFFCURVE",
"-551 -85 QCURVE SMOOTH",
"-588 -118 OFFCURVE",
"-588 -186 QCURVE SMOOTH",
"-588 -254 OFFCURVE",
"-551 -288 QCURVE SMOOTH",
"-513 -323 OFFCURVE",
"-488 -323 QCURVE SMOOTH",
"-475 -323 OFFCURVE",
"-450 -322 OFFCURVE",
"-438 -321 QCURVE",
"-439 -345 OFFCURVE",
"-464 -384 OFFCURVE",
"-488 -384 QCURVE SMOOTH",
"-550 -384 OFFCURVE",
"-668 -267 QCURVE",
"-793 -384 OFFCURVE",
"-848 -384 QCURVE SMOOTH",
"-873 -384 OFFCURVE",
"-898 -336 OFFCURVE",
"-898 -303 QCURVE SMOOTH",
"-898 -223 OFFCURVE",
"-885 -182 QCURVE SMOOTH",
"-873 -141 OFFCURVE",
"-848 -141 QCURVE SMOOTH",
"-798 -141 OFFCURVE",
"-798 -96 QCURVE SMOOTH",
"-798 -50 OFFCURVE",
"-848 -50 QCURVE SMOOTH",
"-1038 -50 OFFCURVE",
"-1088 -114 QCURVE SMOOTH",
"-1138 -177 OFFCURVE",
"-1138 -303 QCURVE SMOOTH",
"-1138 -380 OFFCURVE",
"-1088 -465 QCURVE SMOOTH",
"-1038 -550 OFFCURVE",
"-918 -550 QCURVE SMOOTH",
"-867 -550 OFFCURVE",
"-767 -521 OFFCURVE",
"-668 -467 QCURVE",
"-577 -520 OFFCURVE",
"-471 -550 OFFCURVE",
"-420 -550 QCURVE SMOOTH",
"-299 -550 OFFCURVE",
"-249 -466 QCURVE SMOOTH",
"-198 -382 OFFCURVE",
"-198 -304 QCURVE SMOOTH",
"-198 -297 LINE",
"-185 -293 OFFCURVE",
"-162 -286 OFFCURVE",
"-151 -283 QCURVE",
"-101 -264 OFFCURVE",
"-101 -224 QCURVE SMOOTH",
"-101 -193 OFFCURVE",
"-126 -193 QCURVE",
"-126 -193 LINE"
);
}
);
width = 0;
}
);
note = uni17D21787;
},
{
glyphname = uni17D21788;
layers = (
{
layerId = "4245090C-1DC1-4B2E-AF8E-CDB91B981D5B";
paths = (
{
closed = 1;
nodes = (
"430 806 LINE SMOOTH",
"430 932 OFFCURVE",
"216 991 QCURVE",
"239 1074 OFFCURVE",
"271 1074 QCURVE",
"350 1016 OFFCURVE",
"425 1016 QCURVE SMOOTH",
"540 1016 OFFCURVE",
"560 1223 QCURVE",
"533 1210 OFFCURVE",
"494 1210 QCURVE SMOOTH",
"464 1210 OFFCURVE",
"320 1300 OFFCURVE",
"258 1300 QCURVE SMOOTH",
"196 1300 OFFCURVE",
"74 1106 OFFCURVE",
"50 1004 QCURVE",
"90 882 LINE",
"180 862 OFFCURVE",
"180 756 QCURVE SMOOTH",
"180 -301 LINE SMOOTH",
"180 -345 OFFCURVE",
"90 -386 OFFCURVE",
"35 -386 QCURVE SMOOTH",
"-48 -386 OFFCURVE",
"-125 -340 OFFCURVE",
"-125 -307 QCURVE SMOOTH",
"-125 -175 LINE SMOOTH",
"-125 -50 OFFCURVE",
"-265 -50 QCURVE SMOOTH",
"-405 -50 OFFCURVE",
"-405 -134 QCURVE",
"-325 -134 OFFCURVE",
"-325 -175 QCURVE SMOOTH",
"-325 -300 LINE SMOOTH",
"-325 -345 OFFCURVE",
"-363 -365 QCURVE SMOOTH",
"-400 -386 OFFCURVE",
"-445 -386 QCURVE SMOOTH",
"-500 -386 OFFCURVE",
"-537 -365 QCURVE SMOOTH",
"-575 -345 OFFCURVE",
"-575 -302 QCURVE SMOOTH",
"-575 -234 LINE SMOOTH",
"-575 -134 OFFCURVE",
"-775 -50 OFFCURVE",
"-905 -50 QCURVE SMOOTH",
"-1075 -50 OFFCURVE",
"-1150 -92 QCURVE SMOOTH",
"-1225 -134 OFFCURVE",
"-1225 -216 QCURVE SMOOTH",
"-1225 -426 LINE SMOOTH",
"-1225 -510 OFFCURVE",
"-1150 -510 QCURVE SMOOTH",
"-1055 -510 OFFCURVE",
"-1005 -447 QCURVE SMOOTH",
"-955 -383 OFFCURVE",
"-955 -343 QCURVE SMOOTH",
"-955 -301 OFFCURVE",
"-1025 -301 QCURVE",
"-1025 -234 LINE SMOOTH",
"-1025 -199 OFFCURVE",
"-960 -174 OFFCURVE",
"-905 -174 QCURVE SMOOTH",
"-850 -174 OFFCURVE",
"-775 -199 OFFCURVE",
"-775 -234 QCURVE SMOOTH",
"-775 -301 LINE SMOOTH",
"-775 -426 OFFCURVE",
"-700 -468 QCURVE SMOOTH",
"-625 -510 OFFCURVE",
"-445 -510 QCURVE SMOOTH",
"-399 -510 OFFCURVE",
"-313 -497 QCURVE",
"-256 -485 OFFCURVE",
"-219 -460 QCURVE",
"-181 -485 OFFCURVE",
"-118 -497 QCURVE SMOOTH",
"-55 -510 OFFCURVE",
"35 -510 QCURVE SMOOTH",
"177 -510 OFFCURVE",
"430 -426 OFFCURVE",
"430 -343 QCURVE",
"430 -343 LINE"
);
}
);
width = 610;
}
);
note = uni17D21788;
},
{
glyphname = uni17D21789;
layers = (
{
layerId = "4245090C-1DC1-4B2E-AF8E-CDB91B981D5B";
paths = (
{
closed = 1;
nodes = (
"-180 -50 OFFCURVE",
"-410 -50 QCURVE SMOOTH",
"-540 -50 OFFCURVE",
"-540 -162 QCURVE",
"-490 -162 OFFCURVE",
"-465 -185 QCURVE SMOOTH",
"-440 -208 OFFCURVE",
"-440 -254 QCURVE SMOOTH",
"-440 -342 OFFCURVE",
"-520 -342 QCURVE SMOOTH",
"-598 -342 OFFCURVE",
"-747 -197 OFFCURVE",
"-839 -147 QCURVE SMOOTH",
"-931 -96 OFFCURVE",
"-1050 -96 QCURVE SMOOTH",
"-1125 -96 OFFCURVE",
"-1162 -137 QCURVE SMOOTH",
"-1200 -179 OFFCURVE",
"-1200 -225 QCURVE SMOOTH",
"-1200 -271 LINE",
"-1177 -229 OFFCURVE",
"-1140 -208 QCURVE SMOOTH",
"-1103 -188 OFFCURVE",
"-1050 -188 QCURVE SMOOTH",
"-1007 -188 OFFCURVE",
"-945 -235 QCURVE SMOOTH",
"-885 -282 OFFCURVE",
"-806 -377 QCURVE SMOOTH",
"-751 -444 OFFCURVE",
"-667 -477 QCURVE SMOOTH",
"-583 -510 OFFCURVE",
"-470 -510 QCURVE SMOOTH",
"-315 -510 OFFCURVE",
"-180 -372 OFFCURVE",
"-180 -234 QCURVE",
"-180 -234 LINE"
);
}
);
width = 0;
}
);
note = uni17D21789;
},
{
glyphname = uni17D21789.a;
layers = (
{
layerId = "4245090C-1DC1-4B2E-AF8E-CDB91B981D5B";
paths = (
{
closed = 1;
nodes = (
"-180 -402 OFFCURVE",
"-219 -378 QCURVE SMOOTH",
"-259 -353 OFFCURVE",
"-338 -353 QCURVE SMOOTH",
"-444 -353 OFFCURVE",
"-444 -419 QCURVE",
"-437 -425 OFFCURVE",
"-437 -431 QCURVE SMOOTH",
"-437 -453 OFFCURVE",
"-549 -453 QCURVE SMOOTH",
"-760 -453 OFFCURVE",
"-1182 -354 OFFCURVE",
"-1393 -354 QCURVE SMOOTH",
"-1578 -354 OFFCURVE",
"-1710 -445 OFFCURVE",
"-1710 -478 QCURVE SMOOTH",
"-1710 -510 LINE",
"-1578 -451 OFFCURVE",
"-1393 -451 QCURVE SMOOTH",
"-1225 -451 OFFCURVE",
"-813 -550 OFFCURVE",
"-549 -550 QCURVE SMOOTH",
"-365 -550 OFFCURVE",
"-272 -525 QCURVE SMOOTH",
"-180 -501 OFFCURVE",
"-180 -451 QCURVE",
"-180 -451 LINE"
);
},
{
closed = 1;
nodes = (
"-430 -326 LINE",
"-180 -326 LINE",
"-180 -254 LINE SMOOTH",
"-180 -50 OFFCURVE",
"-595 -50 QCURVE SMOOTH",
"-796 -50 OFFCURVE",
"-889 -109 QCURVE",
"-956 -50 OFFCURVE",
"-1062 -50 QCURVE SMOOTH",
"-1171 -50 OFFCURVE",
"-1265 -135 QCURVE",
"-1358 -50 OFFCURVE",
"-1466 -50 QCURVE SMOOTH",
"-1575 -50 OFFCURVE",
"-1710 -171 OFFCURVE",
"-1710 -254 QCURVE SMOOTH",
"-1710 -326 LINE",
"-1460 -326 LINE",
"-1460 -254 LINE SMOOTH",
"-1460 -188 OFFCURVE",
"-1407 -188 QCURVE SMOOTH",
"-1355 -188 OFFCURVE",
"-1307 -252 QCURVE SMOOTH",
"-1291 -274 OFFCURVE",
"-1265 -274 QCURVE SMOOTH",
"-1239 -274 OFFCURVE",
"-1223 -252 QCURVE SMOOTH",
"-1174 -188 OFFCURVE",
"-1122 -188 QCURVE SMOOTH",
"-1070 -188 OFFCURVE",
"-1070 -254 QCURVE SMOOTH",
"-1070 -326 LINE",
"-820 -326 LINE",
"-820 -254 LINE SMOOTH",
"-820 -159 OFFCURVE",
"-595 -159 QCURVE SMOOTH",
"-430 -159 OFFCURVE",
"-430 -254 QCURVE",
"-430 -254 LINE"
);
}
);
width = 0;
}
);
note = uni17D21789.a;
},
{
glyphname = uni17D2178A;
layers = (
{
layerId = "4245090C-1DC1-4B2E-AF8E-CDB91B981D5B";
paths = (
{
closed = 1;
nodes = (
"-1045 -337 LINE SMOOTH",
"-1045 -550 OFFCURVE",
"-843 -550 QCURVE SMOOTH",
"-670 -550 OFFCURVE",
"-670 -376 QCURVE SMOOTH",
"-670 -275 OFFCURVE",
"-777 -225 QCURVE",
"-813 -275 LINE",
"-777 -302 OFFCURVE",
"-777 -349 QCURVE SMOOTH",
"-777 -382 OFFCURVE",
"-796 -382 QCURVE SMOOTH",
"-825 -382 OFFCURVE",
"-825 -337 QCURVE SMOOTH",
"-825 -262 LINE SMOOTH",
"-825 -166 OFFCURVE",
"-625 -166 QCURVE SMOOTH",
"-425 -166 OFFCURVE",
"-425 -262 QCURVE SMOOTH",
"-425 -550 LINE",
"-205 -550 LINE",
"-205 -263 LINE SMOOTH",
"-205 -141 OFFCURVE",
"-305 -96 QCURVE SMOOTH",
"-405 -50 OFFCURVE",
"-625 -50 QCURVE SMOOTH",
"-845 -50 OFFCURVE",
"-945 -96 QCURVE SMOOTH",
"-1045 -141 OFFCURVE",
"-1045 -260 QCURVE",
"-1045 -260 LINE"
);
}
);
width = 0;
}
);
note = uni17D2178A;
},
{
glyphname = uni17D2178B;
layers = (
{
layerId = "4245090C-1DC1-4B2E-AF8E-CDB91B981D5B";
paths = (
{
closed = 1;
nodes = (
"-415 -395 LINE",
"-624 -293 LINE",
"-740 -386 LINE",
"-845 -286 LINE",
"-798 -276 OFFCURVE",
"-740 -271 QCURVE",
"-713 -266 OFFCURVE",
"-650 -266 QCURVE SMOOTH",
"-415 -266 LINE",
"-415 -266 LINE"
);
},
{
closed = 1;
nodes = (
"-636 -154 LINE SMOOTH",
"-702 -154 OFFCURVE",
"-780 -160 QCURVE SMOOTH",
"-857 -164 OFFCURVE",
"-952 -176 QCURVE",
"-1045 -213 OFFCURVE",
"-1045 -266 QCURVE SMOOTH",
"-1045 -304 OFFCURVE",
"-1019 -336 QCURVE",
"-840 -513 LINE",
"-811 -550 OFFCURVE",
"-788 -550 QCURVE SMOOTH",
"-766 -550 OFFCURVE",
"-726 -516 QCURVE SMOOTH",
"-608 -414 LINE",
"-317 -550 LINE",
"-261 -550 OFFCURVE",
"-233 -530 QCURVE SMOOTH",
"-205 -511 OFFCURVE",
"-205 -470 QCURVE SMOOTH",
"-205 -179 LINE SMOOTH",
"-205 -114 OFFCURVE",
"-231 -83 QCURVE SMOOTH",
"-258 -50 OFFCURVE",
"-310 -50 QCURVE SMOOTH",
"-415 -50 OFFCURVE",
"-442 -66 QCURVE SMOOTH",
"-468 -83 OFFCURVE",
"-468 -114 QCURVE SMOOTH",
"-468 -139 OFFCURVE",
"-459 -154 QCURVE",
"-459 -154 LINE"
);
}
);
width = 0;
}
);
note = uni17D2178B;
},
{
glyphname = uni17D2178C;
layers = (
{
layerId = "4245090C-1DC1-4B2E-AF8E-CDB91B981D5B";
paths = (
{
closed = 1;
nodes = (
"-835 -177 OFFCURVE",
"-806 -154 OFFCURVE",
"-781 -154 QCURVE SMOOTH",
"-757 -154 OFFCURVE",
"-625 -230 QCURVE",
"-491 -154 OFFCURVE",
"-465 -154 QCURVE SMOOTH",
"-441 -154 OFFCURVE",
"-415 -176 OFFCURVE",
"-415 -185 QCURVE SMOOTH",
"-415 -205 OFFCURVE",
"-454 -239 OFFCURVE",
"-524 -255 QCURVE SMOOTH",
"-975 -346 LINE SMOOTH",
"-1045 -359 OFFCURVE",
"-1045 -418 QCURVE SMOOTH",
"-1045 -474 OFFCURVE",
"-940 -530 OFFCURVE",
"-835 -530 QCURVE SMOOTH",
"-693 -530 OFFCURVE",
"-456 -488 OFFCURVE",
"-415 -448 QCURVE",
"-415 -482 LINE SMOOTH",
"-415 -515 OFFCURVE",
"-467 -550 QCURVE",
"-257 -550 OFFCURVE",
"-231 -533 QCURVE SMOOTH",
"-205 -515 OFFCURVE",
"-205 -482 QCURVE SMOOTH",
"-205 -324 LINE",
"-415 -342 LINE",
"-496 -407 OFFCURVE",
"-679 -436 OFFCURVE",
"-756 -436 QCURVE SMOOTH",
"-835 -436 OFFCURVE",
"-887 -420 QCURVE",
"-479 -337 LINE SMOOTH",
"-340 -309 OFFCURVE",
"-273 -278 QCURVE SMOOTH",
"-205 -246 OFFCURVE",
"-205 -201 QCURVE SMOOTH",
"-205 -152 OFFCURVE",
"-294 -101 QCURVE SMOOTH",
"-383 -50 OFFCURVE",
"-436 -50 QCURVE SMOOTH",
"-488 -50 OFFCURVE",
"-625 -111 QCURVE",
"-761 -50 OFFCURVE",
"-814 -50 QCURVE SMOOTH",
"-866 -50 OFFCURVE",
"-956 -101 QCURVE SMOOTH",
"-1045 -152 OFFCURVE",
"-1045 -195 QCURVE SMOOTH",
"-1045 -237 LINE SMOOTH",
"-1045 -289 OFFCURVE",
"-966 -289 QCURVE SMOOTH",
"-856 -289 OFFCURVE",
"-782 -239 OFFCURVE",
"-782 -212 QCURVE SMOOTH",
"-782 -187 OFFCURVE",
"-835 -187 QCURVE",
"-835 -187 LINE"
);
}
);
width = 0;
}
);
note = uni17D2178C;
},
{
glyphname = uni17D2178D;
layers = (
{
layerId = "4245090C-1DC1-4B2E-AF8E-CDB91B981D5B";
paths = (
{
closed = 1;
nodes = (
"-185 -384 LINE SMOOTH",
"-160 -384 OFFCURVE",
"-61 -466 OFFCURVE",
"24 -550 OFFCURVE",
"105 -550 QCURVE SMOOTH",
"430 -550 OFFCURVE",
"430 -282 QCURVE SMOOTH",
"430 806 LINE SMOOTH",
"430 932 OFFCURVE",
"216 991 QCURVE",
"239 1074 OFFCURVE",
"271 1074 QCURVE",
"350 1016 OFFCURVE",
"425 1016 QCURVE SMOOTH",
"540 1016 OFFCURVE",
"560 1223 QCURVE",
"533 1210 OFFCURVE",
"494 1210 QCURVE SMOOTH",
"464 1210 OFFCURVE",
"320 1300 OFFCURVE",
"258 1300 QCURVE SMOOTH",
"196 1300 OFFCURVE",
"74 1106 OFFCURVE",
"50 1004 QCURVE",
"90 882 LINE",
"180 862 OFFCURVE",
"180 756 QCURVE SMOOTH",
"180 -283 LINE SMOOTH",
"180 -416 OFFCURVE",
"105 -416 QCURVE SMOOTH",
"51 -416 OFFCURVE",
"-47 -310 OFFCURVE",
"-90 -288 QCURVE SMOOTH",
"-134 -267 OFFCURVE",
"-185 -267 QCURVE SMOOTH",
"-205 -267 LINE",
"-205 -263 LINE SMOOTH",
"-205 -50 OFFCURVE",
"-435 -50 QCURVE SMOOTH",
"-530 -50 OFFCURVE",
"-625 -140 QCURVE",
"-720 -50 OFFCURVE",
"-815 -50 QCURVE SMOOTH",
"-1045 -50 OFFCURVE",
"-1045 -260 QCURVE SMOOTH",
"-1045 -337 LINE SMOOTH",
"-1045 -550 OFFCURVE",
"-843 -550 QCURVE SMOOTH",
"-670 -550 OFFCURVE",
"-670 -376 QCURVE SMOOTH",
"-670 -295 OFFCURVE",
"-777 -245 QCURVE",
"-813 -295 LINE",
"-777 -322 OFFCURVE",
"-777 -349 QCURVE SMOOTH",
"-777 -382 OFFCURVE",
"-796 -382 QCURVE SMOOTH",
"-825 -382 OFFCURVE",
"-825 -337 QCURVE SMOOTH",
"-825 -262 LINE SMOOTH",
"-825 -186 OFFCURVE",
"-795 -186 QCURVE SMOOTH",
"-705 -186 OFFCURVE",
"-665 -251 QCURVE",
"-645 -268 OFFCURVE",
"-625 -268 QCURVE SMOOTH",
"-605 -268 OFFCURVE",
"-585 -251 QCURVE",
"-545 -186 OFFCURVE",
"-455 -186 QCURVE SMOOTH",
"-425 -186 OFFCURVE",
"-425 -262 QCURVE SMOOTH",
"-425 -550 LINE",
"-205 -550 LINE",
"-205 -384 LINE",
"-205 -384 LINE"
);
}
);
width = 610;
}
);
note = uni17D2178D;
},
{
glyphname = uni17D2178E;
layers = (
{
layerId = "4245090C-1DC1-4B2E-AF8E-CDB91B981D5B";
paths = (
{
closed = 1;
nodes = (
"-1080 -416 LINE",
"-1206 -359 LINE SMOOTH",
"-1241 -342 OFFCURVE",
"-1277 -342 QCURVE SMOOTH",
"-1310 -342 OFFCURVE",
"-1344 -357 QCURVE SMOOTH",
"-1470 -412 LINE",
"-1470 -224 LINE SMOOTH",
"-1470 -50 OFFCURVE",
"-1920 -50 QCURVE SMOOTH",
"-2370 -50 OFFCURVE",
"-2370 -224 QCURVE SMOOTH",
"-2370 -416 LINE SMOOTH",
"-2370 -550 OFFCURVE",
"-2115 -550 QCURVE SMOOTH",
"-1860 -550 OFFCURVE",
"-1860 -394 QCURVE SMOOTH",
"-1860 -333 OFFCURVE",
"-1988 -258 OFFCURVE",
"-2075 -258 QCURVE",
"-2095 -298 LINE",
"-2020 -327 OFFCURVE",
"-2020 -394 QCURVE SMOOTH",
"-2020 -451 OFFCURVE",
"-2075 -451 QCURVE SMOOTH",
"-2120 -451 OFFCURVE",
"-2120 -416 QCURVE SMOOTH",
"-2120 -224 LINE SMOOTH",
"-2120 -143 OFFCURVE",
"-1920 -143 QCURVE SMOOTH",
"-1720 -143 OFFCURVE",
"-1720 -224 QCURVE SMOOTH",
"-1720 -550 LINE",
"-1500 -550 LINE",
"-1275 -440 LINE",
"-1050 -550 LINE",
"-830 -550 LINE",
"-830 -224 LINE SMOOTH",
"-830 -143 OFFCURVE",
"-630 -143 QCURVE SMOOTH",
"-430 -143 OFFCURVE",
"-430 -224 QCURVE SMOOTH",
"-430 -550 LINE",
"-180 -550 LINE",
"-180 -224 LINE SMOOTH",
"-180 -50 OFFCURVE",
"-630 -50 QCURVE SMOOTH",
"-1080 -50 OFFCURVE",
"-1080 -224 QCURVE",
"-1080 -224 LINE"
);
}
);
width = 0;
}
);
note = uni17D2178E;
},
{
glyphname = uni17D2178F;
layers = (
{
layerId = "4245090C-1DC1-4B2E-AF8E-CDB91B981D5B";
paths = (
{
closed = 1;
nodes = (
"-1045 -337 LINE SMOOTH",
"-1045 -550 OFFCURVE",
"-843 -550 QCURVE SMOOTH",
"-670 -550 OFFCURVE",
"-670 -376 QCURVE SMOOTH",
"-670 -275 OFFCURVE",
"-777 -225 QCURVE",
"-813 -275 LINE",
"-777 -302 OFFCURVE",
"-777 -349 QCURVE SMOOTH",
"-777 -382 OFFCURVE",
"-796 -382 QCURVE SMOOTH",
"-825 -382 OFFCURVE",
"-825 -337 QCURVE SMOOTH",
"-825 -262 LINE SMOOTH",
"-825 -166 OFFCURVE",
"-625 -166 QCURVE SMOOTH",
"-425 -166 OFFCURVE",
"-425 -262 QCURVE SMOOTH",
"-425 -550 LINE",
"-205 -550 LINE",
"-205 -263 LINE SMOOTH",
"-205 -141 OFFCURVE",
"-305 -96 QCURVE SMOOTH",
"-405 -50 OFFCURVE",
"-625 -50 QCURVE SMOOTH",
"-845 -50 OFFCURVE",
"-945 -96 QCURVE SMOOTH",
"-1045 -141 OFFCURVE",
"-1045 -260 QCURVE",
"-1045 -260 LINE"
);
}
);
width = 0;
}
);
note = uni17D2178F;
},
{
glyphname = uni17D21790;
layers = (
{
layerId = "4245090C-1DC1-4B2E-AF8E-CDB91B981D5B";
paths = (
{
closed = 1;
nodes = (
"-1125 -436 OFFCURVE",
"-975 -550 OFFCURVE",
"-875 -550 QCURVE SMOOTH",
"-825 -550 OFFCURVE",
"-800 -527 QCURVE SMOOTH",
"-775 -504 OFFCURVE",
"-775 -459 QCURVE",
"-850 -459 OFFCURVE",
"-887 -425 QCURVE SMOOTH",
"-925 -391 OFFCURVE",
"-925 -323 QCURVE SMOOTH",
"-925 -254 OFFCURVE",
"-855 -168 OFFCURVE",
"-775 -168 QCURVE SMOOTH",
"-711 -168 OFFCURVE",
"-543 -285 OFFCURVE",
"-500 -375 QCURVE SMOOTH",
"-457 -466 OFFCURVE",
"-391 -509 QCURVE SMOOTH",
"-325 -550 OFFCURVE",
"-175 -550 QCURVE SMOOTH",
"-125 -550 OFFCURVE",
"-125 -459 QCURVE",
"-181 -459 OFFCURVE",
"-227 -421 QCURVE SMOOTH",
"-272 -384 OFFCURVE",
"-324 -292 QCURVE SMOOTH",
"-377 -202 OFFCURVE",
"-493 -126 QCURVE SMOOTH",
"-611 -50 OFFCURVE",
"-775 -50 QCURVE SMOOTH",
"-950 -50 OFFCURVE",
"-1037 -130 QCURVE SMOOTH",
"-1125 -209 OFFCURVE",
"-1125 -323 QCURVE",
"-1125 -323 LINE"
);
}
);
width = 0;
}
);
note = uni17D21790;
},
{
glyphname = uni17D21791;
layers = (
{
layerId = "4245090C-1DC1-4B2E-AF8E-CDB91B981D5B";
paths = (
{
closed = 1;
nodes = (
"-730 -161 OFFCURVE",
"-782 -280 OFFCURVE",
"-992 -330 QCURVE SMOOTH",
"-1045 -342 OFFCURVE",
"-1045 -405 QCURVE SMOOTH",
"-1045 -477 OFFCURVE",
"-861 -552 OFFCURVE",
"-731 -552 QCURVE SMOOTH",
"-638 -552 OFFCURVE",
"-511 -491 OFFCURVE",
"-467 -449 QCURVE",
"-467 -473 LINE SMOOTH",
"-467 -512 OFFCURVE",
"-515 -551 QCURVE",
"-359 -551 OFFCURVE",
"-256 -531 QCURVE",
"-205 -512 OFFCURVE",
"-205 -473 QCURVE SMOOTH",
"-205 -165 LINE SMOOTH",
"-205 -126 OFFCURVE",
"-273 -126 QCURVE SMOOTH",
"-380 -126 OFFCURVE",
"-403 -143 QCURVE SMOOTH",
"-427 -159 OFFCURVE",
"-437 -192 QCURVE SMOOTH",
"-449 -227 LINE",
"-517 -333 OFFCURVE",
"-655 -443 OFFCURVE",
"-731 -443 QCURVE SMOOTH",
"-752 -443 OFFCURVE",
"-782 -422 OFFCURVE",
"-782 -407 QCURVE",
"-719 -382 OFFCURVE",
"-580 -310 OFFCURVE",
"-467 -165 OFFCURVE",
"-467 -126 QCURVE SMOOTH",
"-467 -88 OFFCURVE",
"-494 -70 QCURVE SMOOTH",
"-520 -50 OFFCURVE",
"-620 -50 QCURVE SMOOTH",
"-719 -50 OFFCURVE",
"-746 -70 QCURVE SMOOTH",
"-772 -88 OFFCURVE",
"-772 -126 QCURVE",
"-730 -126 OFFCURVE",
"-730 -137 QCURVE",
"-730 -137 LINE"
);
}
);
width = 0;
}
);
note = uni17D21791;
},
{
glyphname = uni17D21792;
layers = (
{
layerId = "4245090C-1DC1-4B2E-AF8E-CDB91B981D5B";
paths = (
{
closed = 1;
nodes = (
"-453 -200 OFFCURVE",
"-441 -201 QCURVE SMOOTH",
"-428 -201 OFFCURVE",
"-428 -223 QCURVE SMOOTH",
"-428 -231 OFFCURVE",
"-430 -241 QCURVE SMOOTH",
"-436 -285 OFFCURVE",
"-455 -304 QCURVE SMOOTH",
"-472 -323 OFFCURVE",
"-500 -323 QCURVE SMOOTH",
"-505 -323 LINE SMOOTH",
"-512 -323 OFFCURVE",
"-519 -321 QCURVE SMOOTH",
"-570 -308 LINE",
"-606 -296 LINE",
"-578 -286 OFFCURVE",
"-542 -267 QCURVE SMOOTH",
"-475 -230 OFFCURVE",
"-460 -199 QCURVE",
"-460 -199 LINE"
);
},
{
closed = 1;
nodes = (
"-755 -371 OFFCURVE",
"-689 -352 QCURVE",
"-687 -384 LINE",
"-692 -415 OFFCURVE",
"-718 -430 QCURVE SMOOTH",
"-739 -443 OFFCURVE",
"-764 -443 QCURVE SMOOTH",
"-793 -443 OFFCURVE",
"-820 -427 QCURVE SMOOTH",
"-842 -415 OFFCURVE",
"-842 -399 QCURVE SMOOTH",
"-842 -396 OFFCURVE",
"-841 -393 QCURVE",
"-841 -393 LINE"
);
},
{
closed = 1;
nodes = (
"-424 -55 OFFCURVE",
"-459 -53 QCURVE SMOOTH",
"-470 -52 OFFCURVE",
"-480 -52 QCURVE SMOOTH",
"-611 -52 OFFCURVE",
"-616 -86 QCURVE",
"-571 -91 OFFCURVE",
"-571 -123 QCURVE SMOOTH",
"-571 -131 LINE",
"-642 -196 OFFCURVE",
"-811 -280 OFFCURVE",
"-983 -308 QCURVE",
"-1036 -325 OFFCURVE",
"-1044 -392 QCURVE",
"-1044 -407 LINE SMOOTH",
"-1044 -461 OFFCURVE",
"-991 -496 QCURVE SMOOTH",
"-930 -534 OFFCURVE",
"-799 -546 QCURVE SMOOTH",
"-783 -547 OFFCURVE",
"-767 -547 QCURVE SMOOTH",
"-693 -547 OFFCURVE",
"-650 -517 QCURVE SMOOTH",
"-597 -481 OFFCURVE",
"-586 -402 QCURVE",
"-519 -419 LINE SMOOTH",
"-494 -424 OFFCURVE",
"-448 -435 OFFCURVE",
"-429 -437 QCURVE",
"-405 -437 LINE SMOOTH",
"-326 -437 OFFCURVE",
"-277 -391 QCURVE SMOOTH",
"-221 -337 OFFCURVE",
"-206 -223 QCURVE SMOOTH",
"-204 -208 OFFCURVE",
"-204 -195 QCURVE SMOOTH",
"-204 -141 OFFCURVE",
"-236 -108 QCURVE SMOOTH",
"-275 -68 OFFCURVE",
"-334 -64 QCURVE SMOOTH",
"-340 -63 OFFCURVE",
"-345 -63 QCURVE SMOOTH",
"-388 -63 OFFCURVE",
"-409 -75 QCURVE",
"-409 -75 LINE"
);
}
);
width = 0;
}
);
note = uni17D21792;
},
{
glyphname = uni17D21793;
layers = (
{
layerId = "4245090C-1DC1-4B2E-AF8E-CDB91B981D5B";
paths = (
{
closed = 1;
nodes = (
"-778 -440 OFFCURVE",
"-765 -439 OFFCURVE",
"-757 -439 QCURVE SMOOTH",
"-730 -439 LINE",
"-520 -412 LINE",
"-520 -479 OFFCURVE",
"-489 -512 QCURVE SMOOTH",
"-457 -547 OFFCURVE",
"-305 -547 QCURVE SMOOTH",
"-243 -547 OFFCURVE",
"-211 -519 QCURVE SMOOTH",
"-180 -491 OFFCURVE",
"-180 -434 QCURVE SMOOTH",
"-180 -359 OFFCURVE",
"-205 -331 QCURVE SMOOTH",
"-230 -303 OFFCURVE",
"-280 -303 QCURVE",
"-280 -230 LINE",
"-130 -230 LINE",
"-130 -104 LINE",
"-280 -104 LINE",
"-280 -50 LINE",
"-520 -50 LINE",
"-520 -104 LINE",
"-740 -104 LINE SMOOTH",
"-1080 -104 OFFCURVE",
"-1080 -280 QCURVE SMOOTH",
"-1080 -440 OFFCURVE",
"-830 -440 QCURVE",
"-830 -440 LINE"
);
},
{
closed = 1;
nodes = (
"-840 -230 OFFCURVE",
"-740 -230 QCURVE SMOOTH",
"-520 -230 LINE",
"-520 -303 LINE",
"-690 -330 LINE SMOOTH",
"-717 -333 OFFCURVE",
"-790 -333 QCURVE SMOOTH",
"-840 -333 OFFCURVE",
"-840 -280 QCURVE",
"-840 -280 LINE"
);
}
);
width = 0;
}
);
note = uni17D21793;
},
{
glyphname = uni17D21794;
layers = (
{
layerId = "4245090C-1DC1-4B2E-AF8E-CDB91B981D5B";
paths = (
{
closed = 1;
nodes = (
"-430 -550 LINE",
"-210 -550 LINE",
"-65 -382 OFFCURVE",
"0 -382 QCURVE SMOOTH",
"65 -382 OFFCURVE",
"210 -550 QCURVE",
"430 -550 LINE",
"430 806 LINE SMOOTH",
"430 932 OFFCURVE",
"216 991 QCURVE",
"239 1074 OFFCURVE",
"271 1074 QCURVE",
"350 1016 OFFCURVE",
"425 1016 QCURVE SMOOTH",
"540 1016 OFFCURVE",
"560 1223 QCURVE",
"533 1210 OFFCURVE",
"494 1210 QCURVE SMOOTH",
"464 1210 OFFCURVE",
"320 1300 OFFCURVE",
"258 1300 QCURVE SMOOTH",
"196 1300 OFFCURVE",
"74 1106 OFFCURVE",
"50 1004 QCURVE",
"90 882 LINE",
"180 862 OFFCURVE",
"180 756 QCURVE SMOOTH",
"180 -320 LINE",
"74 -227 OFFCURVE",
"1 -227 QCURVE SMOOTH",
"-73 -227 OFFCURVE",
"-180 -320 QCURVE",
"-180 -238 LINE SMOOTH",
"-180 -186 OFFCURVE",
"-78 -166 QCURVE",
"-80 -50 OFFCURVE",
"-245 -50 QCURVE SMOOTH",
"-430 -50 OFFCURVE",
"-430 -203 QCURVE",
"-430 -203 LINE"
);
}
);
width = 610;
}
);
note = uni17D21794;
},
{
glyphname = uni17D21795;
layers = (
{
layerId = "4245090C-1DC1-4B2E-AF8E-CDB91B981D5B";
paths = (
{
closed = 1;
nodes = (
"-1045 -550 LINE",
"-830 -550 LINE",
"-688 -397 OFFCURVE",
"-625 -397 QCURVE SMOOTH",
"-562 -397 OFFCURVE",
"-420 -550 QCURVE",
"-205 -550 LINE",
"-205 -220 LINE SMOOTH",
"-205 -50 OFFCURVE",
"-386 -50 QCURVE SMOOTH",
"-547 -50 OFFCURVE",
"-549 -179 QCURVE",
"-449 -201 OFFCURVE",
"-449 -259 QCURVE SMOOTH",
"-449 -350 LINE",
"-554 -247 OFFCURVE",
"-626 -247 QCURVE SMOOTH",
"-697 -247 OFFCURVE",
"-801 -350 QCURVE",
"-801 -50 LINE",
"-1045 -50 LINE",
"-1045 -50 LINE"
);
}
);
width = 0;
}
);
note = uni17D21795;
},
